<ttFont>
    <TTGlyph name="A" xMin="51" yMin="-10" xMax="647" yMax="760">
      <contour>
        <pt x="454" y="221" on="1"/>
        <pt x="376" y="225" on="0"/>
        <pt x="274" y="225" on="0"/>
        <pt x="235" y="223" on="1"/>
        <pt x="223" y="192" on="0"/>
        <pt x="188" y="69" on="0"/>
        <pt x="179" y="43" on="1"/>
        <pt x="161" y="-10" on="0"/>
        <pt x="113" y="-10" on="1"/>
        <pt x="85" y="-10" on="0"/>
        <pt x="51" y="24" on="0"/>
        <pt x="51" y="85" on="0"/>
        <pt x="103" y="220" on="1"/>
        <pt x="51" y="232" on="0"/>
        <pt x="51" y="280" on="1"/>
        <pt x="51" y="345" on="0"/>
        <pt x="144" y="345" on="1"/>
        <pt x="158" y="388" on="0"/>
        <pt x="238" y="612" on="0"/>
        <pt x="261" y="681" on="0"/>
        <pt x="274" y="711" on="0"/>
        <pt x="285" y="728" on="1"/>
        <pt x="306" y="760" on="0"/>
        <pt x="348" y="760" on="1"/>
        <pt x="379" y="760" on="0"/>
        <pt x="403" y="741" on="1"/>
        <pt x="418" y="729" on="0"/>
        <pt x="442" y="660" on="0"/>
        <pt x="467" y="585" on="0"/>
        <pt x="496" y="506" on="0"/>
        <pt x="547" y="356" on="0"/>
        <pt x="551" y="345" on="1"/>
        <pt x="556" y="346" on="0"/>
        <pt x="569" y="346" on="1"/>
        <pt x="603" y="346" on="0"/>
        <pt x="647" y="307" on="0"/>
        <pt x="647" y="279" on="1"/>
        <pt x="647" y="233" on="0"/>
        <pt x="591" y="218" on="1"/>
        <pt x="647" y="73" on="0"/>
        <pt x="647" y="27" on="0"/>
        <pt x="610" y="-10" on="0"/>
        <pt x="580" y="-10" on="1"/>
        <pt x="535" y="-10" on="0"/>
        <pt x="514" y="40" on="1"/>
        <pt x="509" y="52" on="0"/>
      </contour>
      <contour>
        <pt x="271" y="338" on="1"/>
        <pt x="296" y="336" on="0"/>
        <pt x="394" y="336" on="0"/>
        <pt x="419" y="338" on="1"/>
        <pt x="354" y="574" on="0"/>
        <pt x="346" y="574" on="1"/>
        <pt x="339" y="574" on="0"/>
        <pt x="288" y="397" on="1"/>
      </contour>
    </TTGlyph>
    <TTGlyph name="AE" xMin="44" yMin="-10" xMax="851" yMax="756">
      <contour>
        <pt x="365" y="338" on="1"/>
        <pt x="329" y="554" on="1"/>
        <pt x="322" y="554" on="0"/>
        <pt x="278" y="392" on="1"/>
        <pt x="264" y="338" on="1"/>
        <pt x="294" y="336" on="0"/>
        <pt x="346" y="336" on="0"/>
      </contour>
      <contour>
        <pt x="611" y="122" on="1"/>
        <pt x="768" y="128" on="1"/>
        <pt x="806" y="128" on="0"/>
        <pt x="851" y="93" on="0"/>
        <pt x="851" y="31" on="0"/>
        <pt x="806" y="-6" on="0"/>
        <pt x="768" y="-6" on="1"/>
        <pt x="611" y="0" on="1"/>
        <pt x="488" y="-5" on="1"/>
        <pt x="412" y="-5" on="0"/>
        <pt x="400" y="59" on="1"/>
        <pt x="379" y="180" on="0"/>
        <pt x="372" y="225" on="1"/>
        <pt x="300" y="225" on="1"/>
        <pt x="232" y="223" on="0"/>
        <pt x="228" y="223" on="1"/>
        <pt x="216" y="192" on="0"/>
        <pt x="181" y="69" on="0"/>
        <pt x="172" y="43" on="1"/>
        <pt x="154" y="-10" on="0"/>
        <pt x="106" y="-10" on="1"/>
        <pt x="78" y="-10" on="0"/>
        <pt x="44" y="24" on="0"/>
        <pt x="44" y="85" on="0"/>
        <pt x="96" y="220" on="1"/>
        <pt x="44" y="232" on="0"/>
        <pt x="44" y="280" on="1"/>
        <pt x="44" y="345" on="0"/>
        <pt x="137" y="345" on="1"/>
        <pt x="151" y="388" on="0"/>
        <pt x="231" y="612" on="0"/>
        <pt x="245" y="655" on="1"/>
        <pt x="278" y="755" on="0"/>
        <pt x="337" y="755" on="1"/>
        <pt x="537" y="750" on="1"/>
        <pt x="704" y="756" on="1"/>
        <pt x="742" y="756" on="0"/>
        <pt x="787" y="719" on="0"/>
        <pt x="787" y="657" on="0"/>
        <pt x="742" y="622" on="0"/>
        <pt x="704" y="622" on="1"/>
        <pt x="547" y="628" on="1"/>
        <pt x="493" y="628" on="0"/>
        <pt x="439" y="624" on="1"/>
        <pt x="452" y="565" on="0"/>
        <pt x="469" y="463" on="1"/>
        <pt x="656" y="469" on="1"/>
        <pt x="692" y="469" on="0"/>
        <pt x="738" y="432" on="0"/>
        <pt x="738" y="371" on="0"/>
        <pt x="692" y="336" on="0"/>
        <pt x="630" y="336" on="0"/>
        <pt x="521" y="341" on="0"/>
        <pt x="492" y="341" on="1"/>
        <pt x="526" y="151" on="0"/>
        <pt x="533" y="123" on="1"/>
        <pt x="560" y="122" on="0"/>
      </contour>
    </TTGlyph>
    <TTGlyph name="Aacute" xMin="51" yMin="-10" xMax="647" yMax="996">
      <contour>
        <pt x="454" y="221" on="1"/>
        <pt x="376" y="225" on="0"/>
        <pt x="274" y="225" on="0"/>
        <pt x="235" y="223" on="1"/>
        <pt x="223" y="192" on="0"/>
        <pt x="188" y="69" on="0"/>
        <pt x="179" y="43" on="1"/>
        <pt x="161" y="-10" on="0"/>
        <pt x="113" y="-10" on="1"/>
        <pt x="85" y="-10" on="0"/>
        <pt x="51" y="24" on="0"/>
        <pt x="51" y="85" on="0"/>
        <pt x="103" y="220" on="1"/>
        <pt x="51" y="232" on="0"/>
        <pt x="51" y="280" on="1"/>
        <pt x="51" y="345" on="0"/>
        <pt x="144" y="345" on="1"/>
        <pt x="158" y="388" on="0"/>
        <pt x="238" y="612" on="0"/>
        <pt x="261" y="681" on="0"/>
        <pt x="274" y="711" on="0"/>
        <pt x="285" y="728" on="1"/>
        <pt x="306" y="760" on="0"/>
        <pt x="348" y="760" on="1"/>
        <pt x="379" y="760" on="0"/>
        <pt x="403" y="741" on="1"/>
        <pt x="418" y="729" on="0"/>
        <pt x="442" y="660" on="0"/>
        <pt x="467" y="585" on="0"/>
        <pt x="496" y="506" on="0"/>
        <pt x="547" y="356" on="0"/>
        <pt x="551" y="345" on="1"/>
        <pt x="556" y="346" on="0"/>
        <pt x="569" y="346" on="1"/>
        <pt x="603" y="346" on="0"/>
        <pt x="647" y="307" on="0"/>
        <pt x="647" y="279" on="1"/>
        <pt x="647" y="233" on="0"/>
        <pt x="591" y="218" on="1"/>
        <pt x="647" y="73" on="0"/>
        <pt x="647" y="27" on="0"/>
        <pt x="610" y="-10" on="0"/>
        <pt x="580" y="-10" on="1"/>
        <pt x="535" y="-10" on="0"/>
        <pt x="514" y="40" on="1"/>
        <pt x="509" y="52" on="0"/>
      </contour>
      <contour>
        <pt x="271" y="338" on="1"/>
        <pt x="296" y="336" on="0"/>
        <pt x="394" y="336" on="0"/>
        <pt x="419" y="338" on="1"/>
        <pt x="354" y="574" on="0"/>
        <pt x="346" y="574" on="1"/>
        <pt x="339" y="574" on="0"/>
        <pt x="288" y="397" on="1"/>
      </contour>
      <contour>
        <pt x="465" y="927" on="1"/>
        <pt x="465" y="878" on="0"/>
        <pt x="361" y="790" on="0"/>
        <pt x="325" y="790" on="1"/>
        <pt x="302" y="790" on="0"/>
        <pt x="276" y="815" on="0"/>
        <pt x="276" y="849" on="0"/>
        <pt x="317" y="910" on="0"/>
        <pt x="322" y="919" on="0"/>
        <pt x="336" y="952" on="0"/>
        <pt x="345" y="967" on="0"/>
        <pt x="354" y="977" on="1"/>
        <pt x="370" y="996" on="0"/>
        <pt x="433" y="996" on="0"/>
        <pt x="465" y="953" on="0"/>
      </contour>
    </TTGlyph>
    <TTGlyph name="Acircumflex" xMin="51" yMin="-10" xMax="647" yMax="1020">
      <contour>
        <pt x="454" y="221" on="1"/>
        <pt x="376" y="225" on="0"/>
        <pt x="274" y="225" on="0"/>
        <pt x="235" y="223" on="1"/>
        <pt x="223" y="192" on="0"/>
        <pt x="188" y="69" on="0"/>
        <pt x="179" y="43" on="1"/>
        <pt x="161" y="-10" on="0"/>
        <pt x="113" y="-10" on="1"/>
        <pt x="85" y="-10" on="0"/>
        <pt x="51" y="24" on="0"/>
        <pt x="51" y="85" on="0"/>
        <pt x="103" y="220" on="1"/>
        <pt x="51" y="232" on="0"/>
        <pt x="51" y="280" on="1"/>
        <pt x="51" y="345" on="0"/>
        <pt x="144" y="345" on="1"/>
        <pt x="158" y="388" on="0"/>
        <pt x="238" y="612" on="0"/>
        <pt x="261" y="681" on="0"/>
        <pt x="274" y="711" on="0"/>
        <pt x="285" y="728" on="1"/>
        <pt x="306" y="760" on="0"/>
        <pt x="348" y="760" on="1"/>
        <pt x="379" y="760" on="0"/>
        <pt x="403" y="741" on="1"/>
        <pt x="418" y="729" on="0"/>
        <pt x="442" y="660" on="0"/>
        <pt x="467" y="585" on="0"/>
        <pt x="496" y="506" on="0"/>
        <pt x="547" y="356" on="0"/>
        <pt x="551" y="345" on="1"/>
        <pt x="556" y="346" on="0"/>
        <pt x="569" y="346" on="1"/>
        <pt x="603" y="346" on="0"/>
        <pt x="647" y="307" on="0"/>
        <pt x="647" y="279" on="1"/>
        <pt x="647" y="233" on="0"/>
        <pt x="591" y="218" on="1"/>
        <pt x="647" y="73" on="0"/>
        <pt x="647" y="27" on="0"/>
        <pt x="610" y="-10" on="0"/>
        <pt x="580" y="-10" on="1"/>
        <pt x="535" y="-10" on="0"/>
        <pt x="514" y="40" on="1"/>
        <pt x="509" y="52" on="0"/>
      </contour>
      <contour>
        <pt x="271" y="338" on="1"/>
        <pt x="296" y="336" on="0"/>
        <pt x="394" y="336" on="0"/>
        <pt x="419" y="338" on="1"/>
        <pt x="354" y="574" on="0"/>
        <pt x="346" y="574" on="1"/>
        <pt x="339" y="574" on="0"/>
        <pt x="288" y="397" on="1"/>
      </contour>
      <contour>
        <pt x="297" y="1005" on="0"/>
        <pt x="328" y="1020" on="0"/>
        <pt x="371" y="1020" on="0"/>
        <pt x="401" y="1002" on="0"/>
        <pt x="448" y="948" on="0"/>
        <pt x="469" y="927" on="0"/>
        <pt x="504" y="895" on="0"/>
        <pt x="510" y="889" on="1"/>
        <pt x="527" y="872" on="0"/>
        <pt x="527" y="828" on="0"/>
        <pt x="492" y="793" on="0"/>
        <pt x="443" y="793" on="0"/>
        <pt x="391" y="841" on="0"/>
        <pt x="354" y="889" on="0"/>
        <pt x="338" y="889" on="0"/>
        <pt x="320" y="866" on="1"/>
        <pt x="263" y="794" on="0"/>
        <pt x="223" y="794" on="1"/>
        <pt x="200" y="794" on="0"/>
        <pt x="165" y="829" on="0"/>
        <pt x="165" y="863" on="0"/>
        <pt x="176" y="884" on="0"/>
        <pt x="188" y="896" on="0"/>
        <pt x="223" y="928" on="0"/>
        <pt x="245" y="950" on="0"/>
        <pt x="279" y="987" on="0"/>
      </contour>
    </TTGlyph>
    <TTGlyph name="Adieresis" xMin="51" yMin="-10" xMax="647" yMax="969">
      <contour>
        <pt x="454" y="221" on="1"/>
        <pt x="376" y="225" on="0"/>
        <pt x="274" y="225" on="0"/>
        <pt x="235" y="223" on="1"/>
        <pt x="223" y="192" on="0"/>
        <pt x="188" y="69" on="0"/>
        <pt x="179" y="43" on="1"/>
        <pt x="161" y="-10" on="0"/>
        <pt x="113" y="-10" on="1"/>
        <pt x="85" y="-10" on="0"/>
        <pt x="51" y="24" on="0"/>
        <pt x="51" y="85" on="0"/>
        <pt x="103" y="220" on="1"/>
        <pt x="51" y="232" on="0"/>
        <pt x="51" y="280" on="1"/>
        <pt x="51" y="345" on="0"/>
        <pt x="144" y="345" on="1"/>
        <pt x="158" y="388" on="0"/>
        <pt x="238" y="612" on="0"/>
        <pt x="261" y="681" on="0"/>
        <pt x="274" y="711" on="0"/>
        <pt x="285" y="728" on="1"/>
        <pt x="306" y="760" on="0"/>
        <pt x="348" y="760" on="1"/>
        <pt x="379" y="760" on="0"/>
        <pt x="403" y="741" on="1"/>
        <pt x="418" y="729" on="0"/>
        <pt x="442" y="660" on="0"/>
        <pt x="467" y="585" on="0"/>
        <pt x="496" y="506" on="0"/>
        <pt x="547" y="356" on="0"/>
        <pt x="551" y="345" on="1"/>
        <pt x="556" y="346" on="0"/>
        <pt x="569" y="346" on="1"/>
        <pt x="603" y="346" on="0"/>
        <pt x="647" y="307" on="0"/>
        <pt x="647" y="279" on="1"/>
        <pt x="647" y="233" on="0"/>
        <pt x="591" y="218" on="1"/>
        <pt x="647" y="73" on="0"/>
        <pt x="647" y="27" on="0"/>
        <pt x="610" y="-10" on="0"/>
        <pt x="580" y="-10" on="1"/>
        <pt x="535" y="-10" on="0"/>
        <pt x="514" y="40" on="1"/>
        <pt x="509" y="52" on="0"/>
      </contour>
      <contour>
        <pt x="271" y="338" on="1"/>
        <pt x="296" y="336" on="0"/>
        <pt x="394" y="336" on="0"/>
        <pt x="419" y="338" on="1"/>
        <pt x="354" y="574" on="0"/>
        <pt x="346" y="574" on="1"/>
        <pt x="339" y="574" on="0"/>
        <pt x="288" y="397" on="1"/>
      </contour>
      <contour>
        <pt x="502" y="969" on="0"/>
        <pt x="542" y="924" on="0"/>
        <pt x="542" y="858" on="0"/>
        <pt x="496" y="805" on="0"/>
        <pt x="427" y="805" on="0"/>
        <pt x="388" y="851" on="0"/>
        <pt x="388" y="917" on="0"/>
        <pt x="433" y="969" on="0"/>
      </contour>
      <contour>
        <pt x="264" y="969" on="0"/>
        <pt x="304" y="924" on="0"/>
        <pt x="304" y="858" on="0"/>
        <pt x="258" y="805" on="0"/>
        <pt x="189" y="805" on="0"/>
        <pt x="150" y="851" on="0"/>
        <pt x="150" y="917" on="0"/>
        <pt x="195" y="969" on="0"/>
      </contour>
    </TTGlyph>
    <TTGlyph name="Agrave" xMin="51" yMin="-10" xMax="647" yMax="996">
      <contour>
        <pt x="454" y="221" on="1"/>
        <pt x="376" y="225" on="0"/>
        <pt x="274" y="225" on="0"/>
        <pt x="235" y="223" on="1"/>
        <pt x="223" y="192" on="0"/>
        <pt x="188" y="69" on="0"/>
        <pt x="179" y="43" on="1"/>
        <pt x="161" y="-10" on="0"/>
        <pt x="113" y="-10" on="1"/>
        <pt x="85" y="-10" on="0"/>
        <pt x="51" y="24" on="0"/>
        <pt x="51" y="85" on="0"/>
        <pt x="103" y="220" on="1"/>
        <pt x="51" y="232" on="0"/>
        <pt x="51" y="280" on="1"/>
        <pt x="51" y="345" on="0"/>
        <pt x="144" y="345" on="1"/>
        <pt x="158" y="388" on="0"/>
        <pt x="238" y="612" on="0"/>
        <pt x="261" y="681" on="0"/>
        <pt x="274" y="711" on="0"/>
        <pt x="285" y="728" on="1"/>
        <pt x="306" y="760" on="0"/>
        <pt x="348" y="760" on="1"/>
        <pt x="379" y="760" on="0"/>
        <pt x="403" y="741" on="1"/>
        <pt x="418" y="729" on="0"/>
        <pt x="442" y="660" on="0"/>
        <pt x="467" y="585" on="0"/>
        <pt x="496" y="506" on="0"/>
        <pt x="547" y="356" on="0"/>
        <pt x="551" y="345" on="1"/>
        <pt x="556" y="346" on="0"/>
        <pt x="569" y="346" on="1"/>
        <pt x="603" y="346" on="0"/>
        <pt x="647" y="307" on="0"/>
        <pt x="647" y="279" on="1"/>
        <pt x="647" y="233" on="0"/>
        <pt x="591" y="218" on="1"/>
        <pt x="647" y="73" on="0"/>
        <pt x="647" y="27" on="0"/>
        <pt x="610" y="-10" on="0"/>
        <pt x="580" y="-10" on="1"/>
        <pt x="535" y="-10" on="0"/>
        <pt x="514" y="40" on="1"/>
        <pt x="509" y="52" on="0"/>
      </contour>
      <contour>
        <pt x="271" y="338" on="1"/>
        <pt x="296" y="336" on="0"/>
        <pt x="394" y="336" on="0"/>
        <pt x="419" y="338" on="1"/>
        <pt x="354" y="574" on="0"/>
        <pt x="346" y="574" on="1"/>
        <pt x="339" y="574" on="0"/>
        <pt x="288" y="397" on="1"/>
      </contour>
      <contour>
        <pt x="236" y="927" on="1"/>
        <pt x="236" y="953" on="0"/>
        <pt x="268" y="996" on="0"/>
        <pt x="315" y="996" on="0"/>
        <pt x="339" y="987" on="0"/>
        <pt x="356" y="967" on="0"/>
        <pt x="365" y="952" on="0"/>
        <pt x="379" y="919" on="0"/>
        <pt x="384" y="910" on="0"/>
        <pt x="425" y="849" on="0"/>
        <pt x="425" y="815" on="0"/>
        <pt x="399" y="790" on="0"/>
        <pt x="376" y="790" on="1"/>
        <pt x="340" y="790" on="0"/>
        <pt x="236" y="878" on="0"/>
      </contour>
    </TTGlyph>
    <TTGlyph name="Aring" xMin="51" yMin="-10" xMax="647" yMax="1016">
      <contour>
        <pt x="454" y="221" on="1"/>
        <pt x="376" y="225" on="0"/>
        <pt x="274" y="225" on="0"/>
        <pt x="235" y="223" on="1"/>
        <pt x="223" y="192" on="0"/>
        <pt x="188" y="69" on="0"/>
        <pt x="179" y="43" on="1"/>
        <pt x="161" y="-10" on="0"/>
        <pt x="113" y="-10" on="1"/>
        <pt x="85" y="-10" on="0"/>
        <pt x="51" y="24" on="0"/>
        <pt x="51" y="85" on="0"/>
        <pt x="103" y="220" on="1"/>
        <pt x="51" y="232" on="0"/>
        <pt x="51" y="280" on="1"/>
        <pt x="51" y="345" on="0"/>
        <pt x="144" y="345" on="1"/>
        <pt x="158" y="388" on="0"/>
        <pt x="238" y="612" on="0"/>
        <pt x="261" y="681" on="0"/>
        <pt x="274" y="711" on="0"/>
        <pt x="285" y="728" on="1"/>
        <pt x="306" y="760" on="0"/>
        <pt x="348" y="760" on="1"/>
        <pt x="379" y="760" on="0"/>
        <pt x="403" y="741" on="1"/>
        <pt x="418" y="729" on="0"/>
        <pt x="442" y="660" on="0"/>
        <pt x="467" y="585" on="0"/>
        <pt x="496" y="506" on="0"/>
        <pt x="547" y="356" on="0"/>
        <pt x="551" y="345" on="1"/>
        <pt x="556" y="346" on="0"/>
        <pt x="569" y="346" on="1"/>
        <pt x="603" y="346" on="0"/>
        <pt x="647" y="307" on="0"/>
        <pt x="647" y="279" on="1"/>
        <pt x="647" y="233" on="0"/>
        <pt x="591" y="218" on="1"/>
        <pt x="647" y="73" on="0"/>
        <pt x="647" y="27" on="0"/>
        <pt x="610" y="-10" on="0"/>
        <pt x="580" y="-10" on="1"/>
        <pt x="535" y="-10" on="0"/>
        <pt x="514" y="40" on="1"/>
        <pt x="509" y="52" on="0"/>
      </contour>
      <contour>
        <pt x="271" y="338" on="1"/>
        <pt x="296" y="336" on="0"/>
        <pt x="394" y="336" on="0"/>
        <pt x="419" y="338" on="1"/>
        <pt x="354" y="574" on="0"/>
        <pt x="346" y="574" on="1"/>
        <pt x="339" y="574" on="0"/>
        <pt x="288" y="397" on="1"/>
      </contour>
      <contour>
        <pt x="392" y="1016" on="0"/>
        <pt x="453" y="957" on="0"/>
        <pt x="453" y="872" on="0"/>
        <pt x="394" y="815" on="0"/>
        <pt x="298" y="815" on="0"/>
        <pt x="239" y="872" on="0"/>
        <pt x="239" y="957" on="0"/>
        <pt x="300" y="1016" on="0"/>
      </contour>
      <contour>
        <pt x="377" y="902" on="0"/>
        <pt x="377" y="926" on="0"/>
        <pt x="360" y="944" on="0"/>
        <pt x="332" y="944" on="0"/>
        <pt x="314" y="926" on="0"/>
        <pt x="314" y="902" on="0"/>
        <pt x="332" y="884" on="0"/>
        <pt x="360" y="884" on="0"/>
      </contour>
    </TTGlyph>
    <TTGlyph name="Atilde" xMin="51" yMin="-10" xMax="647" yMax="975">
      <contour>
        <pt x="454" y="221" on="1"/>
        <pt x="376" y="225" on="0"/>
        <pt x="274" y="225" on="0"/>
        <pt x="235" y="223" on="1"/>
        <pt x="223" y="192" on="0"/>
        <pt x="188" y="69" on="0"/>
        <pt x="179" y="43" on="1"/>
        <pt x="161" y="-10" on="0"/>
        <pt x="113" y="-10" on="1"/>
        <pt x="85" y="-10" on="0"/>
        <pt x="51" y="24" on="0"/>
        <pt x="51" y="85" on="0"/>
        <pt x="103" y="220" on="1"/>
        <pt x="51" y="232" on="0"/>
        <pt x="51" y="280" on="1"/>
        <pt x="51" y="345" on="0"/>
        <pt x="144" y="345" on="1"/>
        <pt x="158" y="388" on="0"/>
        <pt x="238" y="612" on="0"/>
        <pt x="261" y="681" on="0"/>
        <pt x="274" y="711" on="0"/>
        <pt x="285" y="728" on="1"/>
        <pt x="306" y="760" on="0"/>
        <pt x="348" y="760" on="1"/>
        <pt x="379" y="760" on="0"/>
        <pt x="403" y="741" on="1"/>
        <pt x="418" y="729" on="0"/>
        <pt x="442" y="660" on="0"/>
        <pt x="467" y="585" on="0"/>
        <pt x="496" y="506" on="0"/>
        <pt x="547" y="356" on="0"/>
        <pt x="551" y="345" on="1"/>
        <pt x="556" y="346" on="0"/>
        <pt x="569" y="346" on="1"/>
        <pt x="603" y="346" on="0"/>
        <pt x="647" y="307" on="0"/>
        <pt x="647" y="279" on="1"/>
        <pt x="647" y="233" on="0"/>
        <pt x="591" y="218" on="1"/>
        <pt x="647" y="73" on="0"/>
        <pt x="647" y="27" on="0"/>
        <pt x="610" y="-10" on="0"/>
        <pt x="580" y="-10" on="1"/>
        <pt x="535" y="-10" on="0"/>
        <pt x="514" y="40" on="1"/>
        <pt x="509" y="52" on="0"/>
      </contour>
      <contour>
        <pt x="271" y="338" on="1"/>
        <pt x="296" y="336" on="0"/>
        <pt x="394" y="336" on="0"/>
        <pt x="419" y="338" on="1"/>
        <pt x="354" y="574" on="0"/>
        <pt x="346" y="574" on="1"/>
        <pt x="339" y="574" on="0"/>
        <pt x="288" y="397" on="1"/>
      </contour>
      <contour>
        <pt x="567" y="919" on="1"/>
        <pt x="567" y="885" on="0"/>
        <pt x="484" y="812" on="0"/>
        <pt x="408" y="812" on="0"/>
        <pt x="307" y="861" on="0"/>
        <pt x="276" y="861" on="0"/>
        <pt x="215" y="806" on="0"/>
        <pt x="161" y="806" on="0"/>
        <pt x="125" y="843" on="0"/>
        <pt x="125" y="870" on="1"/>
        <pt x="125" y="909" on="0"/>
        <pt x="211" y="975" on="0"/>
        <pt x="274" y="975" on="1"/>
        <pt x="306" y="975" on="0"/>
        <pt x="414" y="927" on="0"/>
        <pt x="458" y="927" on="0"/>
        <pt x="506" y="971" on="0"/>
        <pt x="543" y="971" on="0"/>
        <pt x="567" y="941" on="0"/>
      </contour>
    </TTGlyph>
    <TTGlyph name="B" xMin="64" yMin="-15" xMax="675" yMax="765">
      <contour>
        <pt x="675" y="221" on="1"/>
        <pt x="675" y="113" on="0"/>
        <pt x="494" y="-15" on="0"/>
        <pt x="223" y="-15" on="0"/>
        <pt x="64" y="42" on="0"/>
        <pt x="64" y="86" on="1"/>
        <pt x="64" y="133" on="0"/>
        <pt x="108" y="141" on="1"/>
        <pt x="111" y="241" on="0"/>
        <pt x="111" y="516" on="0"/>
        <pt x="108" y="592" on="1"/>
        <pt x="67" y="611" on="0"/>
        <pt x="67" y="679" on="0"/>
        <pt x="132" y="726" on="0"/>
        <pt x="179" y="739" on="1"/>
        <pt x="273" y="765" on="0"/>
        <pt x="417" y="765" on="0"/>
        <pt x="530" y="726" on="0"/>
        <pt x="562" y="694" on="1"/>
        <pt x="624" y="632" on="0"/>
        <pt x="624" y="562" on="1"/>
        <pt x="624" y="476" on="0"/>
        <pt x="547" y="411" on="1"/>
        <pt x="603" y="380" on="0"/>
        <pt x="675" y="278" on="0"/>
      </contour>
      <contour>
        <pt x="253" y="118" on="1"/>
        <pt x="291" y="111" on="0"/>
        <pt x="430" y="111" on="0"/>
        <pt x="532" y="170" on="0"/>
        <pt x="532" y="227" on="1"/>
        <pt x="532" y="269" on="0"/>
        <pt x="449" y="327" on="0"/>
        <pt x="400" y="337" on="1"/>
        <pt x="347" y="323" on="0"/>
        <pt x="276" y="323" on="0"/>
        <pt x="248" y="325" on="1"/>
        <pt x="250" y="151" on="0"/>
      </contour>
      <contour>
        <pt x="488" y="591" on="0"/>
        <pt x="417" y="639" on="0"/>
        <pt x="298" y="639" on="0"/>
        <pt x="250" y="627" on="1"/>
        <pt x="250" y="462" on="1"/>
        <pt x="288" y="466" on="0"/>
        <pt x="351" y="466" on="0"/>
        <pt x="388" y="458" on="1"/>
        <pt x="419" y="462" on="0"/>
        <pt x="488" y="517" on="0"/>
        <pt x="488" y="561" on="1"/>
      </contour>
    </TTGlyph>
    <TTGlyph name="C" xMin="63" yMin="-15" xMax="659" yMax="765">
      <contour>
        <pt x="659" y="121" on="1"/>
        <pt x="659" y="75" on="0"/>
        <pt x="507" y="-15" on="0"/>
        <pt x="400" y="-15" on="1"/>
        <pt x="255" y="-15" on="0"/>
        <pt x="63" y="213" on="0"/>
        <pt x="63" y="539" on="0"/>
        <pt x="256" y="765" on="0"/>
        <pt x="401" y="765" on="1"/>
        <pt x="493" y="765" on="0"/>
        <pt x="640" y="689" on="0"/>
        <pt x="640" y="641" on="1"/>
        <pt x="640" y="612" on="0"/>
        <pt x="602" y="577" on="0"/>
        <pt x="543" y="577" on="0"/>
        <pt x="455" y="638" on="0"/>
        <pt x="401" y="638" on="1"/>
        <pt x="316" y="638" on="0"/>
        <pt x="205" y="483" on="0"/>
        <pt x="205" y="270" on="0"/>
        <pt x="315" y="111" on="0"/>
        <pt x="478" y="111" on="0"/>
        <pt x="550" y="154" on="1"/>
        <pt x="583" y="174" on="0"/>
        <pt x="630" y="174" on="0"/>
        <pt x="659" y="144" on="0"/>
      </contour>
    </TTGlyph>
    <TTGlyph name="Ccedilla" xMin="63" yMin="-230" xMax="659" yMax="765">
      <contour>
        <pt x="659" y="121" on="1"/>
        <pt x="659" y="80" on="0"/>
        <pt x="536" y="-3" on="0"/>
        <pt x="444" y="-12" on="1"/>
        <pt x="449" y="-27" on="0"/>
        <pt x="506" y="-101" on="0"/>
        <pt x="506" y="-171" on="0"/>
        <pt x="433" y="-230" on="0"/>
        <pt x="328" y="-230" on="0"/>
        <pt x="253" y="-170" on="0"/>
        <pt x="253" y="-141" on="1"/>
        <pt x="253" y="-124" on="0"/>
        <pt x="274" y="-101" on="0"/>
        <pt x="309" y="-101" on="0"/>
        <pt x="353" y="-126" on="0"/>
        <pt x="366" y="-126" on="1"/>
        <pt x="389" y="-126" on="0"/>
        <pt x="389" y="-107" on="1"/>
        <pt x="389" y="-101" on="0"/>
        <pt x="335" y="-35" on="0"/>
        <pt x="332" y="-8" on="1"/>
        <pt x="213" y="18" on="0"/>
        <pt x="63" y="233" on="0"/>
        <pt x="63" y="376" on="1"/>
        <pt x="63" y="539" on="0"/>
        <pt x="256" y="765" on="0"/>
        <pt x="401" y="765" on="1"/>
        <pt x="493" y="765" on="0"/>
        <pt x="640" y="689" on="0"/>
        <pt x="640" y="641" on="1"/>
        <pt x="640" y="612" on="0"/>
        <pt x="602" y="577" on="0"/>
        <pt x="545" y="577" on="0"/>
        <pt x="442" y="638" on="0"/>
        <pt x="401" y="638" on="1"/>
        <pt x="316" y="638" on="0"/>
        <pt x="205" y="483" on="0"/>
        <pt x="205" y="270" on="0"/>
        <pt x="315" y="111" on="0"/>
        <pt x="400" y="111" on="1"/>
        <pt x="439" y="111" on="0"/>
        <pt x="502" y="131" on="0"/>
        <pt x="519" y="142" on="1"/>
        <pt x="566" y="174" on="0"/>
        <pt x="630" y="174" on="0"/>
        <pt x="659" y="144" on="0"/>
      </contour>
    </TTGlyph>
    <TTGlyph name="D" xMin="65" yMin="-15" xMax="713" yMax="763">
      <contour>
        <pt x="115" y="375" on="1"/>
        <pt x="110" y="603" on="1"/>
        <pt x="69" y="615" on="0"/>
        <pt x="69" y="660" on="1"/>
        <pt x="69" y="690" on="0"/>
        <pt x="156" y="740" on="0"/>
        <pt x="268" y="763" on="0"/>
        <pt x="318" y="763" on="1"/>
        <pt x="416" y="763" on="0"/>
        <pt x="571" y="697" on="0"/>
        <pt x="618" y="642" on="1"/>
        <pt x="713" y="529" on="0"/>
        <pt x="713" y="372" on="1"/>
        <pt x="713" y="221" on="0"/>
        <pt x="621" y="108" on="1"/>
        <pt x="576" y="52" on="0"/>
        <pt x="425" y="-15" on="0"/>
        <pt x="217" y="-15" on="0"/>
        <pt x="65" y="45" on="0"/>
        <pt x="65" y="135" on="0"/>
        <pt x="112" y="146" on="1"/>
      </contour>
      <contour>
        <pt x="572" y="376" on="1"/>
        <pt x="572" y="484" on="0"/>
        <pt x="441" y="638" on="0"/>
        <pt x="318" y="638" on="1"/>
        <pt x="284" y="638" on="0"/>
        <pt x="254" y="629" on="1"/>
        <pt x="251" y="568" on="0"/>
        <pt x="251" y="190" on="0"/>
        <pt x="255" y="118" on="1"/>
        <pt x="287" y="111" on="0"/>
        <pt x="327" y="111" on="1"/>
        <pt x="408" y="111" on="0"/>
        <pt x="465" y="150" on="1"/>
        <pt x="572" y="225" on="0"/>
      </contour>
    </TTGlyph>
    <TTGlyph name="E" xMin="52" yMin="-6" xMax="586" yMax="756">
      <contour>
        <pt x="346" y="0" on="1"/>
        <pt x="194" y="-6" on="1"/>
        <pt x="157" y="-6" on="0"/>
        <pt x="108" y="42" on="0"/>
        <pt x="108" y="82" on="1"/>
        <pt x="114" y="333" on="1"/>
        <pt x="52" y="342" on="0"/>
        <pt x="52" y="398" on="1"/>
        <pt x="52" y="425" on="0"/>
        <pt x="86" y="459" on="0"/>
        <pt x="113" y="464" on="1"/>
        <pt x="108" y="647" on="1"/>
        <pt x="97" y="668" on="0"/>
        <pt x="97" y="696" on="1"/>
        <pt x="97" y="756" on="0"/>
        <pt x="192" y="756" on="1"/>
        <pt x="344" y="750" on="1"/>
        <pt x="501" y="756" on="1"/>
        <pt x="539" y="756" on="0"/>
        <pt x="584" y="719" on="0"/>
        <pt x="584" y="657" on="0"/>
        <pt x="539" y="622" on="0"/>
        <pt x="501" y="622" on="1"/>
        <pt x="344" y="628" on="1"/>
        <pt x="290" y="628" on="0"/>
        <pt x="250" y="625" on="1"/>
        <pt x="250" y="459" on="1"/>
        <pt x="266" y="458" on="0"/>
        <pt x="293" y="458" on="1"/>
        <pt x="454" y="465" on="1"/>
        <pt x="490" y="465" on="0"/>
        <pt x="536" y="428" on="0"/>
        <pt x="536" y="367" on="0"/>
        <pt x="490" y="332" on="0"/>
        <pt x="454" y="332" on="1"/>
        <pt x="296" y="338" on="1"/>
        <pt x="282" y="338" on="1"/>
        <pt x="268" y="337" on="0"/>
        <pt x="250" y="337" on="1"/>
        <pt x="250" y="198" on="0"/>
        <pt x="252" y="124" on="1"/>
        <pt x="279" y="122" on="0"/>
        <pt x="346" y="122" on="1"/>
        <pt x="503" y="128" on="1"/>
        <pt x="541" y="128" on="0"/>
        <pt x="586" y="93" on="0"/>
        <pt x="586" y="31" on="0"/>
        <pt x="541" y="-6" on="0"/>
        <pt x="503" y="-6" on="1"/>
      </contour>
    </TTGlyph>
    <TTGlyph name="Eacute" xMin="52" yMin="-6" xMax="586" yMax="996">
      <contour>
        <pt x="346" y="0" on="1"/>
        <pt x="194" y="-6" on="1"/>
        <pt x="157" y="-6" on="0"/>
        <pt x="108" y="42" on="0"/>
        <pt x="108" y="82" on="1"/>
        <pt x="114" y="333" on="1"/>
        <pt x="52" y="342" on="0"/>
        <pt x="52" y="398" on="1"/>
        <pt x="52" y="425" on="0"/>
        <pt x="86" y="459" on="0"/>
        <pt x="113" y="464" on="1"/>
        <pt x="108" y="647" on="1"/>
        <pt x="97" y="668" on="0"/>
        <pt x="97" y="696" on="1"/>
        <pt x="97" y="756" on="0"/>
        <pt x="192" y="756" on="1"/>
        <pt x="344" y="750" on="1"/>
        <pt x="501" y="756" on="1"/>
        <pt x="539" y="756" on="0"/>
        <pt x="584" y="719" on="0"/>
        <pt x="584" y="657" on="0"/>
        <pt x="539" y="622" on="0"/>
        <pt x="501" y="622" on="1"/>
        <pt x="344" y="628" on="1"/>
        <pt x="290" y="628" on="0"/>
        <pt x="250" y="625" on="1"/>
        <pt x="250" y="459" on="1"/>
        <pt x="266" y="458" on="0"/>
        <pt x="293" y="458" on="1"/>
        <pt x="454" y="465" on="1"/>
        <pt x="490" y="465" on="0"/>
        <pt x="536" y="428" on="0"/>
        <pt x="536" y="367" on="0"/>
        <pt x="490" y="332" on="0"/>
        <pt x="454" y="332" on="1"/>
        <pt x="296" y="338" on="1"/>
        <pt x="282" y="338" on="1"/>
        <pt x="268" y="337" on="0"/>
        <pt x="250" y="337" on="1"/>
        <pt x="250" y="198" on="0"/>
        <pt x="252" y="124" on="1"/>
        <pt x="279" y="122" on="0"/>
        <pt x="346" y="122" on="1"/>
        <pt x="503" y="128" on="1"/>
        <pt x="541" y="128" on="0"/>
        <pt x="586" y="93" on="0"/>
        <pt x="586" y="31" on="0"/>
        <pt x="541" y="-6" on="0"/>
        <pt x="503" y="-6" on="1"/>
      </contour>
      <contour>
        <pt x="458" y="927" on="1"/>
        <pt x="458" y="878" on="0"/>
        <pt x="354" y="790" on="0"/>
        <pt x="318" y="790" on="1"/>
        <pt x="295" y="790" on="0"/>
        <pt x="269" y="815" on="0"/>
        <pt x="269" y="849" on="0"/>
        <pt x="310" y="910" on="0"/>
        <pt x="315" y="919" on="0"/>
        <pt x="329" y="952" on="0"/>
        <pt x="338" y="967" on="0"/>
        <pt x="346" y="977" on="1"/>
        <pt x="363" y="996" on="0"/>
        <pt x="426" y="996" on="0"/>
        <pt x="458" y="953" on="0"/>
      </contour>
    </TTGlyph>
    <TTGlyph name="Ecircumflex" xMin="52" yMin="-6" xMax="586" yMax="1020">
      <contour>
        <pt x="346" y="0" on="1"/>
        <pt x="194" y="-6" on="1"/>
        <pt x="157" y="-6" on="0"/>
        <pt x="108" y="42" on="0"/>
        <pt x="108" y="82" on="1"/>
        <pt x="114" y="333" on="1"/>
        <pt x="52" y="342" on="0"/>
        <pt x="52" y="398" on="1"/>
        <pt x="52" y="425" on="0"/>
        <pt x="86" y="459" on="0"/>
        <pt x="113" y="464" on="1"/>
        <pt x="108" y="647" on="1"/>
        <pt x="97" y="668" on="0"/>
        <pt x="97" y="696" on="1"/>
        <pt x="97" y="756" on="0"/>
        <pt x="192" y="756" on="1"/>
        <pt x="344" y="750" on="1"/>
        <pt x="501" y="756" on="1"/>
        <pt x="539" y="756" on="0"/>
        <pt x="584" y="719" on="0"/>
        <pt x="584" y="657" on="0"/>
        <pt x="539" y="622" on="0"/>
        <pt x="501" y="622" on="1"/>
        <pt x="344" y="628" on="1"/>
        <pt x="290" y="628" on="0"/>
        <pt x="250" y="625" on="1"/>
        <pt x="250" y="459" on="1"/>
        <pt x="266" y="458" on="0"/>
        <pt x="293" y="458" on="1"/>
        <pt x="454" y="465" on="1"/>
        <pt x="490" y="465" on="0"/>
        <pt x="536" y="428" on="0"/>
        <pt x="536" y="367" on="0"/>
        <pt x="490" y="332" on="0"/>
        <pt x="454" y="332" on="1"/>
        <pt x="296" y="338" on="1"/>
        <pt x="282" y="338" on="1"/>
        <pt x="268" y="337" on="0"/>
        <pt x="250" y="337" on="1"/>
        <pt x="250" y="198" on="0"/>
        <pt x="252" y="124" on="1"/>
        <pt x="279" y="122" on="0"/>
        <pt x="346" y="122" on="1"/>
        <pt x="503" y="128" on="1"/>
        <pt x="541" y="128" on="0"/>
        <pt x="586" y="93" on="0"/>
        <pt x="586" y="31" on="0"/>
        <pt x="541" y="-6" on="0"/>
        <pt x="503" y="-6" on="1"/>
      </contour>
      <contour>
        <pt x="283" y="1005" on="0"/>
        <pt x="314" y="1020" on="0"/>
        <pt x="357" y="1020" on="0"/>
        <pt x="387" y="1002" on="0"/>
        <pt x="434" y="948" on="0"/>
        <pt x="455" y="927" on="0"/>
        <pt x="490" y="895" on="0"/>
        <pt x="496" y="889" on="1"/>
        <pt x="513" y="872" on="0"/>
        <pt x="513" y="828" on="0"/>
        <pt x="478" y="793" on="0"/>
        <pt x="429" y="793" on="0"/>
        <pt x="377" y="841" on="0"/>
        <pt x="340" y="889" on="0"/>
        <pt x="324" y="889" on="0"/>
        <pt x="306" y="866" on="1"/>
        <pt x="249" y="794" on="0"/>
        <pt x="209" y="794" on="1"/>
        <pt x="186" y="794" on="0"/>
        <pt x="151" y="829" on="0"/>
        <pt x="151" y="863" on="0"/>
        <pt x="162" y="884" on="0"/>
        <pt x="174" y="896" on="0"/>
        <pt x="209" y="928" on="0"/>
        <pt x="231" y="950" on="0"/>
        <pt x="265" y="987" on="0"/>
      </contour>
    </TTGlyph>
    <TTGlyph name="Edieresis" xMin="52" yMin="-6" xMax="586" yMax="972">
      <contour>
        <pt x="346" y="0" on="1"/>
        <pt x="194" y="-6" on="1"/>
        <pt x="157" y="-6" on="0"/>
        <pt x="108" y="42" on="0"/>
        <pt x="108" y="82" on="1"/>
        <pt x="114" y="333" on="1"/>
        <pt x="52" y="342" on="0"/>
        <pt x="52" y="398" on="1"/>
        <pt x="52" y="425" on="0"/>
        <pt x="86" y="459" on="0"/>
        <pt x="113" y="464" on="1"/>
        <pt x="108" y="647" on="1"/>
        <pt x="97" y="668" on="0"/>
        <pt x="97" y="696" on="1"/>
        <pt x="97" y="756" on="0"/>
        <pt x="192" y="756" on="1"/>
        <pt x="344" y="750" on="1"/>
        <pt x="501" y="756" on="1"/>
        <pt x="539" y="756" on="0"/>
        <pt x="584" y="719" on="0"/>
        <pt x="584" y="657" on="0"/>
        <pt x="539" y="622" on="0"/>
        <pt x="501" y="622" on="1"/>
        <pt x="344" y="628" on="1"/>
        <pt x="290" y="628" on="0"/>
        <pt x="250" y="625" on="1"/>
        <pt x="250" y="459" on="1"/>
        <pt x="266" y="458" on="0"/>
        <pt x="293" y="458" on="1"/>
        <pt x="454" y="465" on="1"/>
        <pt x="490" y="465" on="0"/>
        <pt x="536" y="428" on="0"/>
        <pt x="536" y="367" on="0"/>
        <pt x="490" y="332" on="0"/>
        <pt x="454" y="332" on="1"/>
        <pt x="296" y="338" on="1"/>
        <pt x="282" y="338" on="1"/>
        <pt x="268" y="337" on="0"/>
        <pt x="250" y="337" on="1"/>
        <pt x="250" y="198" on="0"/>
        <pt x="252" y="124" on="1"/>
        <pt x="279" y="122" on="0"/>
        <pt x="346" y="122" on="1"/>
        <pt x="503" y="128" on="1"/>
        <pt x="541" y="128" on="0"/>
        <pt x="586" y="93" on="0"/>
        <pt x="586" y="31" on="0"/>
        <pt x="541" y="-6" on="0"/>
        <pt x="503" y="-6" on="1"/>
      </contour>
      <contour>
        <pt x="492" y="972" on="0"/>
        <pt x="532" y="927" on="0"/>
        <pt x="532" y="861" on="0"/>
        <pt x="486" y="808" on="0"/>
        <pt x="417" y="808" on="0"/>
        <pt x="378" y="854" on="0"/>
        <pt x="378" y="920" on="0"/>
        <pt x="423" y="972" on="0"/>
      </contour>
      <contour>
        <pt x="254" y="972" on="0"/>
        <pt x="294" y="927" on="0"/>
        <pt x="294" y="861" on="0"/>
        <pt x="248" y="808" on="0"/>
        <pt x="179" y="808" on="0"/>
        <pt x="140" y="854" on="0"/>
        <pt x="140" y="920" on="0"/>
        <pt x="185" y="972" on="0"/>
      </contour>
    </TTGlyph>
    <TTGlyph name="Egrave" xMin="52" yMin="-6" xMax="586" yMax="996">
      <contour>
        <pt x="346" y="0" on="1"/>
        <pt x="194" y="-6" on="1"/>
        <pt x="157" y="-6" on="0"/>
        <pt x="108" y="42" on="0"/>
        <pt x="108" y="82" on="1"/>
        <pt x="114" y="333" on="1"/>
        <pt x="52" y="342" on="0"/>
        <pt x="52" y="398" on="1"/>
        <pt x="52" y="425" on="0"/>
        <pt x="86" y="459" on="0"/>
        <pt x="113" y="464" on="1"/>
        <pt x="108" y="647" on="1"/>
        <pt x="97" y="668" on="0"/>
        <pt x="97" y="696" on="1"/>
        <pt x="97" y="756" on="0"/>
        <pt x="192" y="756" on="1"/>
        <pt x="344" y="750" on="1"/>
        <pt x="501" y="756" on="1"/>
        <pt x="539" y="756" on="0"/>
        <pt x="584" y="719" on="0"/>
        <pt x="584" y="657" on="0"/>
        <pt x="539" y="622" on="0"/>
        <pt x="501" y="622" on="1"/>
        <pt x="344" y="628" on="1"/>
        <pt x="290" y="628" on="0"/>
        <pt x="250" y="625" on="1"/>
        <pt x="250" y="459" on="1"/>
        <pt x="266" y="458" on="0"/>
        <pt x="293" y="458" on="1"/>
        <pt x="454" y="465" on="1"/>
        <pt x="490" y="465" on="0"/>
        <pt x="536" y="428" on="0"/>
        <pt x="536" y="367" on="0"/>
        <pt x="490" y="332" on="0"/>
        <pt x="454" y="332" on="1"/>
        <pt x="296" y="338" on="1"/>
        <pt x="282" y="338" on="1"/>
        <pt x="268" y="337" on="0"/>
        <pt x="250" y="337" on="1"/>
        <pt x="250" y="198" on="0"/>
        <pt x="252" y="124" on="1"/>
        <pt x="279" y="122" on="0"/>
        <pt x="346" y="122" on="1"/>
        <pt x="503" y="128" on="1"/>
        <pt x="541" y="128" on="0"/>
        <pt x="586" y="93" on="0"/>
        <pt x="586" y="31" on="0"/>
        <pt x="541" y="-6" on="0"/>
        <pt x="503" y="-6" on="1"/>
      </contour>
      <contour>
        <pt x="219" y="927" on="1"/>
        <pt x="219" y="953" on="0"/>
        <pt x="251" y="996" on="0"/>
        <pt x="298" y="996" on="0"/>
        <pt x="322" y="987" on="0"/>
        <pt x="339" y="967" on="0"/>
        <pt x="348" y="952" on="0"/>
        <pt x="362" y="919" on="0"/>
        <pt x="367" y="910" on="0"/>
        <pt x="408" y="849" on="0"/>
        <pt x="408" y="815" on="0"/>
        <pt x="382" y="790" on="0"/>
        <pt x="359" y="790" on="1"/>
        <pt x="323" y="790" on="0"/>
        <pt x="219" y="878" on="0"/>
      </contour>
    </TTGlyph>
    <TTGlyph name="Eth" xMin="10" yMin="-15" xMax="715" yMax="763">
      <contour>
        <pt x="116" y="435" on="1"/>
        <pt x="112" y="603" on="1"/>
        <pt x="71" y="615" on="0"/>
        <pt x="71" y="660" on="1"/>
        <pt x="71" y="690" on="0"/>
        <pt x="158" y="740" on="0"/>
        <pt x="270" y="763" on="0"/>
        <pt x="320" y="763" on="1"/>
        <pt x="418" y="763" on="0"/>
        <pt x="573" y="697" on="0"/>
        <pt x="620" y="642" on="1"/>
        <pt x="715" y="529" on="0"/>
        <pt x="715" y="372" on="1"/>
        <pt x="715" y="221" on="0"/>
        <pt x="623" y="108" on="1"/>
        <pt x="578" y="52" on="0"/>
        <pt x="427" y="-15" on="0"/>
        <pt x="219" y="-15" on="0"/>
        <pt x="67" y="45" on="0"/>
        <pt x="67" y="135" on="0"/>
        <pt x="114" y="146" on="1"/>
        <pt x="116" y="314" on="1"/>
        <pt x="83" y="314" on="1"/>
        <pt x="52" y="314" on="0"/>
        <pt x="10" y="349" on="0"/>
        <pt x="10" y="401" on="0"/>
        <pt x="52" y="436" on="0"/>
        <pt x="106" y="436" on="0"/>
      </contour>
      <contour>
        <pt x="253" y="435" on="1"/>
        <pt x="296" y="437" on="1"/>
        <pt x="327" y="437" on="0"/>
        <pt x="368" y="401" on="0"/>
        <pt x="368" y="349" on="0"/>
        <pt x="327" y="313" on="0"/>
        <pt x="268" y="313" on="0"/>
        <pt x="253" y="314" on="1"/>
        <pt x="253" y="175" on="0"/>
        <pt x="257" y="118" on="1"/>
        <pt x="289" y="111" on="0"/>
        <pt x="329" y="111" on="1"/>
        <pt x="410" y="111" on="0"/>
        <pt x="467" y="150" on="1"/>
        <pt x="574" y="225" on="0"/>
        <pt x="574" y="376" on="1"/>
        <pt x="574" y="484" on="0"/>
        <pt x="443" y="638" on="0"/>
        <pt x="320" y="638" on="1"/>
        <pt x="286" y="638" on="0"/>
        <pt x="256" y="629" on="1"/>
        <pt x="253" y="581" on="0"/>
      </contour>
    </TTGlyph>
    <TTGlyph name="Euro" xMin="56" yMin="-15" xMax="609" yMax="713">
      <contour>
        <pt x="273" y="488" on="1"/>
        <pt x="431" y="490" on="1"/>
        <pt x="465" y="490" on="0"/>
        <pt x="508" y="457" on="0"/>
        <pt x="508" y="403" on="0"/>
        <pt x="465" y="370" on="0"/>
        <pt x="431" y="370" on="1"/>
        <pt x="287" y="373" on="1"/>
        <pt x="133" y="370" on="1"/>
        <pt x="98" y="370" on="0"/>
        <pt x="56" y="403" on="0"/>
        <pt x="56" y="458" on="0"/>
        <pt x="99" y="490" on="0"/>
        <pt x="139" y="490" on="1"/>
        <pt x="165" y="590" on="0"/>
        <pt x="308" y="713" on="0"/>
        <pt x="411" y="713" on="1"/>
        <pt x="492" y="713" on="0"/>
        <pt x="609" y="637" on="0"/>
        <pt x="609" y="595" on="1"/>
        <pt x="609" y="574" on="0"/>
        <pt x="578" y="538" on="0"/>
        <pt x="518" y="538" on="0"/>
        <pt x="456" y="588" on="0"/>
        <pt x="411" y="588" on="1"/>
        <pt x="310" y="588" on="0"/>
      </contour>
      <contour>
        <pt x="287" y="325" on="1"/>
        <pt x="431" y="328" on="1"/>
        <pt x="465" y="328" on="0"/>
        <pt x="508" y="295" on="0"/>
        <pt x="508" y="241" on="0"/>
        <pt x="465" y="208" on="0"/>
        <pt x="393" y="208" on="0"/>
        <pt x="292" y="210" on="0"/>
        <pt x="273" y="210" on="1"/>
        <pt x="310" y="110" on="0"/>
        <pt x="411" y="110" on="1"/>
        <pt x="456" y="110" on="0"/>
        <pt x="518" y="160" on="0"/>
        <pt x="578" y="160" on="0"/>
        <pt x="609" y="124" on="0"/>
        <pt x="609" y="103" on="1"/>
        <pt x="609" y="61" on="0"/>
        <pt x="492" y="-15" on="0"/>
        <pt x="411" y="-15" on="1"/>
        <pt x="308" y="-15" on="0"/>
        <pt x="165" y="108" on="0"/>
        <pt x="139" y="208" on="1"/>
        <pt x="99" y="208" on="0"/>
        <pt x="56" y="240" on="0"/>
        <pt x="56" y="295" on="0"/>
        <pt x="98" y="328" on="0"/>
        <pt x="133" y="328" on="1"/>
      </contour>
    </TTGlyph>
    <TTGlyph name="F" xMin="52" yMin="-10" xMax="584" yMax="756">
      <contour>
        <pt x="106" y="98" on="1"/>
        <pt x="114" y="333" on="1"/>
        <pt x="52" y="342" on="0"/>
        <pt x="52" y="398" on="1"/>
        <pt x="52" y="425" on="0"/>
        <pt x="86" y="459" on="0"/>
        <pt x="113" y="464" on="1"/>
        <pt x="108" y="647" on="1"/>
        <pt x="97" y="668" on="0"/>
        <pt x="97" y="696" on="1"/>
        <pt x="97" y="756" on="0"/>
        <pt x="192" y="756" on="1"/>
        <pt x="192" y="756" on="0"/>
        <pt x="344" y="750" on="1"/>
        <pt x="501" y="756" on="1"/>
        <pt x="539" y="756" on="0"/>
        <pt x="584" y="719" on="0"/>
        <pt x="584" y="657" on="0"/>
        <pt x="539" y="622" on="0"/>
        <pt x="501" y="622" on="1"/>
        <pt x="344" y="628" on="1"/>
        <pt x="290" y="628" on="0"/>
        <pt x="250" y="625" on="1"/>
        <pt x="250" y="459" on="1"/>
        <pt x="262" y="458" on="0"/>
        <pt x="283" y="458" on="1"/>
        <pt x="444" y="465" on="1"/>
        <pt x="480" y="465" on="0"/>
        <pt x="526" y="428" on="0"/>
        <pt x="526" y="366" on="0"/>
        <pt x="481" y="332" on="0"/>
        <pt x="444" y="332" on="1"/>
        <pt x="286" y="338" on="1"/>
        <pt x="276" y="338" on="1"/>
        <pt x="265" y="337" on="0"/>
        <pt x="250" y="337" on="1"/>
        <pt x="258" y="169" on="0"/>
        <pt x="258" y="98" on="1"/>
        <pt x="258" y="-10" on="0"/>
        <pt x="106" y="-10" on="0"/>
      </contour>
    </TTGlyph>
    <TTGlyph name="G" xMin="64" yMin="-15" xMax="713" yMax="765">
      <contour>
        <pt x="400" y="425" on="1"/>
        <pt x="514" y="419" on="1"/>
        <pt x="631" y="425" on="1"/>
        <pt x="667" y="425" on="0"/>
        <pt x="713" y="379" on="0"/>
        <pt x="713" y="344" on="1"/>
        <pt x="713" y="180" on="0"/>
        <pt x="538" y="-15" on="0"/>
        <pt x="256" y="-15" on="0"/>
        <pt x="64" y="213" on="0"/>
        <pt x="64" y="539" on="0"/>
        <pt x="262" y="765" on="0"/>
        <pt x="413" y="765" on="1"/>
        <pt x="510" y="765" on="0"/>
        <pt x="668" y="681" on="0"/>
        <pt x="668" y="632" on="1"/>
        <pt x="668" y="604" on="0"/>
        <pt x="632" y="571" on="0"/>
        <pt x="576" y="571" on="0"/>
        <pt x="526" y="604" on="0"/>
        <pt x="460" y="638" on="0"/>
        <pt x="413" y="638" on="1"/>
        <pt x="323" y="638" on="0"/>
        <pt x="206" y="484" on="0"/>
        <pt x="206" y="270" on="0"/>
        <pt x="317" y="111" on="0"/>
        <pt x="402" y="111" on="1"/>
        <pt x="466" y="111" on="0"/>
        <pt x="556" y="208" on="0"/>
        <pt x="565" y="296" on="1"/>
        <pt x="554" y="297" on="0"/>
        <pt x="511" y="297" on="1"/>
        <pt x="400" y="292" on="1"/>
        <pt x="363" y="292" on="0"/>
        <pt x="317" y="329" on="0"/>
        <pt x="317" y="390" on="0"/>
        <pt x="363" y="425" on="0"/>
      </contour>
    </TTGlyph>
    <TTGlyph name="H" xMin="49" yMin="-10" xMax="728" yMax="760">
      <contour>
        <pt x="525" y="453" on="1"/>
        <pt x="519" y="651" on="1"/>
        <pt x="519" y="760" on="0"/>
        <pt x="670" y="760" on="0"/>
        <pt x="670" y="651" on="1"/>
        <pt x="670" y="589" on="0"/>
        <pt x="663" y="458" on="1"/>
        <pt x="693" y="452" on="0"/>
        <pt x="728" y="414" on="0"/>
        <pt x="728" y="362" on="0"/>
        <pt x="694" y="324" on="0"/>
        <pt x="663" y="320" on="1"/>
        <pt x="670" y="98" on="1"/>
        <pt x="670" y="-10" on="0"/>
        <pt x="519" y="-10" on="0"/>
        <pt x="519" y="98" on="1"/>
        <pt x="525" y="325" on="1"/>
        <pt x="386" y="328" on="1"/>
        <pt x="251" y="325" on="1"/>
        <pt x="258" y="98" on="1"/>
        <pt x="258" y="-10" on="0"/>
        <pt x="106" y="-10" on="0"/>
        <pt x="106" y="98" on="1"/>
        <pt x="113" y="320" on="1"/>
        <pt x="82" y="324" on="0"/>
        <pt x="49" y="363" on="0"/>
        <pt x="49" y="414" on="0"/>
        <pt x="84" y="452" on="0"/>
        <pt x="113" y="458" on="1"/>
        <pt x="107" y="650" on="1"/>
        <pt x="107" y="759" on="0"/>
        <pt x="259" y="759" on="0"/>
        <pt x="259" y="650" on="1"/>
        <pt x="259" y="586" on="0"/>
        <pt x="252" y="453" on="1"/>
        <pt x="386" y="450" on="1"/>
        <pt x="454" y="450" on="0"/>
      </contour>
    </TTGlyph>
    <TTGlyph name="Hbar" xMin="22" yMin="-10" xMax="766" yMax="760">
      <contour>
        <pt x="112" y="98" on="1"/>
        <pt x="119" y="320" on="1"/>
        <pt x="88" y="324" on="0"/>
        <pt x="55" y="363" on="0"/>
        <pt x="55" y="414" on="0"/>
        <pt x="90" y="452" on="0"/>
        <pt x="119" y="458" on="1"/>
        <pt x="119" y="473" on="0"/>
        <pt x="114" y="565" on="1"/>
        <pt x="95" y="565" on="1"/>
        <pt x="64" y="565" on="0"/>
        <pt x="22" y="600" on="0"/>
        <pt x="22" y="652" on="0"/>
        <pt x="64" y="687" on="0"/>
        <pt x="95" y="687" on="1"/>
        <pt x="117" y="687" on="1"/>
        <pt x="132" y="759" on="0"/>
        <pt x="248" y="759" on="0"/>
        <pt x="261" y="685" on="1"/>
        <pt x="371" y="683" on="0"/>
        <pt x="446" y="683" on="0"/>
        <pt x="528" y="685" on="1"/>
        <pt x="542" y="760" on="0"/>
        <pt x="658" y="760" on="0"/>
        <pt x="671" y="688" on="1"/>
        <pt x="693" y="686" on="1"/>
        <pt x="724" y="686" on="0"/>
        <pt x="766" y="651" on="0"/>
        <pt x="766" y="599" on="0"/>
        <pt x="724" y="564" on="0"/>
        <pt x="693" y="564" on="1"/>
        <pt x="674" y="564" on="1"/>
        <pt x="671" y="496" on="0"/>
        <pt x="669" y="458" on="1"/>
        <pt x="699" y="452" on="0"/>
        <pt x="734" y="414" on="0"/>
        <pt x="734" y="362" on="0"/>
        <pt x="700" y="324" on="0"/>
        <pt x="669" y="320" on="1"/>
        <pt x="676" y="98" on="1"/>
        <pt x="676" y="-10" on="0"/>
        <pt x="525" y="-10" on="0"/>
        <pt x="525" y="98" on="1"/>
        <pt x="531" y="325" on="1"/>
        <pt x="392" y="328" on="1"/>
        <pt x="257" y="325" on="1"/>
        <pt x="264" y="98" on="1"/>
        <pt x="264" y="-10" on="0"/>
        <pt x="112" y="-10" on="0"/>
      </contour>
      <contour>
        <pt x="258" y="453" on="1"/>
        <pt x="392" y="450" on="1"/>
        <pt x="460" y="450" on="0"/>
        <pt x="531" y="453" on="1"/>
        <pt x="531" y="464" on="0"/>
        <pt x="526" y="567" on="1"/>
        <pt x="416" y="569" on="0"/>
        <pt x="392" y="569" on="1"/>
        <pt x="263" y="566" on="1"/>
        <pt x="263" y="548" on="0"/>
        <pt x="261" y="510" on="1"/>
      </contour>
    </TTGlyph>
    <TTGlyph name="I" xMin="42" yMin="-7" xMax="451" yMax="756">
      <contour>
        <pt x="125" y="756" on="1"/>
        <pt x="247" y="750" on="1"/>
        <pt x="369" y="756" on="1"/>
        <pt x="406" y="756" on="0"/>
        <pt x="451" y="720" on="0"/>
        <pt x="451" y="659" on="0"/>
        <pt x="406" y="623" on="0"/>
        <pt x="369" y="623" on="1"/>
        <pt x="322" y="626" on="1"/>
        <pt x="315" y="478" on="0"/>
        <pt x="315" y="271" on="0"/>
        <pt x="322" y="123" on="1"/>
        <pt x="358" y="127" on="0"/>
        <pt x="369" y="127" on="1"/>
        <pt x="406" y="127" on="0"/>
        <pt x="451" y="91" on="0"/>
        <pt x="451" y="30" on="0"/>
        <pt x="406" y="-6" on="0"/>
        <pt x="369" y="-6" on="1"/>
        <pt x="247" y="0" on="1"/>
        <pt x="125" y="-7" on="1"/>
        <pt x="87" y="-7" on="0"/>
        <pt x="42" y="29" on="0"/>
        <pt x="42" y="91" on="0"/>
        <pt x="87" y="126" on="0"/>
        <pt x="125" y="126" on="1"/>
        <pt x="172" y="122" on="1"/>
        <pt x="179" y="270" on="0"/>
        <pt x="179" y="478" on="0"/>
        <pt x="172" y="626" on="1"/>
        <pt x="142" y="623" on="0"/>
        <pt x="87" y="623" on="0"/>
        <pt x="42" y="658" on="0"/>
        <pt x="42" y="720" on="0"/>
        <pt x="87" y="756" on="0"/>
      </contour>
    </TTGlyph>
    <TTGlyph name="IJ" xMin="42" yMin="-15" xMax="999" yMax="756">
      <contour>
        <pt x="125" y="756" on="1"/>
        <pt x="247" y="750" on="1"/>
        <pt x="369" y="756" on="1"/>
        <pt x="406" y="756" on="0"/>
        <pt x="451" y="720" on="0"/>
        <pt x="451" y="659" on="0"/>
        <pt x="406" y="623" on="0"/>
        <pt x="369" y="623" on="1"/>
        <pt x="322" y="626" on="1"/>
        <pt x="315" y="478" on="0"/>
        <pt x="315" y="271" on="0"/>
        <pt x="322" y="123" on="1"/>
        <pt x="358" y="127" on="0"/>
        <pt x="369" y="127" on="1"/>
        <pt x="406" y="127" on="0"/>
        <pt x="451" y="91" on="0"/>
        <pt x="451" y="30" on="0"/>
        <pt x="406" y="-6" on="0"/>
        <pt x="369" y="-6" on="1"/>
        <pt x="247" y="0" on="1"/>
        <pt x="125" y="-7" on="1"/>
        <pt x="87" y="-7" on="0"/>
        <pt x="42" y="29" on="0"/>
        <pt x="42" y="91" on="0"/>
        <pt x="87" y="126" on="0"/>
        <pt x="125" y="126" on="1"/>
        <pt x="172" y="122" on="1"/>
        <pt x="179" y="270" on="0"/>
        <pt x="179" y="478" on="0"/>
        <pt x="172" y="626" on="1"/>
        <pt x="142" y="623" on="0"/>
        <pt x="87" y="623" on="0"/>
        <pt x="42" y="658" on="0"/>
        <pt x="42" y="720" on="0"/>
        <pt x="87" y="756" on="0"/>
      </contour>
      <contour>
        <pt x="778" y="750" on="1"/>
        <pt x="917" y="756" on="1"/>
        <pt x="954" y="756" on="0"/>
        <pt x="999" y="720" on="0"/>
        <pt x="999" y="689" on="1"/>
        <pt x="999" y="635" on="0"/>
        <pt x="935" y="623" on="1"/>
        <pt x="934" y="548" on="0"/>
        <pt x="934" y="263" on="1"/>
        <pt x="934" y="188" on="0"/>
        <pt x="892" y="76" on="0"/>
        <pt x="856" y="45" on="1"/>
        <pt x="786" y="-15" on="0"/>
        <pt x="605" y="-15" on="0"/>
        <pt x="489" y="62" on="0"/>
        <pt x="489" y="103" on="1"/>
        <pt x="489" y="131" on="0"/>
        <pt x="525" y="165" on="0"/>
        <pt x="576" y="165" on="0"/>
        <pt x="652" y="112" on="0"/>
        <pt x="736" y="112" on="0"/>
        <pt x="798" y="194" on="0"/>
        <pt x="798" y="283" on="1"/>
        <pt x="796" y="627" on="1"/>
        <pt x="658" y="621" on="1"/>
        <pt x="620" y="621" on="0"/>
        <pt x="576" y="657" on="0"/>
        <pt x="576" y="719" on="0"/>
        <pt x="621" y="756" on="0"/>
        <pt x="658" y="756" on="1"/>
      </contour>
    </TTGlyph>
    <TTGlyph name="Iacute" xMin="42" yMin="-7" xMax="451" yMax="996">
      <contour>
        <pt x="125" y="756" on="1"/>
        <pt x="247" y="750" on="1"/>
        <pt x="369" y="756" on="1"/>
        <pt x="406" y="756" on="0"/>
        <pt x="451" y="720" on="0"/>
        <pt x="451" y="659" on="0"/>
        <pt x="406" y="623" on="0"/>
        <pt x="369" y="623" on="1"/>
        <pt x="322" y="626" on="1"/>
        <pt x="315" y="478" on="0"/>
        <pt x="315" y="271" on="0"/>
        <pt x="322" y="123" on="1"/>
        <pt x="358" y="127" on="0"/>
        <pt x="369" y="127" on="1"/>
        <pt x="406" y="127" on="0"/>
        <pt x="451" y="91" on="0"/>
        <pt x="451" y="30" on="0"/>
        <pt x="406" y="-6" on="0"/>
        <pt x="369" y="-6" on="1"/>
        <pt x="247" y="0" on="1"/>
        <pt x="125" y="-7" on="1"/>
        <pt x="87" y="-7" on="0"/>
        <pt x="42" y="29" on="0"/>
        <pt x="42" y="91" on="0"/>
        <pt x="87" y="126" on="0"/>
        <pt x="125" y="126" on="1"/>
        <pt x="172" y="122" on="1"/>
        <pt x="179" y="270" on="0"/>
        <pt x="179" y="478" on="0"/>
        <pt x="172" y="626" on="1"/>
        <pt x="142" y="623" on="0"/>
        <pt x="87" y="623" on="0"/>
        <pt x="42" y="658" on="0"/>
        <pt x="42" y="720" on="0"/>
        <pt x="87" y="756" on="0"/>
      </contour>
      <contour>
        <pt x="369" y="927" on="1"/>
        <pt x="369" y="878" on="0"/>
        <pt x="265" y="790" on="0"/>
        <pt x="229" y="790" on="1"/>
        <pt x="206" y="790" on="0"/>
        <pt x="180" y="815" on="0"/>
        <pt x="180" y="849" on="0"/>
        <pt x="221" y="910" on="0"/>
        <pt x="226" y="919" on="0"/>
        <pt x="240" y="952" on="0"/>
        <pt x="249" y="967" on="0"/>
        <pt x="258" y="977" on="1"/>
        <pt x="274" y="996" on="0"/>
        <pt x="337" y="996" on="0"/>
        <pt x="369" y="953" on="0"/>
      </contour>
    </TTGlyph>
    <TTGlyph name="Icircumflex" xMin="42" yMin="-7" xMax="451" yMax="1022">
      <contour>
        <pt x="125" y="756" on="1"/>
        <pt x="247" y="750" on="1"/>
        <pt x="369" y="756" on="1"/>
        <pt x="406" y="756" on="0"/>
        <pt x="451" y="720" on="0"/>
        <pt x="451" y="659" on="0"/>
        <pt x="406" y="623" on="0"/>
        <pt x="369" y="623" on="1"/>
        <pt x="322" y="626" on="1"/>
        <pt x="315" y="478" on="0"/>
        <pt x="315" y="271" on="0"/>
        <pt x="322" y="123" on="1"/>
        <pt x="358" y="127" on="0"/>
        <pt x="369" y="127" on="1"/>
        <pt x="406" y="127" on="0"/>
        <pt x="451" y="91" on="0"/>
        <pt x="451" y="30" on="0"/>
        <pt x="406" y="-6" on="0"/>
        <pt x="369" y="-6" on="1"/>
        <pt x="247" y="0" on="1"/>
        <pt x="125" y="-7" on="1"/>
        <pt x="87" y="-7" on="0"/>
        <pt x="42" y="29" on="0"/>
        <pt x="42" y="91" on="0"/>
        <pt x="87" y="126" on="0"/>
        <pt x="125" y="126" on="1"/>
        <pt x="172" y="122" on="1"/>
        <pt x="179" y="270" on="0"/>
        <pt x="179" y="478" on="0"/>
        <pt x="172" y="626" on="1"/>
        <pt x="142" y="623" on="0"/>
        <pt x="87" y="623" on="0"/>
        <pt x="42" y="658" on="0"/>
        <pt x="42" y="720" on="0"/>
        <pt x="87" y="756" on="0"/>
      </contour>
      <contour>
        <pt x="196" y="1007" on="0"/>
        <pt x="227" y="1022" on="0"/>
        <pt x="270" y="1022" on="0"/>
        <pt x="300" y="1004" on="0"/>
        <pt x="347" y="950" on="0"/>
        <pt x="368" y="929" on="0"/>
        <pt x="403" y="897" on="0"/>
        <pt x="409" y="891" on="1"/>
        <pt x="426" y="874" on="0"/>
        <pt x="426" y="830" on="0"/>
        <pt x="391" y="795" on="0"/>
        <pt x="342" y="795" on="0"/>
        <pt x="290" y="843" on="0"/>
        <pt x="253" y="891" on="0"/>
        <pt x="237" y="891" on="0"/>
        <pt x="218" y="868" on="1"/>
        <pt x="162" y="796" on="0"/>
        <pt x="122" y="796" on="1"/>
        <pt x="99" y="796" on="0"/>
        <pt x="64" y="831" on="0"/>
        <pt x="64" y="865" on="0"/>
        <pt x="75" y="886" on="0"/>
        <pt x="87" y="898" on="0"/>
        <pt x="122" y="930" on="0"/>
        <pt x="144" y="952" on="0"/>
        <pt x="178" y="989" on="0"/>
      </contour>
    </TTGlyph>
    <TTGlyph name="Idieresis" xMin="42" yMin="-7" xMax="451" yMax="966">
      <contour>
        <pt x="125" y="756" on="1"/>
        <pt x="247" y="750" on="1"/>
        <pt x="369" y="756" on="1"/>
        <pt x="406" y="756" on="0"/>
        <pt x="451" y="720" on="0"/>
        <pt x="451" y="659" on="0"/>
        <pt x="406" y="623" on="0"/>
        <pt x="369" y="623" on="1"/>
        <pt x="322" y="626" on="1"/>
        <pt x="315" y="478" on="0"/>
        <pt x="315" y="271" on="0"/>
        <pt x="322" y="123" on="1"/>
        <pt x="358" y="127" on="0"/>
        <pt x="369" y="127" on="1"/>
        <pt x="406" y="127" on="0"/>
        <pt x="451" y="91" on="0"/>
        <pt x="451" y="30" on="0"/>
        <pt x="406" y="-6" on="0"/>
        <pt x="369" y="-6" on="1"/>
        <pt x="247" y="0" on="1"/>
        <pt x="125" y="-7" on="1"/>
        <pt x="87" y="-7" on="0"/>
        <pt x="42" y="29" on="0"/>
        <pt x="42" y="91" on="0"/>
        <pt x="87" y="126" on="0"/>
        <pt x="125" y="126" on="1"/>
        <pt x="172" y="122" on="1"/>
        <pt x="179" y="270" on="0"/>
        <pt x="179" y="478" on="0"/>
        <pt x="172" y="626" on="1"/>
        <pt x="142" y="623" on="0"/>
        <pt x="87" y="623" on="0"/>
        <pt x="42" y="658" on="0"/>
        <pt x="42" y="720" on="0"/>
        <pt x="87" y="756" on="0"/>
      </contour>
      <contour>
        <pt x="401" y="966" on="0"/>
        <pt x="441" y="921" on="0"/>
        <pt x="441" y="855" on="0"/>
        <pt x="395" y="802" on="0"/>
        <pt x="326" y="802" on="0"/>
        <pt x="287" y="848" on="0"/>
        <pt x="287" y="914" on="0"/>
        <pt x="332" y="966" on="0"/>
      </contour>
      <contour>
        <pt x="163" y="966" on="0"/>
        <pt x="203" y="921" on="0"/>
        <pt x="203" y="855" on="0"/>
        <pt x="157" y="802" on="0"/>
        <pt x="88" y="802" on="0"/>
        <pt x="49" y="848" on="0"/>
        <pt x="49" y="914" on="0"/>
        <pt x="94" y="966" on="0"/>
      </contour>
    </TTGlyph>
    <TTGlyph name="Idot" xMin="42" yMin="-7" xMax="451" yMax="967">
      <contour>
        <pt x="125" y="756" on="1"/>
        <pt x="247" y="750" on="1"/>
        <pt x="369" y="756" on="1"/>
        <pt x="406" y="756" on="0"/>
        <pt x="451" y="720" on="0"/>
        <pt x="451" y="659" on="0"/>
        <pt x="406" y="623" on="0"/>
        <pt x="369" y="623" on="1"/>
        <pt x="322" y="626" on="1"/>
        <pt x="315" y="478" on="0"/>
        <pt x="315" y="271" on="0"/>
        <pt x="322" y="123" on="1"/>
        <pt x="358" y="127" on="0"/>
        <pt x="369" y="127" on="1"/>
        <pt x="406" y="127" on="0"/>
        <pt x="451" y="91" on="0"/>
        <pt x="451" y="30" on="0"/>
        <pt x="406" y="-6" on="0"/>
        <pt x="369" y="-6" on="1"/>
        <pt x="247" y="0" on="1"/>
        <pt x="125" y="-7" on="1"/>
        <pt x="87" y="-7" on="0"/>
        <pt x="42" y="29" on="0"/>
        <pt x="42" y="91" on="0"/>
        <pt x="87" y="126" on="0"/>
        <pt x="125" y="126" on="1"/>
        <pt x="172" y="122" on="1"/>
        <pt x="179" y="270" on="0"/>
        <pt x="179" y="478" on="0"/>
        <pt x="172" y="626" on="1"/>
        <pt x="142" y="623" on="0"/>
        <pt x="87" y="623" on="0"/>
        <pt x="42" y="658" on="0"/>
        <pt x="42" y="720" on="0"/>
        <pt x="87" y="756" on="0"/>
      </contour>
      <contour>
        <pt x="291" y="967" on="0"/>
        <pt x="331" y="922" on="0"/>
        <pt x="331" y="856" on="0"/>
        <pt x="285" y="803" on="0"/>
        <pt x="216" y="803" on="0"/>
        <pt x="177" y="849" on="0"/>
        <pt x="177" y="915" on="0"/>
        <pt x="222" y="967" on="0"/>
      </contour>
    </TTGlyph>
    <TTGlyph name="Igrave" xMin="42" yMin="-7" xMax="451" yMax="998">
      <contour>
        <pt x="125" y="756" on="1"/>
        <pt x="247" y="750" on="1"/>
        <pt x="369" y="756" on="1"/>
        <pt x="406" y="756" on="0"/>
        <pt x="451" y="720" on="0"/>
        <pt x="451" y="659" on="0"/>
        <pt x="406" y="623" on="0"/>
        <pt x="369" y="623" on="1"/>
        <pt x="322" y="626" on="1"/>
        <pt x="315" y="478" on="0"/>
        <pt x="315" y="271" on="0"/>
        <pt x="322" y="123" on="1"/>
        <pt x="358" y="127" on="0"/>
        <pt x="369" y="127" on="1"/>
        <pt x="406" y="127" on="0"/>
        <pt x="451" y="91" on="0"/>
        <pt x="451" y="30" on="0"/>
        <pt x="406" y="-6" on="0"/>
        <pt x="369" y="-6" on="1"/>
        <pt x="247" y="0" on="1"/>
        <pt x="125" y="-7" on="1"/>
        <pt x="87" y="-7" on="0"/>
        <pt x="42" y="29" on="0"/>
        <pt x="42" y="91" on="0"/>
        <pt x="87" y="126" on="0"/>
        <pt x="125" y="126" on="1"/>
        <pt x="172" y="122" on="1"/>
        <pt x="179" y="270" on="0"/>
        <pt x="179" y="478" on="0"/>
        <pt x="172" y="626" on="1"/>
        <pt x="142" y="623" on="0"/>
        <pt x="87" y="623" on="0"/>
        <pt x="42" y="658" on="0"/>
        <pt x="42" y="720" on="0"/>
        <pt x="87" y="756" on="0"/>
      </contour>
      <contour>
        <pt x="130" y="929" on="1"/>
        <pt x="130" y="955" on="0"/>
        <pt x="162" y="998" on="0"/>
        <pt x="209" y="998" on="0"/>
        <pt x="233" y="989" on="0"/>
        <pt x="250" y="969" on="0"/>
        <pt x="259" y="954" on="0"/>
        <pt x="273" y="921" on="0"/>
        <pt x="278" y="912" on="0"/>
        <pt x="319" y="851" on="0"/>
        <pt x="319" y="817" on="0"/>
        <pt x="293" y="792" on="0"/>
        <pt x="270" y="792" on="1"/>
        <pt x="234" y="792" on="0"/>
        <pt x="130" y="880" on="0"/>
      </contour>
    </TTGlyph>
    <TTGlyph name="Itilde" xMin="24" yMin="-7" xMax="466" yMax="977">
      <contour>
        <pt x="125" y="756" on="1"/>
        <pt x="247" y="750" on="1"/>
        <pt x="369" y="756" on="1"/>
        <pt x="406" y="756" on="0"/>
        <pt x="451" y="720" on="0"/>
        <pt x="451" y="659" on="0"/>
        <pt x="406" y="623" on="0"/>
        <pt x="369" y="623" on="1"/>
        <pt x="322" y="626" on="1"/>
        <pt x="315" y="478" on="0"/>
        <pt x="315" y="271" on="0"/>
        <pt x="322" y="123" on="1"/>
        <pt x="358" y="127" on="0"/>
        <pt x="369" y="127" on="1"/>
        <pt x="406" y="127" on="0"/>
        <pt x="451" y="91" on="0"/>
        <pt x="451" y="30" on="0"/>
        <pt x="406" y="-6" on="0"/>
        <pt x="369" y="-6" on="1"/>
        <pt x="247" y="0" on="1"/>
        <pt x="125" y="-7" on="1"/>
        <pt x="87" y="-7" on="0"/>
        <pt x="42" y="29" on="0"/>
        <pt x="42" y="91" on="0"/>
        <pt x="87" y="126" on="0"/>
        <pt x="125" y="126" on="1"/>
        <pt x="172" y="122" on="1"/>
        <pt x="179" y="270" on="0"/>
        <pt x="179" y="478" on="0"/>
        <pt x="172" y="626" on="1"/>
        <pt x="142" y="623" on="0"/>
        <pt x="87" y="623" on="0"/>
        <pt x="42" y="658" on="0"/>
        <pt x="42" y="720" on="0"/>
        <pt x="87" y="756" on="0"/>
      </contour>
      <contour>
        <pt x="466" y="921" on="1"/>
        <pt x="466" y="887" on="0"/>
        <pt x="383" y="814" on="0"/>
        <pt x="307" y="814" on="0"/>
        <pt x="206" y="863" on="0"/>
        <pt x="175" y="863" on="0"/>
        <pt x="114" y="808" on="0"/>
        <pt x="60" y="808" on="0"/>
        <pt x="24" y="845" on="0"/>
        <pt x="24" y="872" on="1"/>
        <pt x="24" y="911" on="0"/>
        <pt x="110" y="977" on="0"/>
        <pt x="173" y="977" on="1"/>
        <pt x="205" y="977" on="0"/>
        <pt x="313" y="929" on="0"/>
        <pt x="357" y="929" on="0"/>
        <pt x="405" y="973" on="0"/>
        <pt x="442" y="973" on="0"/>
        <pt x="466" y="943" on="0"/>
      </contour>
    </TTGlyph>
    <TTGlyph name="J" xMin="43" yMin="-15" xMax="553" yMax="756">
      <contour>
        <pt x="332" y="750" on="1"/>
        <pt x="471" y="756" on="1"/>
        <pt x="508" y="756" on="0"/>
        <pt x="553" y="720" on="0"/>
        <pt x="553" y="689" on="1"/>
        <pt x="553" y="635" on="0"/>
        <pt x="489" y="623" on="1"/>
        <pt x="488" y="548" on="0"/>
        <pt x="488" y="263" on="1"/>
        <pt x="488" y="188" on="0"/>
        <pt x="446" y="76" on="0"/>
        <pt x="410" y="45" on="1"/>
        <pt x="340" y="-15" on="0"/>
        <pt x="159" y="-15" on="0"/>
        <pt x="43" y="62" on="0"/>
        <pt x="43" y="103" on="1"/>
        <pt x="43" y="131" on="0"/>
        <pt x="79" y="165" on="0"/>
        <pt x="130" y="165" on="0"/>
        <pt x="206" y="112" on="0"/>
        <pt x="290" y="112" on="0"/>
        <pt x="352" y="194" on="0"/>
        <pt x="352" y="283" on="1"/>
        <pt x="350" y="627" on="1"/>
        <pt x="212" y="621" on="1"/>
        <pt x="174" y="621" on="0"/>
        <pt x="130" y="657" on="0"/>
        <pt x="130" y="719" on="0"/>
        <pt x="175" y="756" on="0"/>
        <pt x="212" y="756" on="1"/>
      </contour>
    </TTGlyph>
    <TTGlyph name="Jcircumflex" xMin="43" yMin="-15" xMax="553" yMax="1020">
      <contour>
        <pt x="332" y="750" on="1"/>
        <pt x="471" y="756" on="1"/>
        <pt x="508" y="756" on="0"/>
        <pt x="553" y="720" on="0"/>
        <pt x="553" y="689" on="1"/>
        <pt x="553" y="635" on="0"/>
        <pt x="489" y="623" on="1"/>
        <pt x="488" y="548" on="0"/>
        <pt x="488" y="263" on="1"/>
        <pt x="488" y="188" on="0"/>
        <pt x="446" y="76" on="0"/>
        <pt x="410" y="45" on="1"/>
        <pt x="340" y="-15" on="0"/>
        <pt x="159" y="-15" on="0"/>
        <pt x="43" y="62" on="0"/>
        <pt x="43" y="103" on="1"/>
        <pt x="43" y="131" on="0"/>
        <pt x="79" y="165" on="0"/>
        <pt x="130" y="165" on="0"/>
        <pt x="206" y="112" on="0"/>
        <pt x="290" y="112" on="0"/>
        <pt x="352" y="194" on="0"/>
        <pt x="352" y="283" on="1"/>
        <pt x="350" y="627" on="1"/>
        <pt x="212" y="621" on="1"/>
        <pt x="174" y="621" on="0"/>
        <pt x="130" y="657" on="0"/>
        <pt x="130" y="719" on="0"/>
        <pt x="175" y="756" on="0"/>
        <pt x="212" y="756" on="1"/>
      </contour>
      <contour>
        <pt x="294" y="1005" on="0"/>
        <pt x="325" y="1020" on="0"/>
        <pt x="368" y="1020" on="0"/>
        <pt x="398" y="1002" on="0"/>
        <pt x="445" y="948" on="0"/>
        <pt x="466" y="927" on="0"/>
        <pt x="501" y="895" on="0"/>
        <pt x="507" y="889" on="1"/>
        <pt x="524" y="872" on="0"/>
        <pt x="524" y="828" on="0"/>
        <pt x="489" y="793" on="0"/>
        <pt x="440" y="793" on="0"/>
        <pt x="388" y="841" on="0"/>
        <pt x="351" y="889" on="0"/>
        <pt x="335" y="889" on="0"/>
        <pt x="316" y="866" on="1"/>
        <pt x="260" y="794" on="0"/>
        <pt x="220" y="794" on="1"/>
        <pt x="197" y="794" on="0"/>
        <pt x="162" y="829" on="0"/>
        <pt x="162" y="863" on="0"/>
        <pt x="173" y="884" on="0"/>
        <pt x="185" y="896" on="0"/>
        <pt x="220" y="928" on="0"/>
        <pt x="242" y="950" on="0"/>
        <pt x="276" y="987" on="0"/>
      </contour>
    </TTGlyph>
    <TTGlyph name="K" xMin="102" yMin="-10" xMax="682" yMax="760">
      <contour>
        <pt x="254" y="650" on="1"/>
        <pt x="254" y="635" on="0"/>
        <pt x="247" y="467" on="1"/>
        <pt x="281" y="469" on="0"/>
        <pt x="303" y="469" on="0"/>
        <pt x="343" y="464" on="1"/>
        <pt x="382" y="497" on="0"/>
        <pt x="450" y="617" on="0"/>
        <pt x="471" y="682" on="1"/>
        <pt x="495" y="760" on="0"/>
        <pt x="546" y="760" on="1"/>
        <pt x="573" y="760" on="0"/>
        <pt x="612" y="723" on="0"/>
        <pt x="612" y="695" on="1"/>
        <pt x="612" y="636" on="0"/>
        <pt x="514" y="449" on="0"/>
        <pt x="453" y="383" on="1"/>
        <pt x="501" y="282" on="0"/>
        <pt x="619" y="122" on="0"/>
        <pt x="643" y="110" on="1"/>
        <pt x="649" y="107" on="0"/>
        <pt x="672" y="104" on="0"/>
        <pt x="682" y="95" on="0"/>
        <pt x="682" y="81" on="1"/>
        <pt x="682" y="48" on="0"/>
        <pt x="633" y="-10" on="0"/>
        <pt x="559" y="-10" on="0"/>
        <pt x="498" y="39" on="0"/>
        <pt x="413" y="167" on="0"/>
        <pt x="326" y="319" on="1"/>
        <pt x="290" y="313" on="0"/>
        <pt x="255" y="313" on="0"/>
        <pt x="247" y="315" on="1"/>
        <pt x="254" y="99" on="1"/>
        <pt x="254" y="-10" on="0"/>
        <pt x="102" y="-10" on="0"/>
        <pt x="102" y="99" on="1"/>
        <pt x="110" y="380" on="1"/>
        <pt x="102" y="650" on="1"/>
        <pt x="102" y="759" on="0"/>
        <pt x="254" y="759" on="0"/>
      </contour>
    </TTGlyph>
    <TTGlyph name="Kcommaaccent" xMin="102" yMin="-252" xMax="682" yMax="760">
      <contour>
        <pt x="366" y="-115" on="1"/>
        <pt x="366" y="-164" on="0"/>
        <pt x="259" y="-252" on="0"/>
        <pt x="223" y="-252" on="1"/>
        <pt x="200" y="-252" on="0"/>
        <pt x="174" y="-227" on="0"/>
        <pt x="174" y="-193" on="0"/>
        <pt x="215" y="-132" on="0"/>
        <pt x="220" y="-123" on="0"/>
        <pt x="234" y="-90" on="0"/>
        <pt x="243" y="-75" on="0"/>
        <pt x="252" y="-65" on="1"/>
        <pt x="268" y="-46" on="0"/>
        <pt x="331" y="-46" on="0"/>
        <pt x="366" y="-90" on="0"/>
      </contour>
      <contour>
        <pt x="254" y="650" on="1"/>
        <pt x="254" y="635" on="0"/>
        <pt x="247" y="467" on="1"/>
        <pt x="281" y="469" on="0"/>
        <pt x="303" y="469" on="0"/>
        <pt x="343" y="464" on="1"/>
        <pt x="382" y="497" on="0"/>
        <pt x="450" y="617" on="0"/>
        <pt x="471" y="682" on="1"/>
        <pt x="495" y="760" on="0"/>
        <pt x="546" y="760" on="1"/>
        <pt x="573" y="760" on="0"/>
        <pt x="612" y="723" on="0"/>
        <pt x="612" y="695" on="1"/>
        <pt x="612" y="636" on="0"/>
        <pt x="514" y="449" on="0"/>
        <pt x="453" y="383" on="1"/>
        <pt x="501" y="282" on="0"/>
        <pt x="619" y="122" on="0"/>
        <pt x="643" y="110" on="1"/>
        <pt x="649" y="107" on="0"/>
        <pt x="672" y="104" on="0"/>
        <pt x="682" y="95" on="0"/>
        <pt x="682" y="81" on="1"/>
        <pt x="682" y="48" on="0"/>
        <pt x="633" y="-10" on="0"/>
        <pt x="559" y="-10" on="0"/>
        <pt x="498" y="39" on="0"/>
        <pt x="413" y="167" on="0"/>
        <pt x="326" y="319" on="1"/>
        <pt x="290" y="313" on="0"/>
        <pt x="255" y="313" on="0"/>
        <pt x="247" y="315" on="1"/>
        <pt x="254" y="99" on="1"/>
        <pt x="254" y="-10" on="0"/>
        <pt x="102" y="-10" on="0"/>
        <pt x="102" y="99" on="1"/>
        <pt x="110" y="380" on="1"/>
        <pt x="102" y="650" on="1"/>
        <pt x="102" y="759" on="0"/>
        <pt x="254" y="759" on="0"/>
      </contour>
    </TTGlyph>
    <TTGlyph name="L" xMin="102" yMin="-6" xMax="561" yMax="760">
      <contour>
        <pt x="341" y="122" on="1"/>
        <pt x="478" y="128" on="1"/>
        <pt x="516" y="128" on="0"/>
        <pt x="561" y="93" on="0"/>
        <pt x="561" y="31" on="0"/>
        <pt x="516" y="-6" on="0"/>
        <pt x="478" y="-6" on="1"/>
        <pt x="341" y="0" on="1"/>
        <pt x="190" y="-6" on="1"/>
        <pt x="153" y="-6" on="0"/>
        <pt x="104" y="42" on="0"/>
        <pt x="104" y="82" on="1"/>
        <pt x="110" y="380" on="1"/>
        <pt x="102" y="651" on="1"/>
        <pt x="102" y="760" on="0"/>
        <pt x="254" y="760" on="0"/>
        <pt x="254" y="651" on="1"/>
        <pt x="246" y="380" on="1"/>
        <pt x="246" y="329" on="0"/>
        <pt x="253" y="124" on="1"/>
        <pt x="305" y="122" on="0"/>
      </contour>
    </TTGlyph>
    <TTGlyph name="Ldot" xMin="102" yMin="-6" xMax="561" yMax="760">
      <contour>
        <pt x="341" y="122" on="1"/>
        <pt x="478" y="128" on="1"/>
        <pt x="516" y="128" on="0"/>
        <pt x="561" y="93" on="0"/>
        <pt x="561" y="31" on="0"/>
        <pt x="516" y="-6" on="0"/>
        <pt x="478" y="-6" on="1"/>
        <pt x="341" y="0" on="1"/>
        <pt x="190" y="-6" on="1"/>
        <pt x="153" y="-6" on="0"/>
        <pt x="104" y="42" on="0"/>
        <pt x="104" y="82" on="1"/>
        <pt x="110" y="380" on="1"/>
        <pt x="102" y="651" on="1"/>
        <pt x="102" y="760" on="0"/>
        <pt x="254" y="760" on="0"/>
        <pt x="254" y="651" on="1"/>
        <pt x="246" y="380" on="1"/>
        <pt x="246" y="329" on="0"/>
        <pt x="253" y="124" on="1"/>
        <pt x="305" y="122" on="0"/>
      </contour>
      <contour>
        <pt x="441" y="465" on="0"/>
        <pt x="481" y="420" on="0"/>
        <pt x="481" y="354" on="0"/>
        <pt x="435" y="301" on="0"/>
        <pt x="366" y="301" on="0"/>
        <pt x="327" y="347" on="0"/>
        <pt x="327" y="413" on="0"/>
        <pt x="372" y="465" on="0"/>
      </contour>
    </TTGlyph>
    <TTGlyph name="Lslash" xMin="14" yMin="-6" xMax="578" yMax="760">
      <contour>
        <pt x="358" y="122" on="1"/>
        <pt x="495" y="128" on="1"/>
        <pt x="533" y="128" on="0"/>
        <pt x="578" y="93" on="0"/>
        <pt x="578" y="31" on="0"/>
        <pt x="533" y="-6" on="0"/>
        <pt x="495" y="-6" on="1"/>
        <pt x="358" y="0" on="1"/>
        <pt x="207" y="-6" on="1"/>
        <pt x="170" y="-6" on="0"/>
        <pt x="121" y="42" on="0"/>
        <pt x="121" y="82" on="1"/>
        <pt x="121" y="102" on="0"/>
        <pt x="126" y="300" on="1"/>
        <pt x="99" y="277" on="0"/>
        <pt x="48" y="277" on="0"/>
        <pt x="14" y="309" on="0"/>
        <pt x="14" y="347" on="0"/>
        <pt x="30" y="378" on="0"/>
        <pt x="62" y="408" on="0"/>
        <pt x="74" y="418" on="1"/>
        <pt x="113" y="450" on="0"/>
        <pt x="125" y="456" on="1"/>
        <pt x="119" y="642" on="0"/>
        <pt x="119" y="651" on="1"/>
        <pt x="119" y="760" on="0"/>
        <pt x="271" y="760" on="0"/>
        <pt x="271" y="651" on="1"/>
        <pt x="271" y="604" on="0"/>
        <pt x="270" y="581" on="1"/>
        <pt x="288" y="597" on="0"/>
        <pt x="297" y="604" on="1"/>
        <pt x="322" y="625" on="0"/>
        <pt x="371" y="625" on="0"/>
        <pt x="407" y="591" on="0"/>
        <pt x="407" y="552" on="0"/>
        <pt x="392" y="523" on="0"/>
        <pt x="358" y="492" on="0"/>
        <pt x="329" y="469" on="0"/>
        <pt x="277" y="431" on="0"/>
        <pt x="263" y="420" on="1"/>
        <pt x="263" y="329" on="0"/>
        <pt x="270" y="124" on="1"/>
        <pt x="322" y="122" on="0"/>
      </contour>
    </TTGlyph>
    <TTGlyph name="M" xMin="103" yMin="-10" xMax="809" yMax="762">
      <contour>
        <pt x="801" y="374" on="1"/>
        <pt x="809" y="100" on="1"/>
        <pt x="809" y="-8" on="0"/>
        <pt x="657" y="-8" on="0"/>
        <pt x="657" y="100" on="1"/>
        <pt x="657" y="142" on="0"/>
        <pt x="666" y="358" on="0"/>
        <pt x="666" y="409" on="1"/>
        <pt x="523" y="162" on="1"/>
        <pt x="496" y="112" on="0"/>
        <pt x="415" y="112" on="0"/>
        <pt x="389" y="160" on="1"/>
        <pt x="246" y="407" on="1"/>
        <pt x="255" y="98" on="1"/>
        <pt x="255" y="-10" on="0"/>
        <pt x="103" y="-10" on="0"/>
        <pt x="103" y="98" on="1"/>
        <pt x="111" y="372" on="1"/>
        <pt x="106" y="678" on="1"/>
        <pt x="106" y="717" on="0"/>
        <pt x="149" y="760" on="0"/>
        <pt x="179" y="760" on="1"/>
        <pt x="223" y="760" on="0"/>
        <pt x="249" y="710" on="1"/>
        <pt x="449" y="316" on="0"/>
        <pt x="465" y="316" on="0"/>
        <pt x="614" y="613" on="1"/>
        <pt x="663" y="712" on="1"/>
        <pt x="689" y="762" on="0"/>
        <pt x="733" y="762" on="1"/>
        <pt x="763" y="762" on="0"/>
        <pt x="806" y="719" on="0"/>
        <pt x="806" y="680" on="1"/>
      </contour>
    </TTGlyph>
    <TTGlyph name="N" xMin="105" yMin="-10" xMax="663" yMax="760">
      <contour>
        <pt x="655" y="380" on="1"/>
        <pt x="658" y="80" on="1"/>
        <pt x="658" y="-10" on="0"/>
        <pt x="583" y="-10" on="1"/>
        <pt x="539" y="-10" on="0"/>
        <pt x="514" y="31" on="1"/>
        <pt x="252" y="470" on="1"/>
        <pt x="250" y="446" on="0"/>
        <pt x="250" y="390" on="1"/>
        <pt x="257" y="98" on="1"/>
        <pt x="257" y="-10" on="0"/>
        <pt x="105" y="-10" on="0"/>
        <pt x="105" y="98" on="1"/>
        <pt x="113" y="370" on="1"/>
        <pt x="113" y="407" on="0"/>
        <pt x="105" y="603" on="0"/>
        <pt x="105" y="671" on="1"/>
        <pt x="105" y="760" on="0"/>
        <pt x="179" y="760" on="1"/>
        <pt x="230" y="760" on="0"/>
        <pt x="253" y="720" on="1"/>
        <pt x="520" y="262" on="1"/>
        <pt x="519" y="380" on="1"/>
        <pt x="511" y="652" on="1"/>
        <pt x="511" y="760" on="0"/>
        <pt x="663" y="760" on="0"/>
        <pt x="663" y="652" on="1"/>
      </contour>
    </TTGlyph>
    <TTGlyph name="Nacute" xMin="105" yMin="-10" xMax="663" yMax="997">
      <contour>
        <pt x="655" y="380" on="1"/>
        <pt x="658" y="80" on="1"/>
        <pt x="658" y="-10" on="0"/>
        <pt x="583" y="-10" on="1"/>
        <pt x="539" y="-10" on="0"/>
        <pt x="514" y="31" on="1"/>
        <pt x="252" y="470" on="1"/>
        <pt x="250" y="446" on="0"/>
        <pt x="250" y="390" on="1"/>
        <pt x="257" y="98" on="1"/>
        <pt x="257" y="-10" on="0"/>
        <pt x="105" y="-10" on="0"/>
        <pt x="105" y="98" on="1"/>
        <pt x="113" y="370" on="1"/>
        <pt x="113" y="407" on="0"/>
        <pt x="105" y="603" on="0"/>
        <pt x="105" y="671" on="1"/>
        <pt x="105" y="760" on="0"/>
        <pt x="179" y="760" on="1"/>
        <pt x="230" y="760" on="0"/>
        <pt x="253" y="720" on="1"/>
        <pt x="520" y="262" on="1"/>
        <pt x="519" y="380" on="1"/>
        <pt x="511" y="652" on="1"/>
        <pt x="511" y="760" on="0"/>
        <pt x="663" y="760" on="0"/>
        <pt x="663" y="652" on="1"/>
      </contour>
      <contour>
        <pt x="520" y="928" on="1"/>
        <pt x="520" y="879" on="0"/>
        <pt x="416" y="791" on="0"/>
        <pt x="380" y="791" on="1"/>
        <pt x="357" y="791" on="0"/>
        <pt x="331" y="816" on="0"/>
        <pt x="331" y="850" on="0"/>
        <pt x="372" y="911" on="0"/>
        <pt x="377" y="920" on="0"/>
        <pt x="391" y="953" on="0"/>
        <pt x="400" y="968" on="0"/>
        <pt x="408" y="978" on="1"/>
        <pt x="425" y="997" on="0"/>
        <pt x="488" y="997" on="0"/>
        <pt x="520" y="954" on="0"/>
      </contour>
    </TTGlyph>
    <TTGlyph name="Ntilde" xMin="105" yMin="-10" xMax="663" yMax="985">
      <contour>
        <pt x="655" y="380" on="1"/>
        <pt x="658" y="80" on="1"/>
        <pt x="658" y="-10" on="0"/>
        <pt x="583" y="-10" on="1"/>
        <pt x="539" y="-10" on="0"/>
        <pt x="514" y="31" on="1"/>
        <pt x="252" y="470" on="1"/>
        <pt x="250" y="446" on="0"/>
        <pt x="250" y="390" on="1"/>
        <pt x="257" y="98" on="1"/>
        <pt x="257" y="-10" on="0"/>
        <pt x="105" y="-10" on="0"/>
        <pt x="105" y="98" on="1"/>
        <pt x="113" y="370" on="1"/>
        <pt x="113" y="407" on="0"/>
        <pt x="105" y="603" on="0"/>
        <pt x="105" y="671" on="1"/>
        <pt x="105" y="760" on="0"/>
        <pt x="179" y="760" on="1"/>
        <pt x="230" y="760" on="0"/>
        <pt x="253" y="720" on="1"/>
        <pt x="520" y="262" on="1"/>
        <pt x="519" y="380" on="1"/>
        <pt x="511" y="652" on="1"/>
        <pt x="511" y="760" on="0"/>
        <pt x="663" y="760" on="0"/>
        <pt x="663" y="652" on="1"/>
      </contour>
      <contour>
        <pt x="605" y="929" on="1"/>
        <pt x="605" y="895" on="0"/>
        <pt x="522" y="822" on="0"/>
        <pt x="446" y="822" on="0"/>
        <pt x="345" y="871" on="0"/>
        <pt x="314" y="871" on="0"/>
        <pt x="253" y="816" on="0"/>
        <pt x="199" y="816" on="0"/>
        <pt x="163" y="853" on="0"/>
        <pt x="163" y="880" on="1"/>
        <pt x="163" y="919" on="0"/>
        <pt x="249" y="985" on="0"/>
        <pt x="312" y="985" on="1"/>
        <pt x="344" y="985" on="0"/>
        <pt x="452" y="937" on="0"/>
        <pt x="496" y="937" on="0"/>
        <pt x="544" y="981" on="0"/>
        <pt x="581" y="981" on="0"/>
        <pt x="605" y="951" on="0"/>
      </contour>
    </TTGlyph>
    <TTGlyph name="O" xMin="63" yMin="-15" xMax="760" yMax="765">
      <contour>
        <pt x="500" y="111" on="0"/>
        <pt x="618" y="271" on="0"/>
        <pt x="618" y="482" on="0"/>
        <pt x="501" y="639" on="0"/>
        <pt x="322" y="639" on="0"/>
        <pt x="205" y="482" on="0"/>
        <pt x="205" y="271" on="0"/>
        <pt x="323" y="111" on="0"/>
      </contour>
      <contour>
        <pt x="561" y="765" on="0"/>
        <pt x="760" y="538" on="0"/>
        <pt x="760" y="213" on="0"/>
        <pt x="560" y="-15" on="0"/>
        <pt x="263" y="-15" on="0"/>
        <pt x="63" y="213" on="0"/>
        <pt x="63" y="538" on="0"/>
        <pt x="264" y="765" on="0"/>
      </contour>
    </TTGlyph>
    <TTGlyph name="OE" xMin="62" yMin="-15" xMax="932" yMax="765">
      <contour>
        <pt x="849" y="622" on="1"/>
        <pt x="710" y="628" on="1"/>
        <pt x="690" y="628" on="0"/>
        <pt x="638" y="626" on="1"/>
        <pt x="684" y="559" on="0"/>
        <pt x="701" y="460" on="1"/>
        <pt x="793" y="465" on="0"/>
        <pt x="808" y="465" on="1"/>
        <pt x="844" y="465" on="0"/>
        <pt x="890" y="428" on="0"/>
        <pt x="890" y="367" on="0"/>
        <pt x="844" y="332" on="0"/>
        <pt x="766" y="332" on="0"/>
        <pt x="707" y="335" on="1"/>
        <pt x="701" y="248" on="0"/>
        <pt x="634" y="119" on="1"/>
        <pt x="692" y="119" on="1"/>
        <pt x="849" y="125" on="1"/>
        <pt x="887" y="125" on="0"/>
        <pt x="932" y="90" on="0"/>
        <pt x="932" y="28" on="0"/>
        <pt x="887" y="-9" on="0"/>
        <pt x="849" y="-9" on="1"/>
        <pt x="692" y="-3" on="1"/>
        <pt x="540" y="-9" on="1"/>
        <pt x="519" y="-9" on="0"/>
        <pt x="493" y="2" on="1"/>
        <pt x="450" y="-15" on="0"/>
        <pt x="392" y="-15" on="1"/>
        <pt x="251" y="-15" on="0"/>
        <pt x="62" y="213" on="0"/>
        <pt x="62" y="538" on="0"/>
        <pt x="253" y="765" on="0"/>
        <pt x="394" y="765" on="1"/>
        <pt x="445" y="765" on="0"/>
        <pt x="486" y="749" on="1"/>
        <pt x="505" y="756" on="0"/>
        <pt x="529" y="756" on="1"/>
        <pt x="692" y="750" on="1"/>
        <pt x="849" y="756" on="1"/>
        <pt x="887" y="756" on="0"/>
        <pt x="932" y="719" on="0"/>
        <pt x="932" y="657" on="0"/>
        <pt x="887" y="622" on="0"/>
      </contour>
      <contour>
        <pt x="467" y="112" on="0"/>
        <pt x="567" y="272" on="0"/>
        <pt x="567" y="481" on="0"/>
        <pt x="468" y="632" on="0"/>
        <pt x="312" y="632" on="0"/>
        <pt x="204" y="481" on="0"/>
        <pt x="204" y="272" on="0"/>
        <pt x="313" y="112" on="0"/>
      </contour>
    </TTGlyph>
    <TTGlyph name="Oacute" xMin="63" yMin="-15" xMax="760" yMax="998">
      <contour>
        <pt x="500" y="111" on="0"/>
        <pt x="618" y="271" on="0"/>
        <pt x="618" y="482" on="0"/>
        <pt x="501" y="639" on="0"/>
        <pt x="322" y="639" on="0"/>
        <pt x="205" y="482" on="0"/>
        <pt x="205" y="271" on="0"/>
        <pt x="323" y="111" on="0"/>
      </contour>
      <contour>
        <pt x="561" y="765" on="0"/>
        <pt x="760" y="538" on="0"/>
        <pt x="760" y="213" on="0"/>
        <pt x="560" y="-15" on="0"/>
        <pt x="263" y="-15" on="0"/>
        <pt x="63" y="213" on="0"/>
        <pt x="63" y="538" on="0"/>
        <pt x="264" y="765" on="0"/>
      </contour>
      <contour>
        <pt x="526" y="929" on="1"/>
        <pt x="526" y="880" on="0"/>
        <pt x="422" y="792" on="0"/>
        <pt x="386" y="792" on="1"/>
        <pt x="363" y="792" on="0"/>
        <pt x="337" y="817" on="0"/>
        <pt x="337" y="851" on="0"/>
        <pt x="378" y="912" on="0"/>
        <pt x="383" y="921" on="0"/>
        <pt x="397" y="954" on="0"/>
        <pt x="406" y="969" on="0"/>
        <pt x="414" y="979" on="1"/>
        <pt x="431" y="998" on="0"/>
        <pt x="494" y="998" on="0"/>
        <pt x="526" y="955" on="0"/>
      </contour>
    </TTGlyph>
    <TTGlyph name="Ocircumflex" xMin="63" yMin="-15" xMax="760" yMax="1012">
      <contour>
        <pt x="500" y="111" on="0"/>
        <pt x="618" y="271" on="0"/>
        <pt x="618" y="482" on="0"/>
        <pt x="501" y="639" on="0"/>
        <pt x="322" y="639" on="0"/>
        <pt x="205" y="482" on="0"/>
        <pt x="205" y="271" on="0"/>
        <pt x="323" y="111" on="0"/>
      </contour>
      <contour>
        <pt x="561" y="765" on="0"/>
        <pt x="760" y="538" on="0"/>
        <pt x="760" y="213" on="0"/>
        <pt x="560" y="-15" on="0"/>
        <pt x="263" y="-15" on="0"/>
        <pt x="63" y="213" on="0"/>
        <pt x="63" y="538" on="0"/>
        <pt x="264" y="765" on="0"/>
      </contour>
      <contour>
        <pt x="362" y="997" on="0"/>
        <pt x="393" y="1012" on="0"/>
        <pt x="436" y="1012" on="0"/>
        <pt x="466" y="994" on="0"/>
        <pt x="513" y="940" on="0"/>
        <pt x="534" y="919" on="0"/>
        <pt x="569" y="887" on="0"/>
        <pt x="575" y="881" on="1"/>
        <pt x="592" y="864" on="0"/>
        <pt x="592" y="820" on="0"/>
        <pt x="557" y="785" on="0"/>
        <pt x="508" y="785" on="0"/>
        <pt x="456" y="833" on="0"/>
        <pt x="419" y="881" on="0"/>
        <pt x="403" y="881" on="0"/>
        <pt x="384" y="858" on="1"/>
        <pt x="328" y="786" on="0"/>
        <pt x="288" y="786" on="1"/>
        <pt x="265" y="786" on="0"/>
        <pt x="230" y="821" on="0"/>
        <pt x="230" y="855" on="0"/>
        <pt x="241" y="876" on="0"/>
        <pt x="253" y="888" on="0"/>
        <pt x="288" y="920" on="0"/>
        <pt x="310" y="942" on="0"/>
        <pt x="344" y="979" on="0"/>
      </contour>
    </TTGlyph>
    <TTGlyph name="Odieresis" xMin="63" yMin="-15" xMax="760" yMax="967">
      <contour>
        <pt x="500" y="111" on="0"/>
        <pt x="618" y="271" on="0"/>
        <pt x="618" y="482" on="0"/>
        <pt x="501" y="639" on="0"/>
        <pt x="322" y="639" on="0"/>
        <pt x="205" y="482" on="0"/>
        <pt x="205" y="271" on="0"/>
        <pt x="323" y="111" on="0"/>
      </contour>
      <contour>
        <pt x="561" y="765" on="0"/>
        <pt x="760" y="538" on="0"/>
        <pt x="760" y="213" on="0"/>
        <pt x="560" y="-15" on="0"/>
        <pt x="263" y="-15" on="0"/>
        <pt x="63" y="213" on="0"/>
        <pt x="63" y="538" on="0"/>
        <pt x="264" y="765" on="0"/>
      </contour>
      <contour>
        <pt x="567" y="967" on="0"/>
        <pt x="607" y="922" on="0"/>
        <pt x="607" y="856" on="0"/>
        <pt x="561" y="803" on="0"/>
        <pt x="492" y="803" on="0"/>
        <pt x="453" y="849" on="0"/>
        <pt x="453" y="915" on="0"/>
        <pt x="498" y="967" on="0"/>
      </contour>
      <contour>
        <pt x="329" y="967" on="0"/>
        <pt x="369" y="922" on="0"/>
        <pt x="369" y="856" on="0"/>
        <pt x="323" y="803" on="0"/>
        <pt x="254" y="803" on="0"/>
        <pt x="215" y="849" on="0"/>
        <pt x="215" y="915" on="0"/>
        <pt x="260" y="967" on="0"/>
      </contour>
    </TTGlyph>
    <TTGlyph name="Ograve" xMin="63" yMin="-15" xMax="760" yMax="998">
      <contour>
        <pt x="500" y="111" on="0"/>
        <pt x="618" y="271" on="0"/>
        <pt x="618" y="482" on="0"/>
        <pt x="501" y="639" on="0"/>
        <pt x="322" y="639" on="0"/>
        <pt x="205" y="482" on="0"/>
        <pt x="205" y="271" on="0"/>
        <pt x="323" y="111" on="0"/>
      </contour>
      <contour>
        <pt x="561" y="765" on="0"/>
        <pt x="760" y="538" on="0"/>
        <pt x="760" y="213" on="0"/>
        <pt x="560" y="-15" on="0"/>
        <pt x="263" y="-15" on="0"/>
        <pt x="63" y="213" on="0"/>
        <pt x="63" y="538" on="0"/>
        <pt x="264" y="765" on="0"/>
      </contour>
      <contour>
        <pt x="297" y="929" on="1"/>
        <pt x="297" y="955" on="0"/>
        <pt x="329" y="998" on="0"/>
        <pt x="376" y="998" on="0"/>
        <pt x="400" y="989" on="0"/>
        <pt x="417" y="969" on="0"/>
        <pt x="426" y="954" on="0"/>
        <pt x="440" y="921" on="0"/>
        <pt x="445" y="912" on="0"/>
        <pt x="486" y="851" on="0"/>
        <pt x="486" y="817" on="0"/>
        <pt x="460" y="792" on="0"/>
        <pt x="437" y="792" on="1"/>
        <pt x="401" y="792" on="0"/>
        <pt x="297" y="880" on="0"/>
      </contour>
    </TTGlyph>
    <TTGlyph name="Omega" xMin="33" yMin="-6" xMax="867" yMax="713">
      <contour>
        <pt x="224" y="0" on="1"/>
        <pt x="116" y="-6" on="1"/>
        <pt x="77" y="-6" on="0"/>
        <pt x="33" y="29" on="0"/>
        <pt x="33" y="89" on="0"/>
        <pt x="77" y="124" on="0"/>
        <pt x="116" y="124" on="1"/>
        <pt x="126" y="124" on="0"/>
        <pt x="179" y="121" on="0"/>
        <pt x="197" y="121" on="1"/>
        <pt x="107" y="242" on="0"/>
        <pt x="107" y="515" on="0"/>
        <pt x="313" y="713" on="0"/>
        <pt x="589" y="713" on="0"/>
        <pt x="793" y="515" on="0"/>
        <pt x="793" y="242" on="0"/>
        <pt x="703" y="121" on="1"/>
        <pt x="784" y="124" on="1"/>
        <pt x="823" y="124" on="0"/>
        <pt x="867" y="89" on="0"/>
        <pt x="867" y="29" on="0"/>
        <pt x="823" y="-6" on="0"/>
        <pt x="784" y="-6" on="1"/>
        <pt x="676" y="0" on="1"/>
        <pt x="577" y="-6" on="1"/>
        <pt x="541" y="-6" on="0"/>
        <pt x="495" y="30" on="0"/>
        <pt x="495" y="94" on="0"/>
        <pt x="535" y="116" on="1"/>
        <pt x="585" y="143" on="0"/>
        <pt x="652" y="297" on="0"/>
        <pt x="652" y="465" on="0"/>
        <pt x="538" y="586" on="0"/>
        <pt x="362" y="586" on="0"/>
        <pt x="248" y="465" on="0"/>
        <pt x="248" y="297" on="0"/>
        <pt x="315" y="143" on="0"/>
        <pt x="365" y="116" on="1"/>
        <pt x="405" y="94" on="0"/>
        <pt x="405" y="30" on="0"/>
        <pt x="359" y="-6" on="0"/>
        <pt x="323" y="-6" on="1"/>
      </contour>
    </TTGlyph>
    <TTGlyph name="Oslash" xMin="63" yMin="-84" xMax="760" yMax="839">
      <contour>
        <pt x="412" y="765" on="1"/>
        <pt x="432" y="764" on="1"/>
        <pt x="454" y="839" on="0"/>
        <pt x="506" y="839" on="1"/>
        <pt x="537" y="839" on="0"/>
        <pt x="576" y="798" on="0"/>
        <pt x="576" y="750" on="0"/>
        <pt x="570" y="724" on="1"/>
        <pt x="657" y="676" on="0"/>
        <pt x="760" y="489" on="0"/>
        <pt x="760" y="375" on="1"/>
        <pt x="760" y="213" on="0"/>
        <pt x="560" y="-15" on="0"/>
        <pt x="411" y="-15" on="1"/>
        <pt x="389" y="-14" on="1"/>
        <pt x="367" y="-84" on="0"/>
        <pt x="317" y="-84" on="1"/>
        <pt x="286" y="-84" on="0"/>
        <pt x="247" y="-43" on="0"/>
        <pt x="247" y="-11" on="1"/>
        <pt x="247" y="3" on="0"/>
        <pt x="252" y="26" on="1"/>
        <pt x="165" y="75" on="0"/>
        <pt x="63" y="262" on="0"/>
        <pt x="63" y="375" on="1"/>
        <pt x="63" y="538" on="0"/>
        <pt x="264" y="765" on="0"/>
      </contour>
      <contour>
        <pt x="618" y="375" on="1"/>
        <pt x="618" y="439" on="0"/>
        <pt x="573" y="552" on="0"/>
        <pt x="533" y="589" on="1"/>
        <pt x="478" y="395" on="0"/>
        <pt x="418" y="111" on="1"/>
        <pt x="504" y="114" on="0"/>
        <pt x="618" y="273" on="0"/>
      </contour>
      <contour>
        <pt x="289" y="162" on="1"/>
        <pt x="362" y="429" on="0"/>
        <pt x="404" y="639" on="1"/>
        <pt x="317" y="635" on="0"/>
        <pt x="205" y="479" on="0"/>
        <pt x="205" y="375" on="1"/>
        <pt x="205" y="313" on="0"/>
        <pt x="249" y="200" on="0"/>
      </contour>
    </TTGlyph>
    <TTGlyph name="Otilde" xMin="63" yMin="-15" xMax="760" yMax="977">
      <contour>
        <pt x="500" y="111" on="0"/>
        <pt x="618" y="271" on="0"/>
        <pt x="618" y="482" on="0"/>
        <pt x="501" y="639" on="0"/>
        <pt x="322" y="639" on="0"/>
        <pt x="205" y="482" on="0"/>
        <pt x="205" y="271" on="0"/>
        <pt x="323" y="111" on="0"/>
      </contour>
      <contour>
        <pt x="561" y="765" on="0"/>
        <pt x="760" y="538" on="0"/>
        <pt x="760" y="213" on="0"/>
        <pt x="560" y="-15" on="0"/>
        <pt x="263" y="-15" on="0"/>
        <pt x="63" y="213" on="0"/>
        <pt x="63" y="538" on="0"/>
        <pt x="264" y="765" on="0"/>
      </contour>
      <contour>
        <pt x="632" y="921" on="1"/>
        <pt x="632" y="887" on="0"/>
        <pt x="549" y="814" on="0"/>
        <pt x="473" y="814" on="0"/>
        <pt x="372" y="863" on="0"/>
        <pt x="341" y="863" on="0"/>
        <pt x="280" y="808" on="0"/>
        <pt x="226" y="808" on="0"/>
        <pt x="190" y="845" on="0"/>
        <pt x="190" y="872" on="1"/>
        <pt x="190" y="911" on="0"/>
        <pt x="276" y="977" on="0"/>
        <pt x="339" y="977" on="1"/>
        <pt x="371" y="977" on="0"/>
        <pt x="479" y="929" on="0"/>
        <pt x="523" y="929" on="0"/>
        <pt x="571" y="973" on="0"/>
        <pt x="608" y="973" on="0"/>
        <pt x="632" y="943" on="0"/>
      </contour>
    </TTGlyph>
    <TTGlyph name="P" xMin="62" yMin="-10" xMax="640" yMax="765">
      <contour>
        <pt x="97" y="98" on="1"/>
        <pt x="105" y="370" on="1"/>
        <pt x="105" y="416" on="0"/>
        <pt x="98" y="591" on="1"/>
        <pt x="62" y="611" on="0"/>
        <pt x="62" y="655" on="1"/>
        <pt x="62" y="686" on="0"/>
        <pt x="122" y="732" on="0"/>
        <pt x="167" y="744" on="1"/>
        <pt x="251" y="765" on="0"/>
        <pt x="323" y="765" on="1"/>
        <pt x="478" y="765" on="0"/>
        <pt x="640" y="618" on="0"/>
        <pt x="640" y="406" on="0"/>
        <pt x="479" y="258" on="0"/>
        <pt x="352" y="258" on="1"/>
        <pt x="276" y="258" on="0"/>
        <pt x="243" y="262" on="1"/>
        <pt x="249" y="98" on="1"/>
        <pt x="249" y="-10" on="0"/>
        <pt x="97" y="-10" on="0"/>
      </contour>
      <contour>
        <pt x="241" y="394" on="1"/>
        <pt x="300" y="383" on="0"/>
        <pt x="413" y="383" on="0"/>
        <pt x="498" y="454" on="0"/>
        <pt x="498" y="567" on="0"/>
        <pt x="408" y="638" on="0"/>
        <pt x="328" y="638" on="1"/>
        <pt x="284" y="638" on="0"/>
        <pt x="246" y="626" on="1"/>
        <pt x="241" y="503" on="0"/>
      </contour>
    </TTGlyph>
    <TTGlyph name="Q" xMin="62" yMin="-94" xMax="763" yMax="765">
      <contour>
        <pt x="763" y="374" on="1"/>
        <pt x="763" y="277" on="0"/>
        <pt x="682" y="111" on="0"/>
        <pt x="613" y="57" on="1"/>
        <pt x="656" y="-4" on="0"/>
        <pt x="656" y="-60" on="0"/>
        <pt x="622" y="-94" on="0"/>
        <pt x="572" y="-94" on="0"/>
        <pt x="531" y="-53" on="0"/>
        <pt x="507" y="-3" on="1"/>
        <pt x="467" y="-15" on="0"/>
        <pt x="411" y="-15" on="1"/>
        <pt x="262" y="-15" on="0"/>
        <pt x="62" y="212" on="0"/>
        <pt x="62" y="537" on="0"/>
        <pt x="263" y="765" on="0"/>
        <pt x="563" y="765" on="0"/>
        <pt x="763" y="538" on="0"/>
      </contour>
      <contour>
        <pt x="621" y="374" on="1"/>
        <pt x="621" y="481" on="0"/>
        <pt x="502" y="639" on="0"/>
        <pt x="322" y="639" on="0"/>
        <pt x="204" y="481" on="0"/>
        <pt x="204" y="271" on="0"/>
        <pt x="323" y="111" on="0"/>
        <pt x="412" y="111" on="1"/>
        <pt x="423" y="111" on="0"/>
        <pt x="441" y="113" on="1"/>
        <pt x="408" y="162" on="0"/>
        <pt x="396" y="193" on="0"/>
        <pt x="396" y="231" on="0"/>
        <pt x="431" y="265" on="0"/>
        <pt x="479" y="265" on="0"/>
        <pt x="518" y="228" on="0"/>
        <pt x="541" y="173" on="1"/>
        <pt x="579" y="210" on="0"/>
        <pt x="621" y="316" on="0"/>
      </contour>
    </TTGlyph>
    <TTGlyph name="R" xMin="62" yMin="-11" xMax="677" yMax="765">
      <contour>
        <pt x="102" y="98" on="1"/>
        <pt x="110" y="370" on="1"/>
        <pt x="110" y="446" on="0"/>
        <pt x="104" y="596" on="1"/>
        <pt x="62" y="613" on="0"/>
        <pt x="62" y="654" on="1"/>
        <pt x="62" y="682" on="0"/>
        <pt x="123" y="727" on="0"/>
        <pt x="168" y="740" on="1"/>
        <pt x="258" y="765" on="0"/>
        <pt x="324" y="765" on="1"/>
        <pt x="473" y="765" on="0"/>
        <pt x="627" y="628" on="0"/>
        <pt x="627" y="529" on="1"/>
        <pt x="627" y="471" on="0"/>
        <pt x="555" y="358" on="0"/>
        <pt x="495" y="323" on="1"/>
        <pt x="595" y="124" on="0"/>
        <pt x="641" y="109" on="1"/>
        <pt x="647" y="107" on="0"/>
        <pt x="663" y="102" on="0"/>
        <pt x="667" y="100" on="0"/>
        <pt x="675" y="97" on="0"/>
        <pt x="676" y="94" on="1"/>
        <pt x="677" y="87" on="0"/>
        <pt x="677" y="78" on="1"/>
        <pt x="677" y="40" on="0"/>
        <pt x="622" y="-11" on="0"/>
        <pt x="588" y="-11" on="1"/>
        <pt x="534" y="-11" on="0"/>
        <pt x="432" y="128" on="0"/>
        <pt x="363" y="280" on="1"/>
        <pt x="337" y="278" on="0"/>
        <pt x="274" y="278" on="0"/>
        <pt x="246" y="284" on="1"/>
        <pt x="254" y="148" on="0"/>
        <pt x="254" y="98" on="1"/>
        <pt x="254" y="-10" on="0"/>
        <pt x="102" y="-10" on="0"/>
      </contour>
      <contour>
        <pt x="246" y="419" on="1"/>
        <pt x="279" y="429" on="0"/>
        <pt x="364" y="429" on="0"/>
        <pt x="408" y="416" on="1"/>
        <pt x="435" y="427" on="0"/>
        <pt x="485" y="489" on="0"/>
        <pt x="485" y="523" on="1"/>
        <pt x="485" y="576" on="0"/>
        <pt x="405" y="638" on="0"/>
        <pt x="329" y="638" on="1"/>
        <pt x="295" y="638" on="0"/>
        <pt x="251" y="626" on="1"/>
        <pt x="246" y="441" on="0"/>
      </contour>
    </TTGlyph>
    <TTGlyph name="Racute" xMin="62" yMin="-11" xMax="677" yMax="1008">
      <contour>
        <pt x="102" y="98" on="1"/>
        <pt x="110" y="370" on="1"/>
        <pt x="110" y="446" on="0"/>
        <pt x="104" y="596" on="1"/>
        <pt x="62" y="613" on="0"/>
        <pt x="62" y="654" on="1"/>
        <pt x="62" y="682" on="0"/>
        <pt x="123" y="727" on="0"/>
        <pt x="168" y="740" on="1"/>
        <pt x="258" y="765" on="0"/>
        <pt x="324" y="765" on="1"/>
        <pt x="473" y="765" on="0"/>
        <pt x="627" y="628" on="0"/>
        <pt x="627" y="529" on="1"/>
        <pt x="627" y="471" on="0"/>
        <pt x="555" y="358" on="0"/>
        <pt x="495" y="323" on="1"/>
        <pt x="595" y="124" on="0"/>
        <pt x="641" y="109" on="1"/>
        <pt x="647" y="107" on="0"/>
        <pt x="663" y="102" on="0"/>
        <pt x="667" y="100" on="0"/>
        <pt x="675" y="97" on="0"/>
        <pt x="676" y="94" on="1"/>
        <pt x="677" y="87" on="0"/>
        <pt x="677" y="78" on="1"/>
        <pt x="677" y="40" on="0"/>
        <pt x="622" y="-11" on="0"/>
        <pt x="588" y="-11" on="1"/>
        <pt x="534" y="-11" on="0"/>
        <pt x="432" y="128" on="0"/>
        <pt x="363" y="280" on="1"/>
        <pt x="337" y="278" on="0"/>
        <pt x="274" y="278" on="0"/>
        <pt x="246" y="284" on="1"/>
        <pt x="254" y="148" on="0"/>
        <pt x="254" y="98" on="1"/>
        <pt x="254" y="-10" on="0"/>
        <pt x="102" y="-10" on="0"/>
      </contour>
      <contour>
        <pt x="246" y="419" on="1"/>
        <pt x="279" y="429" on="0"/>
        <pt x="364" y="429" on="0"/>
        <pt x="408" y="416" on="1"/>
        <pt x="435" y="427" on="0"/>
        <pt x="485" y="489" on="0"/>
        <pt x="485" y="523" on="1"/>
        <pt x="485" y="576" on="0"/>
        <pt x="405" y="638" on="0"/>
        <pt x="329" y="638" on="1"/>
        <pt x="295" y="638" on="0"/>
        <pt x="251" y="626" on="1"/>
        <pt x="246" y="441" on="0"/>
      </contour>
      <contour>
        <pt x="473" y="939" on="1"/>
        <pt x="473" y="890" on="0"/>
        <pt x="369" y="802" on="0"/>
        <pt x="333" y="802" on="1"/>
        <pt x="310" y="802" on="0"/>
        <pt x="284" y="827" on="0"/>
        <pt x="284" y="861" on="0"/>
        <pt x="325" y="922" on="0"/>
        <pt x="330" y="931" on="0"/>
        <pt x="344" y="964" on="0"/>
        <pt x="353" y="979" on="0"/>
        <pt x="362" y="989" on="1"/>
        <pt x="378" y="1008" on="0"/>
        <pt x="441" y="1008" on="0"/>
        <pt x="473" y="965" on="0"/>
      </contour>
    </TTGlyph>
    <TTGlyph name="Rcaron" xMin="62" yMin="-11" xMax="677" yMax="1030">
      <contour>
        <pt x="102" y="98" on="1"/>
        <pt x="110" y="370" on="1"/>
        <pt x="110" y="446" on="0"/>
        <pt x="104" y="596" on="1"/>
        <pt x="62" y="613" on="0"/>
        <pt x="62" y="654" on="1"/>
        <pt x="62" y="682" on="0"/>
        <pt x="123" y="727" on="0"/>
        <pt x="168" y="740" on="1"/>
        <pt x="258" y="765" on="0"/>
        <pt x="324" y="765" on="1"/>
        <pt x="473" y="765" on="0"/>
        <pt x="627" y="628" on="0"/>
        <pt x="627" y="529" on="1"/>
        <pt x="627" y="471" on="0"/>
        <pt x="555" y="358" on="0"/>
        <pt x="495" y="323" on="1"/>
        <pt x="595" y="124" on="0"/>
        <pt x="641" y="109" on="1"/>
        <pt x="647" y="107" on="0"/>
        <pt x="663" y="102" on="0"/>
        <pt x="667" y="100" on="0"/>
        <pt x="675" y="97" on="0"/>
        <pt x="676" y="94" on="1"/>
        <pt x="677" y="87" on="0"/>
        <pt x="677" y="78" on="1"/>
        <pt x="677" y="40" on="0"/>
        <pt x="622" y="-11" on="0"/>
        <pt x="588" y="-11" on="1"/>
        <pt x="534" y="-11" on="0"/>
        <pt x="432" y="128" on="0"/>
        <pt x="363" y="280" on="1"/>
        <pt x="337" y="278" on="0"/>
        <pt x="274" y="278" on="0"/>
        <pt x="246" y="284" on="1"/>
        <pt x="254" y="148" on="0"/>
        <pt x="254" y="98" on="1"/>
        <pt x="254" y="-10" on="0"/>
        <pt x="102" y="-10" on="0"/>
      </contour>
      <contour>
        <pt x="246" y="419" on="1"/>
        <pt x="279" y="429" on="0"/>
        <pt x="364" y="429" on="0"/>
        <pt x="408" y="416" on="1"/>
        <pt x="435" y="427" on="0"/>
        <pt x="485" y="489" on="0"/>
        <pt x="485" y="523" on="1"/>
        <pt x="485" y="576" on="0"/>
        <pt x="405" y="638" on="0"/>
        <pt x="329" y="638" on="1"/>
        <pt x="295" y="638" on="0"/>
        <pt x="251" y="626" on="1"/>
        <pt x="246" y="441" on="0"/>
      </contour>
      <contour>
        <pt x="378" y="818" on="0"/>
        <pt x="347" y="803" on="0"/>
        <pt x="310" y="803" on="0"/>
        <pt x="279" y="818" on="0"/>
        <pt x="261" y="836" on="0"/>
        <pt x="227" y="873" on="0"/>
        <pt x="205" y="895" on="0"/>
        <pt x="170" y="927" on="0"/>
        <pt x="164" y="933" on="1"/>
        <pt x="147" y="950" on="0"/>
        <pt x="147" y="994" on="0"/>
        <pt x="182" y="1029" on="0"/>
        <pt x="231" y="1029" on="0"/>
        <pt x="283" y="982" on="0"/>
        <pt x="320" y="934" on="0"/>
        <pt x="336" y="934" on="0"/>
        <pt x="354" y="958" on="1"/>
        <pt x="410" y="1030" on="0"/>
        <pt x="451" y="1030" on="1"/>
        <pt x="474" y="1030" on="0"/>
        <pt x="509" y="995" on="0"/>
        <pt x="509" y="961" on="0"/>
        <pt x="498" y="940" on="0"/>
        <pt x="486" y="928" on="0"/>
        <pt x="451" y="896" on="0"/>
        <pt x="428" y="874" on="0"/>
        <pt x="396" y="836" on="0"/>
      </contour>
    </TTGlyph>
    <TTGlyph name="Rcommaaccent" xMin="62" yMin="-252" xMax="677" yMax="765">
      <contour>
        <pt x="102" y="98" on="1"/>
        <pt x="110" y="370" on="1"/>
        <pt x="110" y="446" on="0"/>
        <pt x="104" y="596" on="1"/>
        <pt x="62" y="613" on="0"/>
        <pt x="62" y="654" on="1"/>
        <pt x="62" y="682" on="0"/>
        <pt x="123" y="727" on="0"/>
        <pt x="168" y="740" on="1"/>
        <pt x="258" y="765" on="0"/>
        <pt x="324" y="765" on="1"/>
        <pt x="473" y="765" on="0"/>
        <pt x="627" y="628" on="0"/>
        <pt x="627" y="529" on="1"/>
        <pt x="627" y="471" on="0"/>
        <pt x="555" y="358" on="0"/>
        <pt x="495" y="323" on="1"/>
        <pt x="595" y="124" on="0"/>
        <pt x="641" y="109" on="1"/>
        <pt x="647" y="107" on="0"/>
        <pt x="663" y="102" on="0"/>
        <pt x="667" y="100" on="0"/>
        <pt x="675" y="97" on="0"/>
        <pt x="676" y="94" on="1"/>
        <pt x="677" y="87" on="0"/>
        <pt x="677" y="78" on="1"/>
        <pt x="677" y="40" on="0"/>
        <pt x="622" y="-11" on="0"/>
        <pt x="588" y="-11" on="1"/>
        <pt x="534" y="-11" on="0"/>
        <pt x="432" y="128" on="0"/>
        <pt x="363" y="280" on="1"/>
        <pt x="337" y="278" on="0"/>
        <pt x="274" y="278" on="0"/>
        <pt x="246" y="284" on="1"/>
        <pt x="254" y="148" on="0"/>
        <pt x="254" y="98" on="1"/>
        <pt x="254" y="-10" on="0"/>
        <pt x="102" y="-10" on="0"/>
      </contour>
      <contour>
        <pt x="246" y="419" on="1"/>
        <pt x="279" y="429" on="0"/>
        <pt x="364" y="429" on="0"/>
        <pt x="408" y="416" on="1"/>
        <pt x="435" y="427" on="0"/>
        <pt x="485" y="489" on="0"/>
        <pt x="485" y="523" on="1"/>
        <pt x="485" y="576" on="0"/>
        <pt x="405" y="638" on="0"/>
        <pt x="329" y="638" on="1"/>
        <pt x="295" y="638" on="0"/>
        <pt x="251" y="626" on="1"/>
        <pt x="246" y="441" on="0"/>
      </contour>
      <contour>
        <pt x="364" y="-115" on="1"/>
        <pt x="364" y="-164" on="0"/>
        <pt x="257" y="-252" on="0"/>
        <pt x="221" y="-252" on="1"/>
        <pt x="198" y="-252" on="0"/>
        <pt x="172" y="-227" on="0"/>
        <pt x="172" y="-193" on="0"/>
        <pt x="213" y="-132" on="0"/>
        <pt x="218" y="-123" on="0"/>
        <pt x="232" y="-90" on="0"/>
        <pt x="241" y="-75" on="0"/>
        <pt x="250" y="-65" on="1"/>
        <pt x="266" y="-46" on="0"/>
        <pt x="329" y="-46" on="0"/>
        <pt x="364" y="-90" on="0"/>
      </contour>
    </TTGlyph>
    <TTGlyph name="S" xMin="50" yMin="-15" xMax="559" yMax="765">
      <contour>
        <pt x="559" y="213" on="1"/>
        <pt x="559" y="116" on="0"/>
        <pt x="413" y="-15" on="0"/>
        <pt x="297" y="-15" on="1"/>
        <pt x="204" y="-15" on="0"/>
        <pt x="50" y="74" on="0"/>
        <pt x="50" y="123" on="1"/>
        <pt x="50" y="150" on="0"/>
        <pt x="87" y="185" on="0"/>
        <pt x="142" y="185" on="0"/>
        <pt x="195" y="148" on="0"/>
        <pt x="258" y="111" on="0"/>
        <pt x="349" y="111" on="0"/>
        <pt x="418" y="166" on="0"/>
        <pt x="418" y="213" on="1"/>
        <pt x="418" y="263" on="0"/>
        <pt x="332" y="314" on="1"/>
        <pt x="315" y="324" on="0"/>
        <pt x="238" y="368" on="0"/>
        <pt x="198" y="392" on="0"/>
        <pt x="133" y="441" on="0"/>
        <pt x="116" y="462" on="1"/>
        <pt x="74" y="514" on="0"/>
        <pt x="74" y="574" on="1"/>
        <pt x="74" y="652" on="0"/>
        <pt x="209" y="765" on="0"/>
        <pt x="392" y="765" on="0"/>
        <pt x="522" y="695" on="0"/>
        <pt x="522" y="651" on="1"/>
        <pt x="522" y="622" on="0"/>
        <pt x="486" y="590" on="0"/>
        <pt x="432" y="590" on="0"/>
        <pt x="346" y="639" on="0"/>
        <pt x="271" y="639" on="0"/>
        <pt x="216" y="602" on="0"/>
        <pt x="216" y="574" on="1"/>
        <pt x="216" y="544" on="0"/>
        <pt x="254" y="516" on="1"/>
        <pt x="284" y="494" on="0"/>
        <pt x="381" y="438" on="0"/>
        <pt x="423" y="413" on="0"/>
        <pt x="494" y="359" on="0"/>
        <pt x="530" y="315" on="0"/>
        <pt x="559" y="249" on="0"/>
      </contour>
    </TTGlyph>
    <TTGlyph name="T" xMin="32" yMin="-10" xMax="578" yMax="756">
      <contour>
        <pt x="377" y="370" on="1"/>
        <pt x="385" y="98" on="1"/>
        <pt x="385" y="-10" on="0"/>
        <pt x="233" y="-10" on="0"/>
        <pt x="233" y="98" on="1"/>
        <pt x="241" y="370" on="1"/>
        <pt x="241" y="452" on="0"/>
        <pt x="234" y="628" on="1"/>
        <pt x="115" y="622" on="1"/>
        <pt x="77" y="622" on="0"/>
        <pt x="32" y="658" on="0"/>
        <pt x="32" y="720" on="0"/>
        <pt x="77" y="756" on="0"/>
        <pt x="115" y="756" on="1"/>
        <pt x="305" y="750" on="1"/>
        <pt x="495" y="756" on="1"/>
        <pt x="533" y="756" on="0"/>
        <pt x="578" y="720" on="0"/>
        <pt x="578" y="658" on="0"/>
        <pt x="533" y="622" on="0"/>
        <pt x="495" y="622" on="1"/>
        <pt x="382" y="628" on="1"/>
        <pt x="377" y="496" on="0"/>
      </contour>
    </TTGlyph>
    <TTGlyph name="Thorn" xMin="93" yMin="-10" xMax="589" yMax="760">
      <contour>
        <pt x="239" y="499" on="1"/>
        <pt x="238" y="472" on="0"/>
        <pt x="238" y="354" on="0"/>
        <pt x="239" y="320" on="1"/>
        <pt x="276" y="312" on="0"/>
        <pt x="383" y="312" on="0"/>
        <pt x="449" y="365" on="0"/>
        <pt x="449" y="453" on="0"/>
        <pt x="382" y="506" on="0"/>
        <pt x="276" y="506" on="0"/>
      </contour>
      <contour>
        <pt x="101" y="376" on="1"/>
        <pt x="93" y="650" on="1"/>
        <pt x="93" y="699" on="0"/>
        <pt x="131" y="760" on="0"/>
        <pt x="208" y="760" on="0"/>
        <pt x="244" y="708" on="0"/>
        <pt x="244" y="671" on="1"/>
        <pt x="244" y="661" on="0"/>
        <pt x="242" y="627" on="1"/>
        <pt x="282" y="633" on="0"/>
        <pt x="329" y="633" on="1"/>
        <pt x="445" y="633" on="0"/>
        <pt x="589" y="505" on="0"/>
        <pt x="589" y="313" on="0"/>
        <pt x="446" y="185" on="0"/>
        <pt x="330" y="185" on="1"/>
        <pt x="283" y="185" on="0"/>
        <pt x="241" y="191" on="1"/>
        <pt x="244" y="108" on="0"/>
        <pt x="244" y="42" on="0"/>
        <pt x="207" y="-10" on="0"/>
        <pt x="135" y="-10" on="0"/>
        <pt x="95" y="37" on="0"/>
        <pt x="95" y="78" on="1"/>
      </contour>
    </TTGlyph>
    <TTGlyph name="U" xMin="86" yMin="-15" xMax="656" yMax="761">
      <contour>
        <pt x="656" y="652" on="1"/>
        <pt x="646" y="256" on="1"/>
        <pt x="646" y="144" on="0"/>
        <pt x="503" y="-15" on="0"/>
        <pt x="239" y="-15" on="0"/>
        <pt x="96" y="143" on="0"/>
        <pt x="96" y="255" on="1"/>
        <pt x="86" y="651" on="1"/>
        <pt x="86" y="760" on="0"/>
        <pt x="238" y="760" on="0"/>
        <pt x="238" y="651" on="1"/>
        <pt x="231" y="330" on="1"/>
        <pt x="231" y="171" on="0"/>
        <pt x="301" y="128" on="1"/>
        <pt x="330" y="111" on="0"/>
        <pt x="413" y="111" on="0"/>
        <pt x="470" y="146" on="0"/>
        <pt x="484" y="178" on="1"/>
        <pt x="511" y="238" on="0"/>
        <pt x="511" y="331" on="1"/>
        <pt x="504" y="652" on="1"/>
        <pt x="504" y="761" on="0"/>
        <pt x="656" y="761" on="0"/>
      </contour>
    </TTGlyph>
    <TTGlyph name="Uacute" xMin="86" yMin="-15" xMax="656" yMax="998">
      <contour>
        <pt x="656" y="652" on="1"/>
        <pt x="646" y="256" on="1"/>
        <pt x="646" y="144" on="0"/>
        <pt x="503" y="-15" on="0"/>
        <pt x="239" y="-15" on="0"/>
        <pt x="96" y="143" on="0"/>
        <pt x="96" y="255" on="1"/>
        <pt x="86" y="651" on="1"/>
        <pt x="86" y="760" on="0"/>
        <pt x="238" y="760" on="0"/>
        <pt x="238" y="651" on="1"/>
        <pt x="231" y="330" on="1"/>
        <pt x="231" y="171" on="0"/>
        <pt x="301" y="128" on="1"/>
        <pt x="330" y="111" on="0"/>
        <pt x="413" y="111" on="0"/>
        <pt x="470" y="146" on="0"/>
        <pt x="484" y="178" on="1"/>
        <pt x="511" y="238" on="0"/>
        <pt x="511" y="331" on="1"/>
        <pt x="504" y="652" on="1"/>
        <pt x="504" y="761" on="0"/>
        <pt x="656" y="761" on="0"/>
      </contour>
      <contour>
        <pt x="496" y="929" on="1"/>
        <pt x="496" y="880" on="0"/>
        <pt x="392" y="792" on="0"/>
        <pt x="356" y="792" on="1"/>
        <pt x="333" y="792" on="0"/>
        <pt x="307" y="817" on="0"/>
        <pt x="307" y="851" on="0"/>
        <pt x="348" y="912" on="0"/>
        <pt x="353" y="921" on="0"/>
        <pt x="367" y="954" on="0"/>
        <pt x="376" y="969" on="0"/>
        <pt x="384" y="979" on="1"/>
        <pt x="401" y="998" on="0"/>
        <pt x="464" y="998" on="0"/>
        <pt x="496" y="955" on="0"/>
      </contour>
    </TTGlyph>
    <TTGlyph name="Ucircumflex" xMin="86" yMin="-15" xMax="656" yMax="1020">
      <contour>
        <pt x="656" y="652" on="1"/>
        <pt x="646" y="256" on="1"/>
        <pt x="646" y="144" on="0"/>
        <pt x="503" y="-15" on="0"/>
        <pt x="239" y="-15" on="0"/>
        <pt x="96" y="143" on="0"/>
        <pt x="96" y="255" on="1"/>
        <pt x="86" y="651" on="1"/>
        <pt x="86" y="760" on="0"/>
        <pt x="238" y="760" on="0"/>
        <pt x="238" y="651" on="1"/>
        <pt x="231" y="330" on="1"/>
        <pt x="231" y="171" on="0"/>
        <pt x="301" y="128" on="1"/>
        <pt x="330" y="111" on="0"/>
        <pt x="413" y="111" on="0"/>
        <pt x="470" y="146" on="0"/>
        <pt x="484" y="178" on="1"/>
        <pt x="511" y="238" on="0"/>
        <pt x="511" y="331" on="1"/>
        <pt x="504" y="652" on="1"/>
        <pt x="504" y="761" on="0"/>
        <pt x="656" y="761" on="0"/>
      </contour>
      <contour>
        <pt x="325" y="1005" on="0"/>
        <pt x="356" y="1020" on="0"/>
        <pt x="399" y="1020" on="0"/>
        <pt x="429" y="1002" on="0"/>
        <pt x="476" y="948" on="0"/>
        <pt x="497" y="927" on="0"/>
        <pt x="532" y="895" on="0"/>
        <pt x="538" y="889" on="1"/>
        <pt x="555" y="872" on="0"/>
        <pt x="555" y="828" on="0"/>
        <pt x="520" y="793" on="0"/>
        <pt x="471" y="793" on="0"/>
        <pt x="419" y="841" on="0"/>
        <pt x="382" y="889" on="0"/>
        <pt x="366" y="889" on="0"/>
        <pt x="348" y="866" on="1"/>
        <pt x="291" y="794" on="0"/>
        <pt x="251" y="794" on="1"/>
        <pt x="228" y="794" on="0"/>
        <pt x="193" y="829" on="0"/>
        <pt x="193" y="863" on="0"/>
        <pt x="204" y="884" on="0"/>
        <pt x="216" y="896" on="0"/>
        <pt x="251" y="928" on="0"/>
        <pt x="273" y="950" on="0"/>
        <pt x="307" y="987" on="0"/>
      </contour>
    </TTGlyph>
    <TTGlyph name="Udieresis" xMin="86" yMin="-15" xMax="656" yMax="971">
      <contour>
        <pt x="656" y="652" on="1"/>
        <pt x="646" y="256" on="1"/>
        <pt x="646" y="144" on="0"/>
        <pt x="503" y="-15" on="0"/>
        <pt x="239" y="-15" on="0"/>
        <pt x="96" y="143" on="0"/>
        <pt x="96" y="255" on="1"/>
        <pt x="86" y="651" on="1"/>
        <pt x="86" y="760" on="0"/>
        <pt x="238" y="760" on="0"/>
        <pt x="238" y="651" on="1"/>
        <pt x="231" y="330" on="1"/>
        <pt x="231" y="171" on="0"/>
        <pt x="301" y="128" on="1"/>
        <pt x="330" y="111" on="0"/>
        <pt x="413" y="111" on="0"/>
        <pt x="470" y="146" on="0"/>
        <pt x="484" y="178" on="1"/>
        <pt x="511" y="238" on="0"/>
        <pt x="511" y="331" on="1"/>
        <pt x="504" y="652" on="1"/>
        <pt x="504" y="761" on="0"/>
        <pt x="656" y="761" on="0"/>
      </contour>
      <contour>
        <pt x="526" y="971" on="0"/>
        <pt x="566" y="926" on="0"/>
        <pt x="566" y="860" on="0"/>
        <pt x="520" y="807" on="0"/>
        <pt x="451" y="807" on="0"/>
        <pt x="412" y="853" on="0"/>
        <pt x="412" y="919" on="0"/>
        <pt x="457" y="971" on="0"/>
      </contour>
      <contour>
        <pt x="288" y="971" on="0"/>
        <pt x="328" y="926" on="0"/>
        <pt x="328" y="860" on="0"/>
        <pt x="282" y="807" on="0"/>
        <pt x="213" y="807" on="0"/>
        <pt x="174" y="853" on="0"/>
        <pt x="174" y="919" on="0"/>
        <pt x="219" y="971" on="0"/>
      </contour>
    </TTGlyph>
    <TTGlyph name="Ugrave" xMin="86" yMin="-15" xMax="656" yMax="996">
      <contour>
        <pt x="656" y="652" on="1"/>
        <pt x="646" y="256" on="1"/>
        <pt x="646" y="144" on="0"/>
        <pt x="503" y="-15" on="0"/>
        <pt x="239" y="-15" on="0"/>
        <pt x="96" y="143" on="0"/>
        <pt x="96" y="255" on="1"/>
        <pt x="86" y="651" on="1"/>
        <pt x="86" y="760" on="0"/>
        <pt x="238" y="760" on="0"/>
        <pt x="238" y="651" on="1"/>
        <pt x="231" y="330" on="1"/>
        <pt x="231" y="171" on="0"/>
        <pt x="301" y="128" on="1"/>
        <pt x="330" y="111" on="0"/>
        <pt x="413" y="111" on="0"/>
        <pt x="470" y="146" on="0"/>
        <pt x="484" y="178" on="1"/>
        <pt x="511" y="238" on="0"/>
        <pt x="511" y="331" on="1"/>
        <pt x="504" y="652" on="1"/>
        <pt x="504" y="761" on="0"/>
        <pt x="656" y="761" on="0"/>
      </contour>
      <contour>
        <pt x="245" y="927" on="1"/>
        <pt x="245" y="953" on="0"/>
        <pt x="277" y="996" on="0"/>
        <pt x="324" y="996" on="0"/>
        <pt x="348" y="987" on="0"/>
        <pt x="365" y="967" on="0"/>
        <pt x="374" y="952" on="0"/>
        <pt x="388" y="919" on="0"/>
        <pt x="393" y="910" on="0"/>
        <pt x="434" y="849" on="0"/>
        <pt x="434" y="815" on="0"/>
        <pt x="408" y="790" on="0"/>
        <pt x="385" y="790" on="1"/>
        <pt x="349" y="790" on="0"/>
        <pt x="245" y="878" on="0"/>
      </contour>
    </TTGlyph>
    <TTGlyph name="V" xMin="30" yMin="-10" xMax="639" yMax="760">
      <contour>
        <pt x="408" y="24" on="0"/>
        <pt x="357" y="-10" on="0"/>
        <pt x="304" y="-10" on="0"/>
        <pt x="252" y="27" on="0"/>
        <pt x="239" y="66" on="1"/>
        <pt x="161" y="301" on="0"/>
        <pt x="72" y="547" on="0"/>
        <pt x="56" y="592" on="1"/>
        <pt x="30" y="664" on="0"/>
        <pt x="30" y="716" on="0"/>
        <pt x="64" y="760" on="0"/>
        <pt x="96" y="760" on="1"/>
        <pt x="149" y="760" on="0"/>
        <pt x="169" y="698" on="1"/>
        <pt x="192" y="626" on="0"/>
        <pt x="236" y="484" on="1"/>
        <pt x="324" y="197" on="0"/>
        <pt x="339" y="197" on="0"/>
        <pt x="444" y="515" on="0"/>
        <pt x="496" y="690" on="1"/>
        <pt x="517" y="760" on="0"/>
        <pt x="567" y="760" on="1"/>
        <pt x="600" y="760" on="0"/>
        <pt x="639" y="718" on="0"/>
        <pt x="639" y="672" on="0"/>
        <pt x="595" y="547" on="0"/>
        <pt x="477" y="228" on="0"/>
        <pt x="421" y="63" on="1"/>
      </contour>
    </TTGlyph>
    <TTGlyph name="W" xMin="32" yMin="-10" xMax="918" yMax="760">
      <contour>
        <pt x="720" y="50" on="1"/>
        <pt x="708" y="19" on="0"/>
        <pt x="671" y="-10" on="0"/>
        <pt x="639" y="-10" on="1"/>
        <pt x="581" y="-10" on="0"/>
        <pt x="556" y="63" on="1"/>
        <pt x="543" y="100" on="0"/>
        <pt x="526" y="167" on="1"/>
        <pt x="487" y="319" on="0"/>
        <pt x="476" y="319" on="0"/>
        <pt x="442" y="198" on="0"/>
        <pt x="437" y="180" on="1"/>
        <pt x="420" y="115" on="0"/>
        <pt x="382" y="-10" on="0"/>
        <pt x="258" y="-10" on="0"/>
        <pt x="239" y="47" on="1"/>
        <pt x="226" y="75" on="0"/>
        <pt x="110" y="442" on="0"/>
        <pt x="64" y="575" on="0"/>
        <pt x="54" y="603" on="1"/>
        <pt x="32" y="665" on="0"/>
        <pt x="32" y="726" on="0"/>
        <pt x="70" y="760" on="0"/>
        <pt x="99" y="760" on="1"/>
        <pt x="153" y="760" on="0"/>
        <pt x="175" y="689" on="1"/>
        <pt x="196" y="616" on="0"/>
        <pt x="246" y="456" on="1"/>
        <pt x="322" y="214" on="0"/>
        <pt x="326" y="214" on="1"/>
        <pt x="334" y="214" on="0"/>
        <pt x="382" y="402" on="1"/>
        <pt x="398" y="465" on="1"/>
        <pt x="421" y="559" on="0"/>
        <pt x="479" y="559" on="1"/>
        <pt x="516" y="559" on="0"/>
        <pt x="556" y="512" on="0"/>
        <pt x="568" y="465" on="1"/>
        <pt x="637" y="216" on="0"/>
        <pt x="645" y="216" on="1"/>
        <pt x="655" y="216" on="0"/>
        <pt x="781" y="682" on="1"/>
        <pt x="803" y="760" on="0"/>
        <pt x="848" y="760" on="1"/>
        <pt x="882" y="760" on="0"/>
        <pt x="918" y="719" on="0"/>
        <pt x="918" y="677" on="0"/>
        <pt x="906" y="626" on="0"/>
        <pt x="891" y="581" on="0"/>
        <pt x="859" y="486" on="0"/>
        <pt x="828" y="388" on="0"/>
        <pt x="800" y="301" on="1"/>
        <pt x="742" y="117" on="0"/>
      </contour>
    </TTGlyph>
    <TTGlyph name="X" xMin="38" yMin="-13" xMax="670" yMax="762">
      <contour>
        <pt x="264" y="393" on="1"/>
        <pt x="167" y="548" on="0"/>
        <pt x="120" y="602" on="1"/>
        <pt x="97" y="631" on="0"/>
        <pt x="64" y="636" on="1"/>
        <pt x="55" y="638" on="0"/>
        <pt x="50" y="640" on="1"/>
        <pt x="38" y="646" on="0"/>
        <pt x="38" y="708" on="0"/>
        <pt x="83" y="762" on="0"/>
        <pt x="116" y="762" on="1"/>
        <pt x="177" y="762" on="0"/>
        <pt x="222" y="691" on="1"/>
        <pt x="341" y="504" on="1"/>
        <pt x="371" y="549" on="0"/>
        <pt x="435" y="664" on="0"/>
        <pt x="467" y="719" on="0"/>
        <pt x="511" y="760" on="0"/>
        <pt x="562" y="760" on="0"/>
        <pt x="599" y="721" on="0"/>
        <pt x="599" y="670" on="0"/>
        <pt x="567" y="616" on="0"/>
        <pt x="466" y="470" on="0"/>
        <pt x="417" y="387" on="1"/>
        <pt x="531" y="213" on="0"/>
        <pt x="588" y="147" on="1"/>
        <pt x="611" y="118" on="0"/>
        <pt x="644" y="112" on="1"/>
        <pt x="653" y="111" on="0"/>
        <pt x="658" y="109" on="1"/>
        <pt x="670" y="103" on="0"/>
        <pt x="670" y="41" on="0"/>
        <pt x="625" y="-13" on="0"/>
        <pt x="592" y="-13" on="1"/>
        <pt x="536" y="-13" on="0"/>
        <pt x="487" y="58" on="1"/>
        <pt x="338" y="276" on="1"/>
        <pt x="308" y="231" on="0"/>
        <pt x="222" y="78" on="0"/>
        <pt x="202" y="48" on="1"/>
        <pt x="164" y="-9" on="0"/>
        <pt x="126" y="-9" on="1"/>
        <pt x="99" y="-9" on="0"/>
        <pt x="62" y="30" on="0"/>
        <pt x="62" y="80" on="0"/>
        <pt x="104" y="150" on="0"/>
        <pt x="215" y="310" on="0"/>
      </contour>
    </TTGlyph>
    <TTGlyph name="Y" xMin="20" yMin="-10" xMax="582" yMax="760">
      <contour>
        <pt x="223" y="98" on="1"/>
        <pt x="223" y="146" on="0"/>
        <pt x="230" y="293" on="1"/>
        <pt x="198" y="358" on="0"/>
        <pt x="86" y="545" on="0"/>
        <pt x="20" y="664" on="0"/>
        <pt x="20" y="721" on="0"/>
        <pt x="55" y="760" on="0"/>
        <pt x="110" y="760" on="0"/>
        <pt x="140" y="741" on="0"/>
        <pt x="174" y="686" on="0"/>
        <pt x="189" y="655" on="1"/>
        <pt x="250" y="528" on="0"/>
        <pt x="303" y="438" on="1"/>
        <pt x="360" y="538" on="0"/>
        <pt x="432" y="686" on="0"/>
        <pt x="465" y="741" on="0"/>
        <pt x="494" y="760" on="0"/>
        <pt x="547" y="760" on="0"/>
        <pt x="582" y="719" on="0"/>
        <pt x="582" y="666" on="0"/>
        <pt x="514" y="545" on="0"/>
        <pt x="400" y="358" on="0"/>
        <pt x="368" y="292" on="1"/>
        <pt x="375" y="159" on="0"/>
        <pt x="375" y="98" on="1"/>
        <pt x="375" y="-10" on="0"/>
        <pt x="223" y="-10" on="0"/>
      </contour>
    </TTGlyph>
    <TTGlyph name="Yacute" xMin="20" yMin="-10" xMax="582" yMax="996">
      <contour>
        <pt x="223" y="98" on="1"/>
        <pt x="223" y="146" on="0"/>
        <pt x="230" y="293" on="1"/>
        <pt x="198" y="358" on="0"/>
        <pt x="86" y="545" on="0"/>
        <pt x="20" y="664" on="0"/>
        <pt x="20" y="721" on="0"/>
        <pt x="55" y="760" on="0"/>
        <pt x="110" y="760" on="0"/>
        <pt x="140" y="741" on="0"/>
        <pt x="174" y="686" on="0"/>
        <pt x="189" y="655" on="1"/>
        <pt x="250" y="528" on="0"/>
        <pt x="303" y="438" on="1"/>
        <pt x="360" y="538" on="0"/>
        <pt x="432" y="686" on="0"/>
        <pt x="465" y="741" on="0"/>
        <pt x="494" y="760" on="0"/>
        <pt x="547" y="760" on="0"/>
        <pt x="582" y="719" on="0"/>
        <pt x="582" y="666" on="0"/>
        <pt x="514" y="545" on="0"/>
        <pt x="400" y="358" on="0"/>
        <pt x="368" y="292" on="1"/>
        <pt x="375" y="159" on="0"/>
        <pt x="375" y="98" on="1"/>
        <pt x="375" y="-10" on="0"/>
        <pt x="223" y="-10" on="0"/>
      </contour>
      <contour>
        <pt x="424" y="927" on="1"/>
        <pt x="424" y="878" on="0"/>
        <pt x="320" y="790" on="0"/>
        <pt x="284" y="790" on="1"/>
        <pt x="261" y="790" on="0"/>
        <pt x="235" y="815" on="0"/>
        <pt x="235" y="849" on="0"/>
        <pt x="276" y="910" on="0"/>
        <pt x="281" y="919" on="0"/>
        <pt x="295" y="952" on="0"/>
        <pt x="304" y="967" on="0"/>
        <pt x="312" y="977" on="1"/>
        <pt x="329" y="996" on="0"/>
        <pt x="392" y="996" on="0"/>
        <pt x="424" y="953" on="0"/>
      </contour>
    </TTGlyph>
    <TTGlyph name="Z" xMin="41" yMin="-6" xMax="579" yMax="756">
      <contour>
        <pt x="334" y="122" on="1"/>
        <pt x="497" y="128" on="1"/>
        <pt x="534" y="128" on="0"/>
        <pt x="579" y="92" on="0"/>
        <pt x="579" y="31" on="0"/>
        <pt x="534" y="-6" on="0"/>
        <pt x="497" y="-6" on="1"/>
        <pt x="334" y="0" on="1"/>
        <pt x="121" y="-6" on="1"/>
        <pt x="41" y="-6" on="0"/>
        <pt x="41" y="58" on="1"/>
        <pt x="41" y="97" on="0"/>
        <pt x="88" y="164" on="1"/>
        <pt x="169" y="279" on="0"/>
        <pt x="254" y="422" on="1"/>
        <pt x="376" y="627" on="1"/>
        <pt x="353" y="628" on="0"/>
        <pt x="296" y="628" on="1"/>
        <pt x="134" y="622" on="1"/>
        <pt x="97" y="622" on="0"/>
        <pt x="52" y="658" on="0"/>
        <pt x="52" y="719" on="0"/>
        <pt x="97" y="756" on="0"/>
        <pt x="134" y="756" on="1"/>
        <pt x="296" y="750" on="1"/>
        <pt x="485" y="756" on="1"/>
        <pt x="565" y="756" on="0"/>
        <pt x="565" y="694" on="1"/>
        <pt x="565" y="662" on="0"/>
        <pt x="533" y="602" on="0"/>
        <pt x="422" y="442" on="0"/>
        <pt x="371" y="357" on="1"/>
        <pt x="231" y="123" on="1"/>
        <pt x="263" y="122" on="0"/>
      </contour>
    </TTGlyph>
    <TTGlyph name="a" xMin="62" yMin="-15" xMax="746" yMax="765">
      <contour>
        <pt x="643" y="765" on="0"/>
        <pt x="690" y="698" on="0"/>
        <pt x="690" y="597" on="0"/>
        <pt x="662" y="366" on="1"/>
        <pt x="662" y="312" on="0"/>
        <pt x="685" y="135" on="0"/>
        <pt x="704" y="122" on="1"/>
        <pt x="722" y="110" on="0"/>
        <pt x="738" y="104" on="0"/>
        <pt x="741" y="102" on="1"/>
        <pt x="746" y="97" on="0"/>
        <pt x="746" y="82" on="1"/>
        <pt x="746" y="44" on="0"/>
        <pt x="694" y="-14" on="0"/>
        <pt x="611" y="-14" on="0"/>
        <pt x="557" y="57" on="0"/>
        <pt x="547" y="112" on="1"/>
        <pt x="454" y="-15" on="0"/>
        <pt x="329" y="-15" on="1"/>
        <pt x="262" y="-15" on="0"/>
        <pt x="156" y="54" on="0"/>
        <pt x="125" y="110" on="1"/>
        <pt x="62" y="224" on="0"/>
        <pt x="62" y="363" on="1"/>
        <pt x="62" y="527" on="0"/>
        <pt x="238" y="765" on="0"/>
        <pt x="378" y="765" on="1"/>
        <pt x="460" y="765" on="0"/>
        <pt x="534" y="721" on="1"/>
        <pt x="549" y="765" on="0"/>
        <pt x="602" y="765" on="1"/>
      </contour>
      <contour>
        <pt x="536" y="357" on="1"/>
        <pt x="531" y="577" on="1"/>
        <pt x="460" y="638" on="0"/>
        <pt x="378" y="638" on="1"/>
        <pt x="309" y="638" on="0"/>
        <pt x="204" y="481" on="0"/>
        <pt x="204" y="259" on="0"/>
        <pt x="273" y="112" on="0"/>
        <pt x="396" y="112" on="0"/>
        <pt x="523" y="276" on="0"/>
      </contour>
    </TTGlyph>
    <TTGlyph name="aacute" xMin="62" yMin="-15" xMax="746" yMax="996">
      <contour>
        <pt x="643" y="765" on="0"/>
        <pt x="690" y="698" on="0"/>
        <pt x="690" y="597" on="0"/>
        <pt x="662" y="366" on="1"/>
        <pt x="662" y="312" on="0"/>
        <pt x="685" y="135" on="0"/>
        <pt x="704" y="122" on="1"/>
        <pt x="722" y="110" on="0"/>
        <pt x="738" y="104" on="0"/>
        <pt x="741" y="102" on="1"/>
        <pt x="746" y="97" on="0"/>
        <pt x="746" y="82" on="1"/>
        <pt x="746" y="44" on="0"/>
        <pt x="694" y="-14" on="0"/>
        <pt x="611" y="-14" on="0"/>
        <pt x="557" y="57" on="0"/>
        <pt x="547" y="112" on="1"/>
        <pt x="454" y="-15" on="0"/>
        <pt x="329" y="-15" on="1"/>
        <pt x="262" y="-15" on="0"/>
        <pt x="156" y="54" on="0"/>
        <pt x="125" y="110" on="1"/>
        <pt x="62" y="224" on="0"/>
        <pt x="62" y="363" on="1"/>
        <pt x="62" y="527" on="0"/>
        <pt x="238" y="765" on="0"/>
        <pt x="378" y="765" on="1"/>
        <pt x="460" y="765" on="0"/>
        <pt x="534" y="721" on="1"/>
        <pt x="549" y="765" on="0"/>
        <pt x="602" y="765" on="1"/>
      </contour>
      <contour>
        <pt x="536" y="357" on="1"/>
        <pt x="531" y="577" on="1"/>
        <pt x="460" y="638" on="0"/>
        <pt x="378" y="638" on="1"/>
        <pt x="309" y="638" on="0"/>
        <pt x="204" y="481" on="0"/>
        <pt x="204" y="259" on="0"/>
        <pt x="273" y="112" on="0"/>
        <pt x="396" y="112" on="0"/>
        <pt x="523" y="276" on="0"/>
      </contour>
      <contour>
        <pt x="531" y="927" on="1"/>
        <pt x="531" y="878" on="0"/>
        <pt x="427" y="790" on="0"/>
        <pt x="391" y="790" on="1"/>
        <pt x="368" y="790" on="0"/>
        <pt x="342" y="815" on="0"/>
        <pt x="342" y="849" on="0"/>
        <pt x="383" y="910" on="0"/>
        <pt x="388" y="919" on="0"/>
        <pt x="402" y="952" on="0"/>
        <pt x="411" y="967" on="0"/>
        <pt x="420" y="977" on="1"/>
        <pt x="436" y="996" on="0"/>
        <pt x="499" y="996" on="0"/>
        <pt x="531" y="953" on="0"/>
      </contour>
    </TTGlyph>
    <TTGlyph name="acircumflex" xMin="62" yMin="-15" xMax="746" yMax="1020">
      <contour>
        <pt x="643" y="765" on="0"/>
        <pt x="690" y="698" on="0"/>
        <pt x="690" y="597" on="0"/>
        <pt x="662" y="366" on="1"/>
        <pt x="662" y="312" on="0"/>
        <pt x="685" y="135" on="0"/>
        <pt x="704" y="122" on="1"/>
        <pt x="722" y="110" on="0"/>
        <pt x="738" y="104" on="0"/>
        <pt x="741" y="102" on="1"/>
        <pt x="746" y="97" on="0"/>
        <pt x="746" y="82" on="1"/>
        <pt x="746" y="44" on="0"/>
        <pt x="694" y="-14" on="0"/>
        <pt x="611" y="-14" on="0"/>
        <pt x="557" y="57" on="0"/>
        <pt x="547" y="112" on="1"/>
        <pt x="454" y="-15" on="0"/>
        <pt x="329" y="-15" on="1"/>
        <pt x="262" y="-15" on="0"/>
        <pt x="156" y="54" on="0"/>
        <pt x="125" y="110" on="1"/>
        <pt x="62" y="224" on="0"/>
        <pt x="62" y="363" on="1"/>
        <pt x="62" y="527" on="0"/>
        <pt x="238" y="765" on="0"/>
        <pt x="378" y="765" on="1"/>
        <pt x="460" y="765" on="0"/>
        <pt x="534" y="721" on="1"/>
        <pt x="549" y="765" on="0"/>
        <pt x="602" y="765" on="1"/>
      </contour>
      <contour>
        <pt x="536" y="357" on="1"/>
        <pt x="531" y="577" on="1"/>
        <pt x="460" y="638" on="0"/>
        <pt x="378" y="638" on="1"/>
        <pt x="309" y="638" on="0"/>
        <pt x="204" y="481" on="0"/>
        <pt x="204" y="259" on="0"/>
        <pt x="273" y="112" on="0"/>
        <pt x="396" y="112" on="0"/>
        <pt x="523" y="276" on="0"/>
      </contour>
      <contour>
        <pt x="355" y="1005" on="0"/>
        <pt x="386" y="1020" on="0"/>
        <pt x="429" y="1020" on="0"/>
        <pt x="459" y="1002" on="0"/>
        <pt x="506" y="948" on="0"/>
        <pt x="527" y="927" on="0"/>
        <pt x="562" y="895" on="0"/>
        <pt x="568" y="889" on="1"/>
        <pt x="585" y="872" on="0"/>
        <pt x="585" y="828" on="0"/>
        <pt x="550" y="793" on="0"/>
        <pt x="501" y="793" on="0"/>
        <pt x="449" y="841" on="0"/>
        <pt x="412" y="889" on="0"/>
        <pt x="396" y="889" on="0"/>
        <pt x="378" y="866" on="1"/>
        <pt x="321" y="794" on="0"/>
        <pt x="281" y="794" on="1"/>
        <pt x="258" y="794" on="0"/>
        <pt x="223" y="829" on="0"/>
        <pt x="223" y="863" on="0"/>
        <pt x="234" y="884" on="0"/>
        <pt x="246" y="896" on="0"/>
        <pt x="281" y="928" on="0"/>
        <pt x="303" y="950" on="0"/>
        <pt x="337" y="987" on="0"/>
      </contour>
    </TTGlyph>
    <TTGlyph name="acute" xMin="75" yMin="540" xMax="264" yMax="746">
      <contour>
        <pt x="264" y="677" on="1"/>
        <pt x="264" y="628" on="0"/>
        <pt x="160" y="540" on="0"/>
        <pt x="124" y="540" on="1"/>
        <pt x="101" y="540" on="0"/>
        <pt x="75" y="565" on="0"/>
        <pt x="75" y="599" on="0"/>
        <pt x="116" y="660" on="0"/>
        <pt x="121" y="669" on="0"/>
        <pt x="135" y="702" on="0"/>
        <pt x="144" y="717" on="0"/>
        <pt x="152" y="727" on="1"/>
        <pt x="169" y="746" on="0"/>
        <pt x="232" y="746" on="0"/>
        <pt x="264" y="703" on="0"/>
      </contour>
    </TTGlyph>
    <TTGlyph name="adieresis" xMin="62" yMin="-15" xMax="746" yMax="971">
      <contour>
        <pt x="643" y="765" on="0"/>
        <pt x="690" y="698" on="0"/>
        <pt x="690" y="597" on="0"/>
        <pt x="662" y="366" on="1"/>
        <pt x="662" y="312" on="0"/>
        <pt x="685" y="135" on="0"/>
        <pt x="704" y="122" on="1"/>
        <pt x="722" y="110" on="0"/>
        <pt x="738" y="104" on="0"/>
        <pt x="741" y="102" on="1"/>
        <pt x="746" y="97" on="0"/>
        <pt x="746" y="82" on="1"/>
        <pt x="746" y="44" on="0"/>
        <pt x="694" y="-14" on="0"/>
        <pt x="611" y="-14" on="0"/>
        <pt x="557" y="57" on="0"/>
        <pt x="547" y="112" on="1"/>
        <pt x="454" y="-15" on="0"/>
        <pt x="329" y="-15" on="1"/>
        <pt x="262" y="-15" on="0"/>
        <pt x="156" y="54" on="0"/>
        <pt x="125" y="110" on="1"/>
        <pt x="62" y="224" on="0"/>
        <pt x="62" y="363" on="1"/>
        <pt x="62" y="527" on="0"/>
        <pt x="238" y="765" on="0"/>
        <pt x="378" y="765" on="1"/>
        <pt x="460" y="765" on="0"/>
        <pt x="534" y="721" on="1"/>
        <pt x="549" y="765" on="0"/>
        <pt x="602" y="765" on="1"/>
      </contour>
      <contour>
        <pt x="536" y="357" on="1"/>
        <pt x="531" y="577" on="1"/>
        <pt x="460" y="638" on="0"/>
        <pt x="378" y="638" on="1"/>
        <pt x="309" y="638" on="0"/>
        <pt x="204" y="481" on="0"/>
        <pt x="204" y="259" on="0"/>
        <pt x="273" y="112" on="0"/>
        <pt x="396" y="112" on="0"/>
        <pt x="523" y="276" on="0"/>
      </contour>
      <contour>
        <pt x="540" y="971" on="0"/>
        <pt x="580" y="926" on="0"/>
        <pt x="580" y="860" on="0"/>
        <pt x="534" y="807" on="0"/>
        <pt x="465" y="807" on="0"/>
        <pt x="426" y="853" on="0"/>
        <pt x="426" y="919" on="0"/>
        <pt x="471" y="971" on="0"/>
      </contour>
      <contour>
        <pt x="302" y="971" on="0"/>
        <pt x="342" y="926" on="0"/>
        <pt x="342" y="860" on="0"/>
        <pt x="296" y="807" on="0"/>
        <pt x="227" y="807" on="0"/>
        <pt x="188" y="853" on="0"/>
        <pt x="188" y="919" on="0"/>
        <pt x="233" y="971" on="0"/>
      </contour>
    </TTGlyph>
    <TTGlyph name="ae" xMin="44" yMin="-14" xMax="1097" yMax="765">
      <contour>
        <pt x="1097" y="536" on="1"/>
        <pt x="1097" y="455" on="0"/>
        <pt x="1052" y="399" on="1"/>
        <pt x="969" y="297" on="0"/>
        <pt x="789" y="297" on="1"/>
        <pt x="719" y="297" on="0"/>
        <pt x="650" y="305" on="1"/>
        <pt x="666" y="225" on="0"/>
        <pt x="767" y="108" on="0"/>
        <pt x="871" y="108" on="0"/>
        <pt x="946" y="140" on="0"/>
        <pt x="998" y="171" on="0"/>
        <pt x="1042" y="171" on="0"/>
        <pt x="1074" y="141" on="0"/>
        <pt x="1074" y="118" on="1"/>
        <pt x="1074" y="79" on="0"/>
        <pt x="926" y="-14" on="0"/>
        <pt x="832" y="-14" on="1"/>
        <pt x="667" y="-14" on="0"/>
        <pt x="574" y="116" on="1"/>
        <pt x="483" y="-14" on="0"/>
        <pt x="314" y="-14" on="1"/>
        <pt x="200" y="-14" on="0"/>
        <pt x="44" y="134" on="0"/>
        <pt x="44" y="250" on="1"/>
        <pt x="44" y="346" on="0"/>
        <pt x="201" y="481" on="0"/>
        <pt x="319" y="481" on="1"/>
        <pt x="407" y="481" on="0"/>
        <pt x="499" y="458" on="1"/>
        <pt x="493" y="555" on="0"/>
        <pt x="406" y="639" on="0"/>
        <pt x="343" y="639" on="1"/>
        <pt x="304" y="639" on="0"/>
        <pt x="235" y="600" on="0"/>
        <pt x="177" y="561" on="0"/>
        <pt x="123" y="561" on="0"/>
        <pt x="85" y="593" on="0"/>
        <pt x="85" y="624" on="1"/>
        <pt x="85" y="671" on="0"/>
        <pt x="239" y="765" on="0"/>
        <pt x="350" y="765" on="1"/>
        <pt x="426" y="765" on="0"/>
        <pt x="553" y="702" on="0"/>
        <pt x="593" y="647" on="1"/>
        <pt x="689" y="765" on="0"/>
        <pt x="844" y="765" on="1"/>
        <pt x="951" y="765" on="0"/>
        <pt x="1097" y="634" on="0"/>
      </contour>
      <contour>
        <pt x="186" y="247" on="1"/>
        <pt x="186" y="190" on="0"/>
        <pt x="265" y="114" on="0"/>
        <pt x="317" y="114" on="1"/>
        <pt x="386" y="114" on="0"/>
        <pt x="493" y="228" on="0"/>
        <pt x="497" y="330" on="1"/>
        <pt x="418" y="353" on="0"/>
        <pt x="265" y="353" on="0"/>
        <pt x="186" y="289" on="0"/>
      </contour>
      <contour>
        <pt x="651" y="431" on="1"/>
        <pt x="724" y="417" on="0"/>
        <pt x="862" y="417" on="0"/>
        <pt x="955" y="481" on="0"/>
        <pt x="955" y="539" on="1"/>
        <pt x="955" y="576" on="0"/>
        <pt x="897" y="639" on="0"/>
        <pt x="844" y="639" on="1"/>
        <pt x="773" y="639" on="0"/>
        <pt x="672" y="516" on="0"/>
      </contour>
    </TTGlyph>
    <TTGlyph name="agrave" xMin="62" yMin="-15" xMax="746" yMax="996">
      <contour>
        <pt x="643" y="765" on="0"/>
        <pt x="690" y="698" on="0"/>
        <pt x="690" y="597" on="0"/>
        <pt x="662" y="366" on="1"/>
        <pt x="662" y="312" on="0"/>
        <pt x="685" y="135" on="0"/>
        <pt x="704" y="122" on="1"/>
        <pt x="722" y="110" on="0"/>
        <pt x="738" y="104" on="0"/>
        <pt x="741" y="102" on="1"/>
        <pt x="746" y="97" on="0"/>
        <pt x="746" y="82" on="1"/>
        <pt x="746" y="44" on="0"/>
        <pt x="694" y="-14" on="0"/>
        <pt x="611" y="-14" on="0"/>
        <pt x="557" y="57" on="0"/>
        <pt x="547" y="112" on="1"/>
        <pt x="454" y="-15" on="0"/>
        <pt x="329" y="-15" on="1"/>
        <pt x="262" y="-15" on="0"/>
        <pt x="156" y="54" on="0"/>
        <pt x="125" y="110" on="1"/>
        <pt x="62" y="224" on="0"/>
        <pt x="62" y="363" on="1"/>
        <pt x="62" y="527" on="0"/>
        <pt x="238" y="765" on="0"/>
        <pt x="378" y="765" on="1"/>
        <pt x="460" y="765" on="0"/>
        <pt x="534" y="721" on="1"/>
        <pt x="549" y="765" on="0"/>
        <pt x="602" y="765" on="1"/>
      </contour>
      <contour>
        <pt x="536" y="357" on="1"/>
        <pt x="531" y="577" on="1"/>
        <pt x="460" y="638" on="0"/>
        <pt x="378" y="638" on="1"/>
        <pt x="309" y="638" on="0"/>
        <pt x="204" y="481" on="0"/>
        <pt x="204" y="259" on="0"/>
        <pt x="273" y="112" on="0"/>
        <pt x="396" y="112" on="0"/>
        <pt x="523" y="276" on="0"/>
      </contour>
      <contour>
        <pt x="261" y="927" on="1"/>
        <pt x="261" y="953" on="0"/>
        <pt x="293" y="996" on="0"/>
        <pt x="340" y="996" on="0"/>
        <pt x="364" y="987" on="0"/>
        <pt x="381" y="967" on="0"/>
        <pt x="390" y="952" on="0"/>
        <pt x="404" y="919" on="0"/>
        <pt x="409" y="910" on="0"/>
        <pt x="450" y="849" on="0"/>
        <pt x="450" y="815" on="0"/>
        <pt x="424" y="790" on="0"/>
        <pt x="401" y="790" on="1"/>
        <pt x="365" y="790" on="0"/>
        <pt x="261" y="878" on="0"/>
      </contour>
    </TTGlyph>
    <TTGlyph name="ampersand" xMin="54" yMin="-15" xMax="813" yMax="765">
      <contour>
        <pt x="477" y="392" on="1"/>
        <pt x="544" y="390" on="1"/>
        <pt x="675" y="390" on="0"/>
        <pt x="675" y="454" on="1"/>
        <pt x="675" y="477" on="0"/>
        <pt x="641" y="511" on="0"/>
        <pt x="599" y="528" on="0"/>
        <pt x="565" y="559" on="0"/>
        <pt x="565" y="607" on="0"/>
        <pt x="599" y="641" on="0"/>
        <pt x="633" y="641" on="1"/>
        <pt x="697" y="641" on="0"/>
        <pt x="813" y="526" on="0"/>
        <pt x="813" y="370" on="0"/>
        <pt x="698" y="278" on="0"/>
        <pt x="615" y="271" on="1"/>
        <pt x="623" y="239" on="0"/>
        <pt x="623" y="212" on="1"/>
        <pt x="623" y="123" on="0"/>
        <pt x="468" y="-15" on="0"/>
        <pt x="220" y="-15" on="0"/>
        <pt x="54" y="134" on="0"/>
        <pt x="54" y="246" on="1"/>
        <pt x="54" y="304" on="0"/>
        <pt x="106" y="415" on="0"/>
        <pt x="151" y="456" on="1"/>
        <pt x="101" y="515" on="0"/>
        <pt x="101" y="653" on="0"/>
        <pt x="209" y="765" on="0"/>
        <pt x="307" y="765" on="1"/>
        <pt x="369" y="765" on="0"/>
        <pt x="476" y="698" on="0"/>
        <pt x="476" y="629" on="0"/>
        <pt x="439" y="597" on="0"/>
        <pt x="393" y="597" on="0"/>
        <pt x="328" y="638" on="0"/>
        <pt x="276" y="638" on="0"/>
        <pt x="239" y="606" on="0"/>
        <pt x="239" y="541" on="0"/>
        <pt x="270" y="517" on="1"/>
        <pt x="290" y="519" on="0"/>
        <pt x="306" y="519" on="1"/>
        <pt x="345" y="519" on="0"/>
        <pt x="395" y="480" on="0"/>
        <pt x="395" y="413" on="0"/>
        <pt x="341" y="375" on="0"/>
        <pt x="280" y="375" on="0"/>
        <pt x="258" y="381" on="1"/>
        <pt x="194" y="336" on="0"/>
        <pt x="194" y="254" on="1"/>
        <pt x="194" y="190" on="0"/>
        <pt x="277" y="112" on="0"/>
        <pt x="412" y="112" on="0"/>
        <pt x="487" y="182" on="0"/>
        <pt x="487" y="223" on="1"/>
        <pt x="487" y="242" on="0"/>
        <pt x="481" y="263" on="1"/>
        <pt x="460" y="244" on="0"/>
        <pt x="409" y="244" on="0"/>
        <pt x="373" y="282" on="0"/>
        <pt x="373" y="348" on="0"/>
        <pt x="431" y="392" on="0"/>
      </contour>
    </TTGlyph>
    <TTGlyph name="approxequal" xMin="83" yMin="189" xMax="596" yMax="578">
      <contour>
        <pt x="596" y="298" on="1"/>
        <pt x="596" y="264" on="0"/>
        <pt x="494" y="191" on="0"/>
        <pt x="438" y="191" on="1"/>
        <pt x="402" y="191" on="0"/>
        <pt x="288" y="240" on="0"/>
        <pt x="252" y="240" on="0"/>
        <pt x="185" y="189" on="0"/>
        <pt x="124" y="189" on="0"/>
        <pt x="84" y="222" on="0"/>
        <pt x="84" y="249" on="1"/>
        <pt x="84" y="288" on="0"/>
        <pt x="183" y="357" on="0"/>
        <pt x="255" y="357" on="1"/>
        <pt x="292" y="357" on="0"/>
        <pt x="405" y="307" on="0"/>
        <pt x="458" y="307" on="0"/>
        <pt x="526" y="350" on="0"/>
        <pt x="570" y="350" on="0"/>
        <pt x="596" y="320" on="0"/>
      </contour>
      <contour>
        <pt x="595" y="519" on="1"/>
        <pt x="595" y="485" on="0"/>
        <pt x="493" y="412" on="0"/>
        <pt x="437" y="412" on="1"/>
        <pt x="402" y="412" on="0"/>
        <pt x="286" y="461" on="0"/>
        <pt x="250" y="461" on="0"/>
        <pt x="180" y="410" on="0"/>
        <pt x="120" y="410" on="0"/>
        <pt x="83" y="443" on="0"/>
        <pt x="83" y="470" on="1"/>
        <pt x="83" y="509" on="0"/>
        <pt x="182" y="578" on="0"/>
        <pt x="254" y="578" on="1"/>
        <pt x="291" y="578" on="0"/>
        <pt x="404" y="528" on="0"/>
        <pt x="422" y="528" on="1"/>
        <pt x="458" y="528" on="0"/>
        <pt x="524" y="571" on="0"/>
        <pt x="569" y="571" on="0"/>
        <pt x="595" y="541" on="0"/>
      </contour>
    </TTGlyph>
    <TTGlyph name="aring" xMin="62" yMin="-15" xMax="746" yMax="1016">
      <contour>
        <pt x="643" y="765" on="0"/>
        <pt x="690" y="698" on="0"/>
        <pt x="690" y="597" on="0"/>
        <pt x="662" y="366" on="1"/>
        <pt x="662" y="312" on="0"/>
        <pt x="685" y="135" on="0"/>
        <pt x="704" y="122" on="1"/>
        <pt x="722" y="110" on="0"/>
        <pt x="738" y="104" on="0"/>
        <pt x="741" y="102" on="1"/>
        <pt x="746" y="97" on="0"/>
        <pt x="746" y="82" on="1"/>
        <pt x="746" y="44" on="0"/>
        <pt x="694" y="-14" on="0"/>
        <pt x="611" y="-14" on="0"/>
        <pt x="557" y="57" on="0"/>
        <pt x="547" y="112" on="1"/>
        <pt x="454" y="-15" on="0"/>
        <pt x="329" y="-15" on="1"/>
        <pt x="262" y="-15" on="0"/>
        <pt x="156" y="54" on="0"/>
        <pt x="125" y="110" on="1"/>
        <pt x="62" y="224" on="0"/>
        <pt x="62" y="363" on="1"/>
        <pt x="62" y="527" on="0"/>
        <pt x="238" y="765" on="0"/>
        <pt x="378" y="765" on="1"/>
        <pt x="460" y="765" on="0"/>
        <pt x="534" y="721" on="1"/>
        <pt x="549" y="765" on="0"/>
        <pt x="602" y="765" on="1"/>
      </contour>
      <contour>
        <pt x="536" y="357" on="1"/>
        <pt x="531" y="577" on="1"/>
        <pt x="460" y="638" on="0"/>
        <pt x="378" y="638" on="1"/>
        <pt x="309" y="638" on="0"/>
        <pt x="204" y="481" on="0"/>
        <pt x="204" y="259" on="0"/>
        <pt x="273" y="112" on="0"/>
        <pt x="396" y="112" on="0"/>
        <pt x="523" y="276" on="0"/>
      </contour>
      <contour>
        <pt x="432" y="1016" on="0"/>
        <pt x="493" y="957" on="0"/>
        <pt x="493" y="872" on="0"/>
        <pt x="434" y="815" on="0"/>
        <pt x="338" y="815" on="0"/>
        <pt x="279" y="872" on="0"/>
        <pt x="279" y="957" on="0"/>
        <pt x="340" y="1016" on="0"/>
      </contour>
      <contour>
        <pt x="417" y="902" on="0"/>
        <pt x="417" y="926" on="0"/>
        <pt x="400" y="944" on="0"/>
        <pt x="372" y="944" on="0"/>
        <pt x="354" y="926" on="0"/>
        <pt x="354" y="902" on="0"/>
        <pt x="372" y="884" on="0"/>
        <pt x="400" y="884" on="0"/>
      </contour>
    </TTGlyph>
    <TTGlyph name="arrowdown" xMin="25" yMin="-15" xMax="572" yMax="765">
      <contour>
        <pt x="238" y="195" on="1"/>
        <pt x="234" y="683" on="1"/>
        <pt x="234" y="719" on="0"/>
        <pt x="271" y="765" on="0"/>
        <pt x="327" y="765" on="0"/>
        <pt x="363" y="719" on="0"/>
        <pt x="363" y="683" on="1"/>
        <pt x="363" y="603" on="0"/>
        <pt x="359" y="379" on="0"/>
        <pt x="359" y="195" on="1"/>
        <pt x="382" y="221" on="0"/>
        <pt x="447" y="300" on="0"/>
        <pt x="457" y="312" on="1"/>
        <pt x="483" y="341" on="0"/>
        <pt x="536" y="341" on="0"/>
        <pt x="572" y="304" on="0"/>
        <pt x="572" y="256" on="0"/>
        <pt x="543" y="216" on="0"/>
        <pt x="464" y="131" on="0"/>
        <pt x="451" y="117" on="1"/>
        <pt x="354" y="12" on="1"/>
        <pt x="329" y="-15" on="0"/>
        <pt x="268" y="-15" on="0"/>
        <pt x="243" y="12" on="1"/>
        <pt x="146" y="117" on="1"/>
        <pt x="51" y="219" on="0"/>
        <pt x="25" y="256" on="0"/>
        <pt x="25" y="304" on="0"/>
        <pt x="61" y="341" on="0"/>
        <pt x="114" y="341" on="0"/>
        <pt x="140" y="312" on="1"/>
        <pt x="150" y="300" on="0"/>
        <pt x="215" y="221" on="0"/>
      </contour>
    </TTGlyph>
    <TTGlyph name="arrowleft" xMin="21" yMin="103" xMax="801" yMax="650">
      <contour>
        <pt x="231" y="437" on="1"/>
        <pt x="719" y="441" on="1"/>
        <pt x="755" y="441" on="0"/>
        <pt x="801" y="404" on="0"/>
        <pt x="801" y="348" on="0"/>
        <pt x="755" y="312" on="0"/>
        <pt x="719" y="312" on="1"/>
        <pt x="639" y="312" on="0"/>
        <pt x="415" y="316" on="0"/>
        <pt x="231" y="316" on="1"/>
        <pt x="257" y="293" on="0"/>
        <pt x="336" y="228" on="0"/>
        <pt x="348" y="218" on="1"/>
        <pt x="377" y="192" on="0"/>
        <pt x="377" y="139" on="0"/>
        <pt x="340" y="103" on="0"/>
        <pt x="292" y="103" on="0"/>
        <pt x="252" y="132" on="0"/>
        <pt x="167" y="211" on="0"/>
        <pt x="153" y="224" on="1"/>
        <pt x="48" y="321" on="1"/>
        <pt x="21" y="346" on="0"/>
        <pt x="21" y="407" on="0"/>
        <pt x="48" y="432" on="1"/>
        <pt x="153" y="529" on="1"/>
        <pt x="255" y="624" on="0"/>
        <pt x="292" y="650" on="0"/>
        <pt x="340" y="650" on="0"/>
        <pt x="377" y="614" on="0"/>
        <pt x="377" y="561" on="0"/>
        <pt x="348" y="535" on="1"/>
        <pt x="336" y="525" on="0"/>
        <pt x="257" y="460" on="0"/>
      </contour>
    </TTGlyph>
    <TTGlyph name="arrowright" xMin="42" yMin="103" xMax="822" yMax="650">
      <contour>
        <pt x="612" y="316" on="1"/>
        <pt x="124" y="312" on="1"/>
        <pt x="88" y="312" on="0"/>
        <pt x="42" y="348" on="0"/>
        <pt x="42" y="404" on="0"/>
        <pt x="88" y="441" on="0"/>
        <pt x="124" y="441" on="1"/>
        <pt x="204" y="441" on="0"/>
        <pt x="428" y="437" on="0"/>
        <pt x="612" y="437" on="1"/>
        <pt x="586" y="460" on="0"/>
        <pt x="507" y="525" on="0"/>
        <pt x="495" y="535" on="1"/>
        <pt x="466" y="561" on="0"/>
        <pt x="466" y="614" on="0"/>
        <pt x="503" y="650" on="0"/>
        <pt x="551" y="650" on="0"/>
        <pt x="591" y="621" on="0"/>
        <pt x="676" y="542" on="0"/>
        <pt x="690" y="529" on="1"/>
        <pt x="795" y="432" on="1"/>
        <pt x="822" y="407" on="0"/>
        <pt x="822" y="346" on="0"/>
        <pt x="795" y="321" on="1"/>
        <pt x="690" y="224" on="1"/>
        <pt x="588" y="129" on="0"/>
        <pt x="551" y="103" on="0"/>
        <pt x="503" y="103" on="0"/>
        <pt x="466" y="139" on="0"/>
        <pt x="466" y="192" on="0"/>
        <pt x="495" y="218" on="1"/>
        <pt x="507" y="228" on="0"/>
        <pt x="586" y="293" on="0"/>
      </contour>
    </TTGlyph>
    <TTGlyph name="arrowup" xMin="25" yMin="-15" xMax="572" yMax="765">
      <contour>
        <pt x="359" y="555" on="1"/>
        <pt x="363" y="67" on="1"/>
        <pt x="363" y="31" on="0"/>
        <pt x="327" y="-15" on="0"/>
        <pt x="271" y="-15" on="0"/>
        <pt x="234" y="31" on="0"/>
        <pt x="234" y="67" on="1"/>
        <pt x="234" y="147" on="0"/>
        <pt x="238" y="371" on="0"/>
        <pt x="238" y="555" on="1"/>
        <pt x="215" y="529" on="0"/>
        <pt x="150" y="450" on="0"/>
        <pt x="140" y="438" on="1"/>
        <pt x="114" y="409" on="0"/>
        <pt x="61" y="409" on="0"/>
        <pt x="25" y="446" on="0"/>
        <pt x="25" y="494" on="0"/>
        <pt x="54" y="534" on="0"/>
        <pt x="133" y="619" on="0"/>
        <pt x="146" y="633" on="1"/>
        <pt x="243" y="738" on="1"/>
        <pt x="268" y="765" on="0"/>
        <pt x="329" y="765" on="0"/>
        <pt x="354" y="738" on="1"/>
        <pt x="451" y="633" on="1"/>
        <pt x="546" y="531" on="0"/>
        <pt x="572" y="494" on="0"/>
        <pt x="572" y="446" on="0"/>
        <pt x="536" y="409" on="0"/>
        <pt x="483" y="409" on="0"/>
        <pt x="457" y="438" on="1"/>
        <pt x="447" y="450" on="0"/>
        <pt x="382" y="529" on="0"/>
      </contour>
    </TTGlyph>
    <TTGlyph name="asciicircum" xMin="51" yMin="363" xMax="543" yMax="761">
      <contour>
        <pt x="234" y="761" on="0"/>
        <pt x="360" y="761" on="0"/>
        <pt x="418" y="650" on="0"/>
        <pt x="473" y="564" on="0"/>
        <pt x="507" y="513" on="0"/>
        <pt x="519" y="493" on="0"/>
        <pt x="528" y="476" on="1"/>
        <pt x="543" y="449" on="0"/>
        <pt x="543" y="399" on="0"/>
        <pt x="509" y="363" on="0"/>
        <pt x="466" y="363" on="0"/>
        <pt x="438" y="379" on="0"/>
        <pt x="415" y="414" on="0"/>
        <pt x="406" y="432" on="1"/>
        <pt x="319" y="618" on="0"/>
        <pt x="297" y="618" on="1"/>
        <pt x="284" y="618" on="0"/>
        <pt x="238" y="533" on="1"/>
        <pt x="221" y="503" on="0"/>
        <pt x="179" y="414" on="0"/>
        <pt x="168" y="396" on="1"/>
        <pt x="145" y="363" on="0"/>
        <pt x="85" y="363" on="0"/>
        <pt x="51" y="399" on="0"/>
        <pt x="51" y="436" on="0"/>
        <pt x="57" y="460" on="0"/>
        <pt x="75" y="493" on="0"/>
        <pt x="87" y="513" on="0"/>
        <pt x="104" y="538" on="1"/>
        <pt x="168" y="634" on="0"/>
        <pt x="203" y="702" on="1"/>
      </contour>
    </TTGlyph>
    <TTGlyph name="asciitilde" xMin="58" yMin="290" xMax="570" yMax="458">
      <contour>
        <pt x="570" y="399" on="1"/>
        <pt x="570" y="365" on="0"/>
        <pt x="468" y="292" on="0"/>
        <pt x="412" y="292" on="1"/>
        <pt x="376" y="292" on="0"/>
        <pt x="262" y="341" on="0"/>
        <pt x="225" y="341" on="0"/>
        <pt x="155" y="290" on="0"/>
        <pt x="95" y="290" on="0"/>
        <pt x="58" y="323" on="0"/>
        <pt x="58" y="350" on="1"/>
        <pt x="58" y="389" on="0"/>
        <pt x="157" y="458" on="0"/>
        <pt x="229" y="458" on="1"/>
        <pt x="266" y="458" on="0"/>
        <pt x="379" y="408" on="0"/>
        <pt x="432" y="408" on="0"/>
        <pt x="500" y="451" on="0"/>
        <pt x="544" y="451" on="0"/>
        <pt x="570" y="421" on="0"/>
      </contour>
    </TTGlyph>
    <TTGlyph name="asterisk" xMin="68" yMin="410" xMax="394" yMax="765">
      <contour>
        <pt x="394" y="646" on="1"/>
        <pt x="394" y="609" on="0"/>
        <pt x="353" y="587" on="1"/>
        <pt x="394" y="565" on="0"/>
        <pt x="394" y="528" on="1"/>
        <pt x="394" y="503" on="0"/>
        <pt x="355" y="470" on="0"/>
        <pt x="316" y="470" on="0"/>
        <pt x="298" y="477" on="1"/>
        <pt x="297" y="447" on="0"/>
        <pt x="260" y="410" on="0"/>
        <pt x="201" y="410" on="0"/>
        <pt x="164" y="447" on="0"/>
        <pt x="164" y="477" on="1"/>
        <pt x="147" y="470" on="0"/>
        <pt x="107" y="470" on="0"/>
        <pt x="68" y="503" on="0"/>
        <pt x="68" y="528" on="1"/>
        <pt x="68" y="566" on="0"/>
        <pt x="109" y="587" on="1"/>
        <pt x="68" y="608" on="0"/>
        <pt x="68" y="646" on="1"/>
        <pt x="68" y="671" on="0"/>
        <pt x="106" y="704" on="0"/>
        <pt x="148" y="704" on="0"/>
        <pt x="164" y="696" on="1"/>
        <pt x="164" y="727" on="0"/>
        <pt x="201" y="765" on="0"/>
        <pt x="260" y="765" on="0"/>
        <pt x="298" y="727" on="0"/>
        <pt x="298" y="696" on="1"/>
        <pt x="314" y="704" on="0"/>
        <pt x="356" y="704" on="0"/>
        <pt x="394" y="671" on="0"/>
      </contour>
    </TTGlyph>
    <TTGlyph name="at" xMin="54" yMin="-55" xMax="915" yMax="765">
      <contour>
        <pt x="915" y="368" on="1"/>
        <pt x="915" y="263" on="0"/>
        <pt x="789" y="122" on="0"/>
        <pt x="616" y="122" on="0"/>
        <pt x="573" y="177" on="1"/>
        <pt x="521" y="122" on="0"/>
        <pt x="452" y="122" on="1"/>
        <pt x="404" y="122" on="0"/>
        <pt x="328" y="165" on="0"/>
        <pt x="307" y="199" on="1"/>
        <pt x="265" y="267" on="0"/>
        <pt x="265" y="342" on="1"/>
        <pt x="265" y="439" on="0"/>
        <pt x="390" y="581" on="0"/>
        <pt x="486" y="581" on="1"/>
        <pt x="522" y="581" on="0"/>
        <pt x="558" y="559" on="1"/>
        <pt x="577" y="581" on="0"/>
        <pt x="612" y="581" on="1"/>
        <pt x="678" y="581" on="0"/>
        <pt x="678" y="483" on="1"/>
        <pt x="678" y="471" on="0"/>
        <pt x="659" y="353" on="0"/>
        <pt x="659" y="315" on="1"/>
        <pt x="659" y="244" on="0"/>
        <pt x="707" y="244" on="1"/>
        <pt x="737" y="244" on="0"/>
        <pt x="784" y="304" on="0"/>
        <pt x="784" y="370" on="1"/>
        <pt x="784" y="503" on="0"/>
        <pt x="613" y="643" on="0"/>
        <pt x="362" y="643" on="0"/>
        <pt x="190" y="470" on="0"/>
        <pt x="190" y="210" on="0"/>
        <pt x="340" y="61" on="0"/>
        <pt x="444" y="61" on="1"/>
        <pt x="477" y="61" on="0"/>
        <pt x="562" y="83" on="0"/>
        <pt x="611" y="83" on="0"/>
        <pt x="644" y="56" on="0"/>
        <pt x="644" y="34" on="1"/>
        <pt x="644" y="-4" on="0"/>
        <pt x="532" y="-55" on="0"/>
        <pt x="441" y="-55" on="1"/>
        <pt x="277" y="-55" on="0"/>
        <pt x="54" y="164" on="0"/>
        <pt x="54" y="514" on="0"/>
        <pt x="303" y="765" on="0"/>
        <pt x="674" y="765" on="0"/>
        <pt x="915" y="551" on="0"/>
      </contour>
      <contour>
        <pt x="540" y="329" on="1"/>
        <pt x="540" y="442" on="1"/>
        <pt x="513" y="464" on="0"/>
        <pt x="449" y="464" on="0"/>
        <pt x="396" y="396" on="0"/>
        <pt x="396" y="301" on="0"/>
        <pt x="426" y="238" on="0"/>
        <pt x="458" y="238" on="1"/>
        <pt x="500" y="238" on="0"/>
      </contour>
    </TTGlyph>
    <TTGlyph name="atilde" xMin="62" yMin="-15" xMax="746" yMax="975">
      <contour>
        <pt x="643" y="765" on="0"/>
        <pt x="690" y="698" on="0"/>
        <pt x="690" y="597" on="0"/>
        <pt x="662" y="366" on="1"/>
        <pt x="662" y="312" on="0"/>
        <pt x="685" y="135" on="0"/>
        <pt x="704" y="122" on="1"/>
        <pt x="722" y="110" on="0"/>
        <pt x="738" y="104" on="0"/>
        <pt x="741" y="102" on="1"/>
        <pt x="746" y="97" on="0"/>
        <pt x="746" y="82" on="1"/>
        <pt x="746" y="44" on="0"/>
        <pt x="694" y="-14" on="0"/>
        <pt x="611" y="-14" on="0"/>
        <pt x="557" y="57" on="0"/>
        <pt x="547" y="112" on="1"/>
        <pt x="454" y="-15" on="0"/>
        <pt x="329" y="-15" on="1"/>
        <pt x="262" y="-15" on="0"/>
        <pt x="156" y="54" on="0"/>
        <pt x="125" y="110" on="1"/>
        <pt x="62" y="224" on="0"/>
        <pt x="62" y="363" on="1"/>
        <pt x="62" y="527" on="0"/>
        <pt x="238" y="765" on="0"/>
        <pt x="378" y="765" on="1"/>
        <pt x="460" y="765" on="0"/>
        <pt x="534" y="721" on="1"/>
        <pt x="549" y="765" on="0"/>
        <pt x="602" y="765" on="1"/>
      </contour>
      <contour>
        <pt x="536" y="357" on="1"/>
        <pt x="531" y="577" on="1"/>
        <pt x="460" y="638" on="0"/>
        <pt x="378" y="638" on="1"/>
        <pt x="309" y="638" on="0"/>
        <pt x="204" y="481" on="0"/>
        <pt x="204" y="259" on="0"/>
        <pt x="273" y="112" on="0"/>
        <pt x="396" y="112" on="0"/>
        <pt x="523" y="276" on="0"/>
      </contour>
      <contour>
        <pt x="626" y="919" on="1"/>
        <pt x="626" y="885" on="0"/>
        <pt x="543" y="812" on="0"/>
        <pt x="467" y="812" on="0"/>
        <pt x="366" y="861" on="0"/>
        <pt x="335" y="861" on="0"/>
        <pt x="274" y="806" on="0"/>
        <pt x="220" y="806" on="0"/>
        <pt x="184" y="843" on="0"/>
        <pt x="184" y="870" on="1"/>
        <pt x="184" y="909" on="0"/>
        <pt x="270" y="975" on="0"/>
        <pt x="333" y="975" on="1"/>
        <pt x="365" y="975" on="0"/>
        <pt x="473" y="927" on="0"/>
        <pt x="517" y="927" on="0"/>
        <pt x="565" y="971" on="0"/>
        <pt x="602" y="971" on="0"/>
        <pt x="626" y="941" on="0"/>
      </contour>
    </TTGlyph>
    <TTGlyph name="b" xMin="64" yMin="-15" xMax="675" yMax="765">
      <contour>
        <pt x="675" y="221" on="1"/>
        <pt x="675" y="113" on="0"/>
        <pt x="494" y="-15" on="0"/>
        <pt x="223" y="-15" on="0"/>
        <pt x="64" y="42" on="0"/>
        <pt x="64" y="86" on="1"/>
        <pt x="64" y="133" on="0"/>
        <pt x="108" y="141" on="1"/>
        <pt x="111" y="241" on="0"/>
        <pt x="111" y="516" on="0"/>
        <pt x="108" y="592" on="1"/>
        <pt x="67" y="611" on="0"/>
        <pt x="67" y="679" on="0"/>
        <pt x="132" y="726" on="0"/>
        <pt x="179" y="739" on="1"/>
        <pt x="273" y="765" on="0"/>
        <pt x="417" y="765" on="0"/>
        <pt x="530" y="726" on="0"/>
        <pt x="562" y="694" on="1"/>
        <pt x="624" y="632" on="0"/>
        <pt x="624" y="562" on="1"/>
        <pt x="624" y="476" on="0"/>
        <pt x="547" y="411" on="1"/>
        <pt x="603" y="380" on="0"/>
        <pt x="675" y="278" on="0"/>
      </contour>
      <contour>
        <pt x="253" y="118" on="1"/>
        <pt x="291" y="111" on="0"/>
        <pt x="430" y="111" on="0"/>
        <pt x="532" y="170" on="0"/>
        <pt x="532" y="227" on="1"/>
        <pt x="532" y="269" on="0"/>
        <pt x="449" y="327" on="0"/>
        <pt x="400" y="337" on="1"/>
        <pt x="347" y="323" on="0"/>
        <pt x="276" y="323" on="0"/>
        <pt x="248" y="325" on="1"/>
        <pt x="250" y="151" on="0"/>
      </contour>
      <contour>
        <pt x="488" y="591" on="0"/>
        <pt x="417" y="639" on="0"/>
        <pt x="298" y="639" on="0"/>
        <pt x="250" y="627" on="1"/>
        <pt x="250" y="462" on="1"/>
        <pt x="288" y="466" on="0"/>
        <pt x="351" y="466" on="0"/>
        <pt x="388" y="458" on="1"/>
        <pt x="419" y="462" on="0"/>
        <pt x="488" y="517" on="0"/>
        <pt x="488" y="561" on="1"/>
      </contour>
    </TTGlyph>
    <TTGlyph name="backslash" xMin="62" yMin="-84" xMax="391" yMax="839">
      <contour>
        <pt x="212" y="742" on="1"/>
        <pt x="272" y="468" on="0"/>
        <pt x="317" y="277" on="0"/>
        <pt x="370" y="89" on="0"/>
        <pt x="391" y="11" on="0"/>
        <pt x="391" y="-43" on="0"/>
        <pt x="352" y="-84" on="0"/>
        <pt x="296" y="-84" on="0"/>
        <pt x="261" y="-50" on="0"/>
        <pt x="247" y="-14" on="0"/>
        <pt x="188" y="257" on="0"/>
        <pt x="136" y="476" on="0"/>
        <pt x="82" y="667" on="0"/>
        <pt x="62" y="744" on="0"/>
        <pt x="62" y="798" on="0"/>
        <pt x="101" y="839" on="0"/>
        <pt x="132" y="839" on="1"/>
        <pt x="189" y="839" on="0"/>
      </contour>
    </TTGlyph>
    <TTGlyph name="bar" xMin="80" yMin="-79" xMax="216" yMax="760">
      <contour>
        <pt x="211" y="339" on="1"/>
        <pt x="215" y="28" on="1"/>
        <pt x="215" y="-79" on="0"/>
        <pt x="147" y="-79" on="1"/>
        <pt x="81" y="-79" on="0"/>
        <pt x="81" y="28" on="1"/>
        <pt x="85" y="339" on="1"/>
        <pt x="80" y="650" on="1"/>
        <pt x="80" y="760" on="0"/>
        <pt x="216" y="760" on="0"/>
        <pt x="216" y="650" on="1"/>
      </contour>
    </TTGlyph>
    <TTGlyph name="braceleft" xMin="19" yMin="-89" xMax="359" yMax="835">
      <contour>
        <pt x="246" y="374" on="1"/>
        <pt x="284" y="325" on="0"/>
        <pt x="284" y="216" on="1"/>
        <pt x="284" y="182" on="0"/>
        <pt x="271" y="94" on="0"/>
        <pt x="271" y="62" on="0"/>
        <pt x="298" y="41" on="0"/>
        <pt x="331" y="33" on="0"/>
        <pt x="358" y="2" on="0"/>
        <pt x="358" y="-53" on="0"/>
        <pt x="321" y="-89" on="0"/>
        <pt x="290" y="-89" on="1"/>
        <pt x="224" y="-89" on="0"/>
        <pt x="127" y="-12" on="0"/>
        <pt x="127" y="59" on="1"/>
        <pt x="127" y="87" on="0"/>
        <pt x="141" y="190" on="0"/>
        <pt x="141" y="264" on="0"/>
        <pt x="134" y="286" on="1"/>
        <pt x="122" y="284" on="0"/>
        <pt x="115" y="284" on="1"/>
        <pt x="76" y="284" on="0"/>
        <pt x="19" y="330" on="0"/>
        <pt x="19" y="416" on="0"/>
        <pt x="76" y="462" on="0"/>
        <pt x="116" y="462" on="1"/>
        <pt x="123" y="462" on="0"/>
        <pt x="135" y="460" on="1"/>
        <pt x="142" y="482" on="0"/>
        <pt x="142" y="556" on="0"/>
        <pt x="128" y="659" on="0"/>
        <pt x="128" y="687" on="1"/>
        <pt x="128" y="758" on="0"/>
        <pt x="225" y="835" on="0"/>
        <pt x="291" y="835" on="1"/>
        <pt x="322" y="835" on="0"/>
        <pt x="359" y="799" on="0"/>
        <pt x="359" y="744" on="0"/>
        <pt x="332" y="713" on="0"/>
        <pt x="316" y="709" on="1"/>
        <pt x="272" y="698" on="0"/>
        <pt x="272" y="666" on="1"/>
        <pt x="272" y="652" on="0"/>
        <pt x="285" y="564" on="0"/>
        <pt x="285" y="530" on="1"/>
        <pt x="285" y="424" on="0"/>
      </contour>
    </TTGlyph>
    <TTGlyph name="braceright" xMin="46" yMin="-89" xMax="386" yMax="835">
      <contour>
        <pt x="159" y="374" on="1"/>
        <pt x="120" y="424" on="0"/>
        <pt x="120" y="530" on="1"/>
        <pt x="120" y="564" on="0"/>
        <pt x="133" y="652" on="0"/>
        <pt x="133" y="684" on="0"/>
        <pt x="106" y="705" on="0"/>
        <pt x="73" y="713" on="0"/>
        <pt x="46" y="744" on="0"/>
        <pt x="46" y="799" on="0"/>
        <pt x="83" y="835" on="0"/>
        <pt x="114" y="835" on="1"/>
        <pt x="180" y="835" on="0"/>
        <pt x="277" y="758" on="0"/>
        <pt x="277" y="687" on="1"/>
        <pt x="277" y="659" on="0"/>
        <pt x="263" y="556" on="0"/>
        <pt x="263" y="482" on="0"/>
        <pt x="270" y="460" on="1"/>
        <pt x="282" y="462" on="0"/>
        <pt x="289" y="462" on="1"/>
        <pt x="329" y="462" on="0"/>
        <pt x="386" y="416" on="0"/>
        <pt x="386" y="330" on="0"/>
        <pt x="329" y="284" on="0"/>
        <pt x="290" y="284" on="1"/>
        <pt x="283" y="284" on="0"/>
        <pt x="271" y="286" on="1"/>
        <pt x="264" y="264" on="0"/>
        <pt x="264" y="190" on="0"/>
        <pt x="278" y="87" on="0"/>
        <pt x="278" y="59" on="1"/>
        <pt x="278" y="-12" on="0"/>
        <pt x="181" y="-89" on="0"/>
        <pt x="115" y="-89" on="1"/>
        <pt x="84" y="-89" on="0"/>
        <pt x="47" y="-53" on="0"/>
        <pt x="47" y="2" on="0"/>
        <pt x="74" y="33" on="0"/>
        <pt x="90" y="37" on="1"/>
        <pt x="134" y="48" on="0"/>
        <pt x="134" y="80" on="1"/>
        <pt x="134" y="94" on="0"/>
        <pt x="121" y="182" on="0"/>
        <pt x="121" y="216" on="1"/>
        <pt x="121" y="325" on="0"/>
      </contour>
    </TTGlyph>
    <TTGlyph name="bracketleft" xMin="81" yMin="-87" xMax="421" yMax="839">
      <contour>
        <pt x="228" y="39" on="1"/>
        <pt x="338" y="43" on="1"/>
        <pt x="374" y="43" on="0"/>
        <pt x="421" y="8" on="0"/>
        <pt x="421" y="-51" on="0"/>
        <pt x="375" y="-86" on="0"/>
        <pt x="338" y="-86" on="1"/>
        <pt x="250" y="-83" on="1"/>
        <pt x="158" y="-87" on="1"/>
        <pt x="124" y="-87" on="0"/>
        <pt x="82" y="-46" on="0"/>
        <pt x="82" y="-11" on="1"/>
        <pt x="87" y="375" on="1"/>
        <pt x="81" y="763" on="1"/>
        <pt x="81" y="800" on="0"/>
        <pt x="123" y="839" on="0"/>
        <pt x="158" y="839" on="1"/>
        <pt x="250" y="835" on="1"/>
        <pt x="338" y="838" on="1"/>
        <pt x="374" y="838" on="0"/>
        <pt x="421" y="802" on="0"/>
        <pt x="421" y="745" on="0"/>
        <pt x="374" y="709" on="0"/>
        <pt x="338" y="709" on="1"/>
        <pt x="228" y="712" on="1"/>
        <pt x="222" y="546" on="0"/>
        <pt x="222" y="212" on="0"/>
      </contour>
    </TTGlyph>
    <TTGlyph name="bracketright" xMin="31" yMin="-87" xMax="371" yMax="839">
      <contour>
        <pt x="202" y="-83" on="1"/>
        <pt x="114" y="-86" on="1"/>
        <pt x="77" y="-86" on="0"/>
        <pt x="31" y="-51" on="0"/>
        <pt x="31" y="8" on="0"/>
        <pt x="78" y="43" on="0"/>
        <pt x="114" y="43" on="1"/>
        <pt x="224" y="39" on="1"/>
        <pt x="230" y="212" on="0"/>
        <pt x="230" y="546" on="0"/>
        <pt x="224" y="712" on="1"/>
        <pt x="224" y="712" on="0"/>
        <pt x="114" y="709" on="1"/>
        <pt x="78" y="709" on="0"/>
        <pt x="31" y="745" on="0"/>
        <pt x="31" y="802" on="0"/>
        <pt x="78" y="838" on="0"/>
        <pt x="114" y="838" on="1"/>
        <pt x="202" y="835" on="1"/>
        <pt x="294" y="839" on="1"/>
        <pt x="329" y="839" on="0"/>
        <pt x="371" y="800" on="0"/>
        <pt x="371" y="763" on="1"/>
        <pt x="365" y="375" on="1"/>
        <pt x="370" y="-11" on="1"/>
        <pt x="370" y="-46" on="0"/>
        <pt x="328" y="-87" on="0"/>
        <pt x="294" y="-87" on="1"/>
      </contour>
    </TTGlyph>
    <TTGlyph name="breve" xMin="37" yMin="570" xMax="391" yMax="775">
      <contour>
        <pt x="291" y="570" on="0"/>
        <pt x="137" y="570" on="0"/>
        <pt x="37" y="672" on="0"/>
        <pt x="37" y="716" on="1"/>
        <pt x="37" y="746" on="0"/>
        <pt x="71" y="775" on="0"/>
        <pt x="115" y="775" on="0"/>
        <pt x="150" y="750" on="0"/>
        <pt x="168" y="720" on="0"/>
        <pt x="197" y="695" on="0"/>
        <pt x="231" y="695" on="0"/>
        <pt x="260" y="720" on="0"/>
        <pt x="278" y="750" on="0"/>
        <pt x="313" y="775" on="0"/>
        <pt x="357" y="775" on="0"/>
        <pt x="391" y="746" on="0"/>
        <pt x="391" y="716" on="1"/>
        <pt x="391" y="672" on="0"/>
      </contour>
    </TTGlyph>
    <TTGlyph name="brokenbar" xMin="86" yMin="-10" xMax="220" yMax="760">
      <contour>
        <pt x="215" y="595" on="1"/>
        <pt x="220" y="512" on="1"/>
        <pt x="220" y="476" on="0"/>
        <pt x="183" y="430" on="0"/>
        <pt x="120" y="430" on="0"/>
        <pt x="86" y="475" on="0"/>
        <pt x="86" y="512" on="1"/>
        <pt x="86" y="512" on="0"/>
        <pt x="90" y="595" on="1"/>
        <pt x="87" y="678" on="1"/>
        <pt x="87" y="715" on="0"/>
        <pt x="120" y="760" on="0"/>
        <pt x="183" y="760" on="0"/>
        <pt x="219" y="715" on="0"/>
        <pt x="219" y="678" on="1"/>
      </contour>
      <contour>
        <pt x="215" y="155" on="1"/>
        <pt x="220" y="72" on="1"/>
        <pt x="220" y="36" on="0"/>
        <pt x="183" y="-10" on="0"/>
        <pt x="120" y="-10" on="0"/>
        <pt x="86" y="35" on="0"/>
        <pt x="86" y="72" on="1"/>
        <pt x="90" y="155" on="1"/>
        <pt x="87" y="238" on="1"/>
        <pt x="87" y="275" on="0"/>
        <pt x="120" y="320" on="0"/>
        <pt x="183" y="320" on="0"/>
        <pt x="219" y="275" on="0"/>
        <pt x="219" y="238" on="1"/>
      </contour>
    </TTGlyph>
    <TTGlyph name="bullet" xMin="56" yMin="243" xMax="300" yMax="535">
      <contour>
        <pt x="243" y="535" on="0"/>
        <pt x="300" y="458" on="0"/>
        <pt x="300" y="339" on="0"/>
        <pt x="225" y="243" on="0"/>
        <pt x="115" y="243" on="0"/>
        <pt x="56" y="323" on="0"/>
        <pt x="56" y="441" on="0"/>
        <pt x="131" y="535" on="0"/>
      </contour>
    </TTGlyph>
    <TTGlyph name="c" xMin="63" yMin="-15" xMax="659" yMax="765">
      <contour>
        <pt x="659" y="121" on="1"/>
        <pt x="659" y="75" on="0"/>
        <pt x="507" y="-15" on="0"/>
        <pt x="400" y="-15" on="1"/>
        <pt x="255" y="-15" on="0"/>
        <pt x="63" y="213" on="0"/>
        <pt x="63" y="539" on="0"/>
        <pt x="256" y="765" on="0"/>
        <pt x="401" y="765" on="1"/>
        <pt x="493" y="765" on="0"/>
        <pt x="640" y="689" on="0"/>
        <pt x="640" y="641" on="1"/>
        <pt x="640" y="612" on="0"/>
        <pt x="602" y="577" on="0"/>
        <pt x="543" y="577" on="0"/>
        <pt x="455" y="638" on="0"/>
        <pt x="401" y="638" on="1"/>
        <pt x="316" y="638" on="0"/>
        <pt x="205" y="483" on="0"/>
        <pt x="205" y="270" on="0"/>
        <pt x="315" y="111" on="0"/>
        <pt x="478" y="111" on="0"/>
        <pt x="550" y="154" on="1"/>
        <pt x="583" y="174" on="0"/>
        <pt x="630" y="174" on="0"/>
        <pt x="659" y="144" on="0"/>
      </contour>
    </TTGlyph>
    <TTGlyph name="caron" xMin="59" yMin="533" xMax="421" yMax="760">
      <contour>
        <pt x="290" y="548" on="0"/>
        <pt x="259" y="533" on="0"/>
        <pt x="222" y="533" on="0"/>
        <pt x="191" y="548" on="0"/>
        <pt x="173" y="566" on="0"/>
        <pt x="139" y="603" on="0"/>
        <pt x="117" y="625" on="0"/>
        <pt x="82" y="657" on="0"/>
        <pt x="76" y="663" on="1"/>
        <pt x="59" y="680" on="0"/>
        <pt x="59" y="724" on="0"/>
        <pt x="94" y="759" on="0"/>
        <pt x="143" y="759" on="0"/>
        <pt x="195" y="712" on="0"/>
        <pt x="232" y="664" on="0"/>
        <pt x="248" y="664" on="0"/>
        <pt x="266" y="688" on="1"/>
        <pt x="322" y="760" on="0"/>
        <pt x="363" y="760" on="1"/>
        <pt x="386" y="760" on="0"/>
        <pt x="421" y="725" on="0"/>
        <pt x="421" y="691" on="0"/>
        <pt x="410" y="670" on="0"/>
        <pt x="398" y="658" on="0"/>
        <pt x="363" y="626" on="0"/>
        <pt x="340" y="604" on="0"/>
        <pt x="308" y="566" on="0"/>
      </contour>
    </TTGlyph>
    <TTGlyph name="ccedilla" xMin="63" yMin="-230" xMax="659" yMax="765">
      <contour>
        <pt x="659" y="121" on="1"/>
        <pt x="659" y="80" on="0"/>
        <pt x="536" y="-3" on="0"/>
        <pt x="444" y="-12" on="1"/>
        <pt x="449" y="-27" on="0"/>
        <pt x="506" y="-101" on="0"/>
        <pt x="506" y="-171" on="0"/>
        <pt x="433" y="-230" on="0"/>
        <pt x="328" y="-230" on="0"/>
        <pt x="253" y="-170" on="0"/>
        <pt x="253" y="-141" on="1"/>
        <pt x="253" y="-124" on="0"/>
        <pt x="274" y="-101" on="0"/>
        <pt x="309" y="-101" on="0"/>
        <pt x="353" y="-126" on="0"/>
        <pt x="366" y="-126" on="1"/>
        <pt x="389" y="-126" on="0"/>
        <pt x="389" y="-107" on="1"/>
        <pt x="389" y="-101" on="0"/>
        <pt x="335" y="-35" on="0"/>
        <pt x="332" y="-8" on="1"/>
        <pt x="213" y="18" on="0"/>
        <pt x="63" y="233" on="0"/>
        <pt x="63" y="376" on="1"/>
        <pt x="63" y="539" on="0"/>
        <pt x="256" y="765" on="0"/>
        <pt x="401" y="765" on="1"/>
        <pt x="493" y="765" on="0"/>
        <pt x="640" y="689" on="0"/>
        <pt x="640" y="641" on="1"/>
        <pt x="640" y="612" on="0"/>
        <pt x="602" y="577" on="0"/>
        <pt x="545" y="577" on="0"/>
        <pt x="442" y="638" on="0"/>
        <pt x="401" y="638" on="1"/>
        <pt x="316" y="638" on="0"/>
        <pt x="205" y="483" on="0"/>
        <pt x="205" y="270" on="0"/>
        <pt x="315" y="111" on="0"/>
        <pt x="400" y="111" on="1"/>
        <pt x="439" y="111" on="0"/>
        <pt x="502" y="131" on="0"/>
        <pt x="519" y="142" on="1"/>
        <pt x="566" y="174" on="0"/>
        <pt x="630" y="174" on="0"/>
        <pt x="659" y="144" on="0"/>
      </contour>
    </TTGlyph>
    <TTGlyph name="cedilla" xMin="24" yMin="-250" xMax="277" yMax="20">
      <contour>
        <pt x="102" y="20" on="1"/>
        <pt x="208" y="20" on="1"/>
        <pt x="211" y="-42" on="0"/>
        <pt x="237" y="-70" on="1"/>
        <pt x="277" y="-114" on="0"/>
        <pt x="277" y="-191" on="0"/>
        <pt x="204" y="-250" on="0"/>
        <pt x="99" y="-250" on="0"/>
        <pt x="24" y="-190" on="0"/>
        <pt x="24" y="-161" on="1"/>
        <pt x="24" y="-144" on="0"/>
        <pt x="45" y="-121" on="0"/>
        <pt x="80" y="-121" on="0"/>
        <pt x="124" y="-146" on="0"/>
        <pt x="137" y="-146" on="1"/>
        <pt x="160" y="-146" on="0"/>
        <pt x="160" y="-127" on="1"/>
        <pt x="160" y="-118" on="0"/>
        <pt x="122" y="-80" on="0"/>
        <pt x="102" y="-42" on="0"/>
      </contour>
    </TTGlyph>
    <TTGlyph name="cent" xMin="62" yMin="-82" xMax="658" yMax="787">
      <contour>
        <pt x="658" y="121" on="1"/>
        <pt x="658" y="84" on="0"/>
        <pt x="555" y="7" on="0"/>
        <pt x="475" y="-8" on="1"/>
        <pt x="464" y="-82" on="0"/>
        <pt x="409" y="-82" on="1"/>
        <pt x="356" y="-82" on="0"/>
        <pt x="345" y="-10" on="1"/>
        <pt x="221" y="9" on="0"/>
        <pt x="62" y="214" on="0"/>
        <pt x="62" y="486" on="0"/>
        <pt x="220" y="689" on="0"/>
        <pt x="344" y="710" on="1"/>
        <pt x="354" y="787" on="0"/>
        <pt x="466" y="787" on="0"/>
        <pt x="476" y="707" on="1"/>
        <pt x="545" y="693" on="0"/>
        <pt x="639" y="628" on="0"/>
        <pt x="639" y="562" on="0"/>
        <pt x="601" y="527" on="0"/>
        <pt x="555" y="527" on="0"/>
        <pt x="525" y="540" on="0"/>
        <pt x="486" y="565" on="0"/>
        <pt x="476" y="570" on="1"/>
        <pt x="473" y="369" on="0"/>
        <pt x="473" y="328" on="0"/>
        <pt x="476" y="121" on="1"/>
        <pt x="503" y="128" on="0"/>
        <pt x="582" y="174" on="0"/>
        <pt x="629" y="174" on="0"/>
        <pt x="658" y="144" on="0"/>
      </contour>
      <contour>
        <pt x="280" y="557" on="0"/>
        <pt x="204" y="429" on="0"/>
        <pt x="204" y="272" on="0"/>
        <pt x="281" y="142" on="0"/>
        <pt x="344" y="120" on="1"/>
        <pt x="347" y="327" on="0"/>
        <pt x="347" y="401" on="0"/>
        <pt x="343" y="563" on="0"/>
        <pt x="343" y="578" on="1"/>
      </contour>
    </TTGlyph>
    <TTGlyph name="circumflex" xMin="59" yMin="533" xMax="421" yMax="760">
      <contour>
        <pt x="191" y="745" on="0"/>
        <pt x="222" y="760" on="0"/>
        <pt x="265" y="760" on="0"/>
        <pt x="295" y="742" on="0"/>
        <pt x="342" y="688" on="0"/>
        <pt x="363" y="667" on="0"/>
        <pt x="398" y="635" on="0"/>
        <pt x="404" y="629" on="1"/>
        <pt x="421" y="612" on="0"/>
        <pt x="421" y="568" on="0"/>
        <pt x="386" y="533" on="0"/>
        <pt x="337" y="533" on="0"/>
        <pt x="285" y="581" on="0"/>
        <pt x="248" y="629" on="0"/>
        <pt x="232" y="629" on="0"/>
        <pt x="214" y="606" on="1"/>
        <pt x="157" y="534" on="0"/>
        <pt x="117" y="534" on="1"/>
        <pt x="94" y="534" on="0"/>
        <pt x="59" y="569" on="0"/>
        <pt x="59" y="603" on="0"/>
        <pt x="70" y="624" on="0"/>
        <pt x="82" y="636" on="0"/>
        <pt x="117" y="668" on="0"/>
        <pt x="139" y="690" on="0"/>
        <pt x="173" y="727" on="0"/>
      </contour>
    </TTGlyph>
    <TTGlyph name="colon" xMin="71" yMin="-10" xMax="235" yMax="504">
      <contour>
        <pt x="192" y="164" on="0"/>
        <pt x="235" y="116" on="0"/>
        <pt x="235" y="46" on="0"/>
        <pt x="186" y="-10" on="0"/>
        <pt x="113" y="-10" on="0"/>
        <pt x="71" y="39" on="0"/>
        <pt x="71" y="109" on="0"/>
        <pt x="119" y="164" on="0"/>
      </contour>
      <contour>
        <pt x="192" y="504" on="0"/>
        <pt x="235" y="456" on="0"/>
        <pt x="235" y="386" on="0"/>
        <pt x="186" y="330" on="0"/>
        <pt x="113" y="330" on="0"/>
        <pt x="71" y="379" on="0"/>
        <pt x="71" y="449" on="0"/>
        <pt x="119" y="504" on="0"/>
      </contour>
    </TTGlyph>
    <TTGlyph name="comma" xMin="33" yMin="-135" xMax="200" yMax="159">
      <contour>
        <pt x="56" y="-3" on="1"/>
        <pt x="46" y="73" on="1"/>
        <pt x="46" y="107" on="0"/>
        <pt x="91" y="159" on="0"/>
        <pt x="160" y="159" on="0"/>
        <pt x="200" y="111" on="0"/>
        <pt x="200" y="77" on="1"/>
        <pt x="200" y="9" on="0"/>
        <pt x="114" y="-135" on="0"/>
        <pt x="78" y="-135" on="1"/>
        <pt x="55" y="-135" on="0"/>
        <pt x="33" y="-107" on="0"/>
        <pt x="33" y="-76" on="0"/>
        <pt x="56" y="-23" on="0"/>
      </contour>
    </TTGlyph>
    <TTGlyph name="commaaccent" xMin="9" yMin="-252" xMax="201" yMax="-46">
      <contour>
        <pt x="201" y="-115" on="1"/>
        <pt x="201" y="-164" on="0"/>
        <pt x="94" y="-252" on="0"/>
        <pt x="58" y="-252" on="1"/>
        <pt x="35" y="-252" on="0"/>
        <pt x="9" y="-227" on="0"/>
        <pt x="9" y="-193" on="0"/>
        <pt x="50" y="-132" on="0"/>
        <pt x="55" y="-123" on="0"/>
        <pt x="69" y="-90" on="0"/>
        <pt x="78" y="-75" on="0"/>
        <pt x="86" y="-65" on="1"/>
        <pt x="103" y="-46" on="0"/>
        <pt x="166" y="-46" on="0"/>
        <pt x="201" y="-90" on="0"/>
      </contour>
    </TTGlyph>
    <TTGlyph name="copyright" xMin="69" yMin="133" xMax="718" yMax="765">
      <contour>
        <pt x="399" y="620" on="1"/>
        <pt x="442" y="620" on="0"/>
        <pt x="514" y="579" on="0"/>
        <pt x="514" y="552" on="1"/>
        <pt x="514" y="503" on="0"/>
        <pt x="463" y="503" on="1"/>
        <pt x="451" y="503" on="0"/>
        <pt x="413" y="523" on="0"/>
        <pt x="403" y="523" on="1"/>
        <pt x="375" y="523" on="0"/>
        <pt x="345" y="480" on="0"/>
        <pt x="345" y="422" on="0"/>
        <pt x="379" y="381" on="0"/>
        <pt x="403" y="381" on="1"/>
        <pt x="414" y="381" on="0"/>
        <pt x="460" y="399" on="0"/>
        <pt x="492" y="399" on="0"/>
        <pt x="519" y="374" on="0"/>
        <pt x="519" y="329" on="0"/>
        <pt x="451" y="284" on="0"/>
        <pt x="399" y="284" on="1"/>
        <pt x="331" y="284" on="0"/>
        <pt x="238" y="384" on="0"/>
        <pt x="238" y="522" on="0"/>
        <pt x="328" y="620" on="0"/>
      </contour>
      <contour>
        <pt x="718" y="580" on="0"/>
        <pt x="718" y="318" on="0"/>
        <pt x="529" y="133" on="0"/>
        <pt x="260" y="133" on="0"/>
        <pt x="69" y="319" on="0"/>
        <pt x="69" y="580" on="0"/>
        <pt x="260" y="765" on="0"/>
        <pt x="529" y="765" on="0"/>
      </contour>
      <contour>
        <pt x="480" y="240" on="0"/>
        <pt x="603" y="362" on="0"/>
        <pt x="603" y="537" on="0"/>
        <pt x="480" y="659" on="0"/>
        <pt x="306" y="659" on="0"/>
        <pt x="184" y="537" on="0"/>
        <pt x="184" y="361" on="0"/>
        <pt x="306" y="240" on="0"/>
      </contour>
    </TTGlyph>
    <TTGlyph name="currency" xMin="67" yMin="119" xMax="608" yMax="626">
      <contour>
        <pt x="542" y="473" on="1"/>
        <pt x="563" y="427" on="0"/>
        <pt x="563" y="318" on="0"/>
        <pt x="542" y="272" on="1"/>
        <pt x="586" y="232" on="0"/>
        <pt x="608" y="203" on="0"/>
        <pt x="608" y="157" on="0"/>
        <pt x="567" y="119" on="0"/>
        <pt x="516" y="119" on="0"/>
        <pt x="486" y="139" on="0"/>
        <pt x="455" y="173" on="1"/>
        <pt x="405" y="144" on="0"/>
        <pt x="272" y="144" on="0"/>
        <pt x="220" y="173" on="1"/>
        <pt x="189" y="139" on="0"/>
        <pt x="161" y="119" on="0"/>
        <pt x="108" y="119" on="0"/>
        <pt x="67" y="156" on="0"/>
        <pt x="67" y="204" on="0"/>
        <pt x="88" y="233" on="0"/>
        <pt x="132" y="272" on="1"/>
        <pt x="112" y="320" on="0"/>
        <pt x="112" y="425" on="0"/>
        <pt x="132" y="473" on="1"/>
        <pt x="88" y="512" on="0"/>
        <pt x="67" y="541" on="0"/>
        <pt x="67" y="589" on="0"/>
        <pt x="108" y="626" on="0"/>
        <pt x="161" y="626" on="0"/>
        <pt x="189" y="606" on="0"/>
        <pt x="220" y="572" on="1"/>
        <pt x="272" y="601" on="0"/>
        <pt x="405" y="601" on="0"/>
        <pt x="455" y="572" on="1"/>
        <pt x="486" y="606" on="0"/>
        <pt x="516" y="626" on="0"/>
        <pt x="567" y="626" on="0"/>
        <pt x="608" y="588" on="0"/>
        <pt x="608" y="542" on="0"/>
        <pt x="586" y="513" on="0"/>
      </contour>
      <contour>
        <pt x="430" y="416" on="0"/>
        <pt x="375" y="480" on="0"/>
        <pt x="300" y="480" on="0"/>
        <pt x="244" y="417" on="0"/>
        <pt x="244" y="328" on="0"/>
        <pt x="299" y="263" on="0"/>
        <pt x="375" y="263" on="0"/>
        <pt x="430" y="328" on="0"/>
      </contour>
    </TTGlyph>
    <TTGlyph name="d" xMin="65" yMin="-15" xMax="713" yMax="763">
      <contour>
        <pt x="115" y="375" on="1"/>
        <pt x="110" y="603" on="1"/>
        <pt x="69" y="615" on="0"/>
        <pt x="69" y="660" on="1"/>
        <pt x="69" y="690" on="0"/>
        <pt x="156" y="740" on="0"/>
        <pt x="268" y="763" on="0"/>
        <pt x="318" y="763" on="1"/>
        <pt x="416" y="763" on="0"/>
        <pt x="571" y="697" on="0"/>
        <pt x="618" y="642" on="1"/>
        <pt x="713" y="529" on="0"/>
        <pt x="713" y="372" on="1"/>
        <pt x="713" y="221" on="0"/>
        <pt x="621" y="108" on="1"/>
        <pt x="576" y="52" on="0"/>
        <pt x="425" y="-15" on="0"/>
        <pt x="217" y="-15" on="0"/>
        <pt x="65" y="45" on="0"/>
        <pt x="65" y="135" on="0"/>
        <pt x="112" y="146" on="1"/>
      </contour>
      <contour>
        <pt x="572" y="376" on="1"/>
        <pt x="572" y="484" on="0"/>
        <pt x="441" y="638" on="0"/>
        <pt x="318" y="638" on="1"/>
        <pt x="284" y="638" on="0"/>
        <pt x="254" y="629" on="1"/>
        <pt x="251" y="568" on="0"/>
        <pt x="251" y="190" on="0"/>
        <pt x="255" y="118" on="1"/>
        <pt x="287" y="111" on="0"/>
        <pt x="327" y="111" on="1"/>
        <pt x="408" y="111" on="0"/>
        <pt x="465" y="150" on="1"/>
        <pt x="572" y="225" on="0"/>
      </contour>
    </TTGlyph>
    <TTGlyph name="dagger" xMin="45" yMin="-84" xMax="573" yMax="761">
      <contour>
        <pt x="372" y="320" on="1"/>
        <pt x="376" y="2" on="1"/>
        <pt x="376" y="-37" on="0"/>
        <pt x="340" y="-84" on="0"/>
        <pt x="277" y="-84" on="0"/>
        <pt x="240" y="-38" on="0"/>
        <pt x="240" y="1" on="1"/>
        <pt x="240" y="4" on="0"/>
        <pt x="242" y="52" on="1"/>
        <pt x="246" y="194" on="0"/>
        <pt x="246" y="320" on="1"/>
        <pt x="246" y="438" on="1"/>
        <pt x="118" y="436" on="1"/>
        <pt x="86" y="436" on="0"/>
        <pt x="45" y="468" on="0"/>
        <pt x="45" y="522" on="0"/>
        <pt x="86" y="555" on="0"/>
        <pt x="118" y="555" on="1"/>
        <pt x="244" y="552" on="1"/>
        <pt x="241" y="675" on="1"/>
        <pt x="241" y="714" on="0"/>
        <pt x="277" y="761" on="0"/>
        <pt x="340" y="761" on="0"/>
        <pt x="376" y="714" on="0"/>
        <pt x="376" y="675" on="1"/>
        <pt x="373" y="552" on="1"/>
        <pt x="501" y="555" on="1"/>
        <pt x="534" y="555" on="0"/>
        <pt x="573" y="523" on="0"/>
        <pt x="573" y="468" on="0"/>
        <pt x="534" y="436" on="0"/>
        <pt x="501" y="436" on="1"/>
        <pt x="439" y="436" on="0"/>
        <pt x="372" y="438" on="1"/>
      </contour>
    </TTGlyph>
    <TTGlyph name="daggerdbl" xMin="55" yMin="-84" xMax="584" yMax="761">
      <contour>
        <pt x="383" y="320" on="1"/>
        <pt x="511" y="322" on="1"/>
        <pt x="543" y="322" on="0"/>
        <pt x="583" y="289" on="0"/>
        <pt x="583" y="235" on="0"/>
        <pt x="543" y="202" on="0"/>
        <pt x="511" y="202" on="1"/>
        <pt x="429" y="202" on="0"/>
        <pt x="383" y="205" on="1"/>
        <pt x="387" y="47" on="0"/>
        <pt x="387" y="-37" on="0"/>
        <pt x="351" y="-84" on="0"/>
        <pt x="288" y="-84" on="0"/>
        <pt x="251" y="-38" on="0"/>
        <pt x="251" y="1" on="1"/>
        <pt x="251" y="6" on="0"/>
        <pt x="256" y="205" on="1"/>
        <pt x="128" y="202" on="1"/>
        <pt x="96" y="202" on="0"/>
        <pt x="55" y="235" on="0"/>
        <pt x="55" y="289" on="0"/>
        <pt x="96" y="322" on="0"/>
        <pt x="128" y="322" on="1"/>
        <pt x="257" y="320" on="1"/>
        <pt x="257" y="438" on="1"/>
        <pt x="129" y="436" on="1"/>
        <pt x="97" y="436" on="0"/>
        <pt x="56" y="468" on="0"/>
        <pt x="56" y="522" on="0"/>
        <pt x="97" y="555" on="0"/>
        <pt x="129" y="555" on="1"/>
        <pt x="255" y="552" on="1"/>
        <pt x="252" y="675" on="1"/>
        <pt x="252" y="714" on="0"/>
        <pt x="288" y="761" on="0"/>
        <pt x="351" y="761" on="0"/>
        <pt x="387" y="714" on="0"/>
        <pt x="387" y="675" on="1"/>
        <pt x="384" y="552" on="1"/>
        <pt x="512" y="555" on="1"/>
        <pt x="545" y="555" on="0"/>
        <pt x="584" y="523" on="0"/>
        <pt x="584" y="468" on="0"/>
        <pt x="545" y="436" on="0"/>
        <pt x="512" y="436" on="1"/>
        <pt x="450" y="436" on="0"/>
        <pt x="383" y="438" on="1"/>
      </contour>
    </TTGlyph>
    <TTGlyph name="degree" xMin="54" yMin="464" xMax="353" yMax="763">
      <contour>
        <pt x="270" y="763" on="0"/>
        <pt x="353" y="676" on="0"/>
        <pt x="353" y="551" on="0"/>
        <pt x="270" y="464" on="0"/>
        <pt x="137" y="464" on="0"/>
        <pt x="54" y="550" on="0"/>
        <pt x="54" y="676" on="0"/>
        <pt x="137" y="763" on="0"/>
      </contour>
      <contour>
        <pt x="222" y="565" on="0"/>
        <pt x="244" y="592" on="0"/>
        <pt x="244" y="633" on="0"/>
        <pt x="222" y="662" on="0"/>
        <pt x="186" y="662" on="0"/>
        <pt x="163" y="633" on="0"/>
        <pt x="163" y="592" on="0"/>
        <pt x="186" y="565" on="0"/>
      </contour>
    </TTGlyph>
    <TTGlyph name="dieresis" xMin="75" yMin="560" xMax="467" yMax="724">
      <contour>
        <pt x="427" y="724" on="0"/>
        <pt x="467" y="679" on="0"/>
        <pt x="467" y="613" on="0"/>
        <pt x="421" y="560" on="0"/>
        <pt x="352" y="560" on="0"/>
        <pt x="313" y="606" on="0"/>
        <pt x="313" y="672" on="0"/>
        <pt x="358" y="724" on="0"/>
      </contour>
      <contour>
        <pt x="189" y="724" on="0"/>
        <pt x="229" y="679" on="0"/>
        <pt x="229" y="613" on="0"/>
        <pt x="183" y="560" on="0"/>
        <pt x="114" y="560" on="0"/>
        <pt x="75" y="606" on="0"/>
        <pt x="75" y="672" on="0"/>
        <pt x="120" y="724" on="0"/>
      </contour>
    </TTGlyph>
    <TTGlyph name="divide" xMin="66" yMin="98" xMax="564" yMax="650">
      <contour>
        <pt x="316" y="433" on="1"/>
        <pt x="492" y="438" on="1"/>
        <pt x="523" y="438" on="0"/>
        <pt x="564" y="402" on="0"/>
        <pt x="564" y="350" on="0"/>
        <pt x="523" y="314" on="0"/>
        <pt x="492" y="314" on="1"/>
        <pt x="316" y="319" on="1"/>
        <pt x="139" y="315" on="1"/>
        <pt x="108" y="315" on="0"/>
        <pt x="66" y="350" on="0"/>
        <pt x="66" y="402" on="0"/>
        <pt x="108" y="437" on="0"/>
        <pt x="139" y="437" on="1"/>
      </contour>
      <contour>
        <pt x="352" y="262" on="0"/>
        <pt x="392" y="217" on="0"/>
        <pt x="392" y="151" on="0"/>
        <pt x="346" y="98" on="0"/>
        <pt x="277" y="98" on="0"/>
        <pt x="238" y="144" on="0"/>
        <pt x="238" y="210" on="0"/>
        <pt x="283" y="262" on="0"/>
      </contour>
      <contour>
        <pt x="351" y="650" on="0"/>
        <pt x="391" y="605" on="0"/>
        <pt x="391" y="539" on="0"/>
        <pt x="345" y="486" on="0"/>
        <pt x="276" y="486" on="0"/>
        <pt x="237" y="532" on="0"/>
        <pt x="237" y="598" on="0"/>
        <pt x="282" y="650" on="0"/>
      </contour>
    </TTGlyph>
</ttFont>
